<?xml version="1.0" encoding="utf-8"?>
<!-- Generator: Adobe Illustrator 27.7.0, SVG Export Plug-In . SVG Version: 6.00 Build 0)  -->
<svg version="1.1" id="LOGO" xmlns="http://www.w3.org/2000/svg" xmlns:xlink="http://www.w3.org/1999/xlink" x="0px" y="0px"
	 viewBox="0 0 105 105" style="enable-background:new 0 0 105 105;" xml:space="preserve">
<style type="text/css">
	.st0{fill:none;stroke:#000000;stroke-width:5;}
</style>
<polygon id="OCTAGON" class="st0" points="32.5,2.5 72.5,2.5 102.5,32.5 102.5,72.5 72.5,102.5 32.5,102.5 2.5,72.5 2.5,32.5 "/>
<g id="TEXT">
	<path d="M25.3,39.8v2.1L24,42c-1.3,0-2.2-0.2-2.7-0.7c-0.3-0.3-0.5-0.8-0.5-1.5v-6.6h-1.5v-2h1.5v-3h2.8v3h1.7v2h-1.7v5.6
		c0,0.4,0.1,0.7,0.2,0.8s0.4,0.2,1,0.2c0.1,0,0.2,0,0.3,0S25.2,39.8,25.3,39.8z"/>
	<path d="M36.7,35.6v6.2h-2.8v-6.5c0-0.6-0.1-1-0.3-1.4c-0.3-0.5-0.7-0.7-1.4-0.7c-0.7,0-1.3,0.2-1.7,0.7s-0.6,1.2-0.6,2.1v5.8h-2.8
		V27.5h2.8v5.1c0.4-0.6,0.9-1,1.4-1.3s1.1-0.4,1.7-0.4c0.7,0,1.3,0.1,1.8,0.3s1,0.6,1.3,1c0.3,0.4,0.5,0.8,0.5,1.2
		S36.7,34.6,36.7,35.6z"/>
	<path d="M48.4,38.7c-0.1,0.6-0.4,1.3-1,1.9c-0.9,1-2.2,1.6-3.8,1.6c-1.4,0-2.5-0.4-3.6-1.3s-1.6-2.3-1.6-4.3c0-1.8,0.5-3.3,1.4-4.2
		s2.1-1.5,3.6-1.5c0.9,0,1.7,0.2,2.4,0.5s1.3,0.9,1.8,1.6c0.4,0.6,0.7,1.4,0.8,2.2c0.1,0.5,0.1,1.2,0.1,2.1h-7.3
		c0,1.1,0.4,1.8,1,2.2c0.4,0.3,0.8,0.4,1.4,0.4c0.6,0,1-0.2,1.4-0.5c0.2-0.2,0.4-0.4,0.5-0.7H48.4z M45.7,35.4
		c0-0.7-0.3-1.3-0.7-1.7s-0.9-0.6-1.5-0.6c-0.6,0-1.1,0.2-1.5,0.6s-0.6,1-0.7,1.6H45.7z"/>
	<path d="M50.9,32.3c0.7-0.9,2-1.4,3.8-1.4c1.2,0,2.2,0.2,3.1,0.7c0.9,0.5,1.4,1.3,1.4,2.6v4.9c0,0.3,0,0.7,0,1.2
		c0,0.4,0.1,0.6,0.2,0.7c0.1,0.1,0.2,0.2,0.4,0.3v0.4h-3c-0.1-0.2-0.1-0.4-0.2-0.6c0-0.2-0.1-0.4-0.1-0.6c-0.4,0.4-0.8,0.8-1.3,1.1
		c-0.6,0.3-1.3,0.5-2,0.5c-1,0-1.8-0.3-2.4-0.8S49.7,40,49.7,39c0-1.3,0.5-2.3,1.5-2.8c0.6-0.3,1.4-0.5,2.4-0.7l0.9-0.1
		c0.5-0.1,0.9-0.1,1.1-0.2c0.4-0.2,0.6-0.4,0.6-0.8c0-0.4-0.2-0.7-0.5-0.9s-0.7-0.2-1.3-0.2c-0.7,0-1.1,0.2-1.4,0.5
		c-0.2,0.2-0.3,0.6-0.4,1h-2.7C50.1,33.7,50.4,32.9,50.9,32.3z M52.9,39.8c0.3,0.2,0.6,0.3,1,0.3c0.6,0,1.2-0.2,1.7-0.5
		c0.5-0.4,0.8-1,0.8-1.9v-1c-0.2,0.1-0.4,0.2-0.5,0.3c-0.2,0.1-0.4,0.1-0.7,0.2l-0.6,0.1c-0.6,0.1-1,0.2-1.3,0.4
		c-0.4,0.3-0.6,0.6-0.6,1.2C52.5,39.2,52.7,39.6,52.9,39.8z"/>
	<path d="M66.5,39.8v2.1l-1.3,0c-1.3,0-2.2-0.2-2.7-0.7C62.1,41,62,40.5,62,39.8v-6.6h-1.5v-2H62v-3h2.8v3h1.7v2h-1.7v5.6
		c0,0.4,0.1,0.7,0.2,0.8s0.4,0.2,1,0.2c0.1,0,0.2,0,0.3,0S66.4,39.8,66.5,39.8z"/>
	<path d="M73.6,33.7c-1.1,0-1.9,0.4-2.3,1.1c-0.2,0.4-0.3,1-0.3,1.9v5.1h-2.8V31.2h2.7V33c0.4-0.7,0.8-1.2,1.1-1.5
		c0.5-0.4,1.2-0.7,2-0.7c0.1,0,0.1,0,0.1,0s0.1,0,0.2,0v2.9c-0.2,0-0.3,0-0.5,0S73.7,33.7,73.6,33.7z"/>
	<path d="M85.1,38.7c-0.1,0.6-0.4,1.3-1,1.9c-0.9,1-2.2,1.6-3.8,1.6c-1.4,0-2.5-0.4-3.6-1.3s-1.6-2.3-1.6-4.3c0-1.8,0.5-3.3,1.4-4.2
		s2.1-1.5,3.6-1.5c0.9,0,1.7,0.2,2.4,0.5s1.3,0.9,1.8,1.6c0.4,0.6,0.7,1.4,0.8,2.2c0.1,0.5,0.1,1.2,0.1,2.1H78c0,1.1,0.4,1.8,1,2.2
		c0.4,0.3,0.8,0.4,1.4,0.4c0.6,0,1-0.2,1.4-0.5c0.2-0.2,0.4-0.4,0.5-0.7H85.1z M82.4,35.4c0-0.7-0.3-1.3-0.7-1.7s-0.9-0.6-1.5-0.6
		c-0.6,0-1.1,0.2-1.5,0.6s-0.6,1-0.7,1.6H82.4z"/>
	<path d="M20.7,62.1c-0.9,0-1.6-0.2-2.1-0.5c-0.3-0.2-0.7-0.6-1-1.1v1.3h-2.7V47.4h2.8v5.1c0.4-0.5,0.7-0.9,1.2-1.1
		c0.5-0.3,1.1-0.5,1.9-0.5c1.4,0,2.5,0.5,3.3,1.5c0.8,1,1.2,2.3,1.2,3.9c0,1.7-0.4,3-1.2,4.1S22.1,62.1,20.7,62.1z M22.2,56.6
		c0-0.8-0.1-1.4-0.3-1.9c-0.4-0.9-1.1-1.4-2.1-1.4c-1,0-1.7,0.5-2.1,1.4c-0.2,0.5-0.3,1.1-0.3,1.9c0,0.9,0.2,1.7,0.6,2.3
		s1,0.9,1.8,0.9c0.7,0,1.3-0.3,1.7-0.9S22.2,57.6,22.2,56.6z"/>
	<path d="M34,60.3c0,0-0.1,0.1-0.2,0.3s-0.2,0.3-0.4,0.4c-0.4,0.4-0.9,0.7-1.3,0.8C31.7,62,31.3,62,30.7,62c-1.6,0-2.6-0.6-3.2-1.7
		c-0.3-0.6-0.5-1.5-0.5-2.8v-6.4h2.9v6.4c0,0.6,0.1,1.1,0.2,1.4c0.3,0.5,0.8,0.8,1.5,0.8c1,0,1.6-0.4,2-1.2c0.2-0.4,0.3-1,0.3-1.7
		v-5.8h2.8v10.6H34V60.3z"/>
	<path d="M42.2,47.3v2.6h-2.8v-2.6H42.2z M42.2,51.2v10.6h-2.8V51.2H42.2z"/>
	<path d="M45,47.4h2.8v14.4H45V47.4z"/>
	<path d="M60.2,47.4v14.4h-2.7v-1.5c-0.4,0.6-0.8,1.1-1.4,1.4s-1.1,0.4-1.9,0.4c-1.2,0-2.3-0.5-3.1-1.5s-1.3-2.3-1.3-3.9
		c0-1.8,0.4-3.2,1.3-4.3c0.8-1,2-1.6,3.4-1.6c0.6,0,1.2,0.1,1.7,0.4c0.5,0.3,0.9,0.7,1.2,1.2v-5.1H60.2z M52.7,56.6
		c0,1,0.2,1.8,0.6,2.4c0.4,0.6,1,0.9,1.8,0.9c0.8,0,1.4-0.3,1.8-0.9s0.6-1.3,0.6-2.3c0-1.3-0.3-2.2-1-2.8c-0.4-0.3-0.9-0.5-1.4-0.5
		c-0.8,0-1.4,0.3-1.8,0.9S52.7,55.6,52.7,56.6z"/>
	<path d="M65.5,47.3v2.6h-2.8v-2.6H65.5z M65.5,51.2v10.6h-2.8V51.2H65.5z"/>
	<path d="M73.3,53.2c-0.9,0-1.6,0.4-1.9,1.2c-0.2,0.4-0.3,1-0.3,1.6v5.8h-2.8V51.2h2.7v1.6c0.4-0.5,0.7-0.9,1-1.2
		c0.6-0.4,1.3-0.6,2.2-0.6c1.1,0,2,0.3,2.7,0.9s1,1.5,1,2.9v7.2H75v-6.5c0-0.6-0.1-1-0.2-1.3C74.5,53.5,74,53.2,73.3,53.2z"/>
	<path d="M83.5,63.7c0.3,0.3,0.8,0.4,1.5,0.4c1,0,1.7-0.3,2-1c0.2-0.4,0.3-1.2,0.3-2.2v-0.7c-0.3,0.5-0.6,0.8-0.9,1
		c-0.6,0.4-1.3,0.6-2.2,0.6c-1.4,0-2.5-0.5-3.3-1.4s-1.2-2.3-1.2-3.9c0-1.6,0.4-2.9,1.2-4c0.8-1.1,1.9-1.6,3.3-1.6
		c0.5,0,1,0.1,1.4,0.2c0.7,0.3,1.2,0.8,1.6,1.5v-1.5h2.7v10.1c0,1.4-0.2,2.4-0.7,3.1c-0.8,1.2-2.3,1.8-4.6,1.8
		c-1.4,0-2.5-0.3-3.3-0.8S80.2,64,80.1,63h3C83.2,63.3,83.3,63.5,83.5,63.7z M83,58.2c0.4,0.9,1.1,1.3,2,1.3c0.7,0,1.2-0.2,1.7-0.7
		s0.7-1.3,0.7-2.3c0-1-0.2-1.8-0.6-2.3s-1-0.8-1.7-0.8c-1,0-1.7,0.5-2,1.4c-0.2,0.5-0.3,1.1-0.3,1.8C82.7,57.1,82.8,57.7,83,58.2z"
		/>
	<path d="M30.4,78.9h3v2.9h-3V78.9z"/>
	<path d="M45.2,75h-2.9c-0.1-0.4-0.2-0.8-0.4-1.1c-0.3-0.4-0.8-0.6-1.5-0.6c-0.9,0-1.6,0.5-1.9,1.4c-0.2,0.5-0.3,1.2-0.3,2
		c0,0.8,0.1,1.4,0.3,1.9c0.3,0.9,1,1.3,1.9,1.3c0.7,0,1.1-0.2,1.4-0.5s0.4-0.8,0.5-1.4h2.8c-0.1,0.8-0.4,1.6-0.9,2.4
		c-0.9,1.2-2.2,1.8-3.9,1.8s-3-0.5-3.8-1.5s-1.2-2.3-1.2-4c0-1.8,0.4-3.3,1.3-4.3s2.1-1.5,3.7-1.5c1.3,0,2.4,0.3,3.3,0.9
		S45.1,73.5,45.2,75z"/>
	<path d="M56,72.5c0.9,1.1,1.3,2.5,1.3,4c0,1.6-0.4,2.9-1.3,4s-2.3,1.7-4.1,1.7c-1.8,0-3.2-0.6-4.1-1.7s-1.3-2.4-1.3-4
		c0-1.5,0.4-2.9,1.3-4s2.3-1.7,4.1-1.7C53.8,70.8,55.1,71.4,56,72.5z M51.9,73.2c-0.8,0-1.4,0.3-1.9,0.9s-0.7,1.4-0.7,2.5
		s0.2,1.9,0.7,2.5s1.1,0.9,1.9,0.9s1.4-0.3,1.9-0.9c0.4-0.6,0.7-1.4,0.7-2.5s-0.2-1.9-0.7-2.5C53.4,73.5,52.7,73.2,51.9,73.2z"/>
	<path d="M65.3,74.1c-0.2-0.5-0.7-0.8-1.4-0.8c-0.8,0-1.3,0.3-1.6,0.8c-0.2,0.3-0.2,0.7-0.2,1.3v6.4h-2.8V71.2H62v1.6
		c0.3-0.6,0.7-0.9,1-1.2c0.5-0.4,1.2-0.6,2.1-0.6c0.8,0,1.5,0.2,2,0.5c0.4,0.3,0.7,0.8,0.9,1.3c0.4-0.6,0.8-1.1,1.4-1.4
		c0.6-0.3,1.2-0.4,1.9-0.4c0.5,0,0.9,0.1,1.4,0.3s0.9,0.5,1.2,1c0.3,0.4,0.5,0.8,0.6,1.4c0.1,0.4,0.1,0.9,0.1,1.6l0,6.7h-2.9V75
		c0-0.4-0.1-0.7-0.2-1c-0.2-0.5-0.7-0.7-1.4-0.7c-0.8,0-1.3,0.3-1.6,1c-0.1,0.3-0.2,0.7-0.2,1.2v6.3h-2.8v-6.3
		C65.5,74.8,65.5,74.4,65.3,74.1z"/>
</g>
</svg>
