<?xml version="1.0" encoding="utf-8"?>
<!-- Generator: Adobe Illustrator 27.7.0, SVG Export Plug-In . SVG Version: 6.00 Build 0)  -->
<svg version="1.1" xmlns="http://www.w3.org/2000/svg" xmlns:xlink="http://www.w3.org/1999/xlink" x="0px" y="0px"
	 viewBox="0 0 1200 600" style="enable-background:new 0 0 1200 600;" xml:space="preserve">
<style type="text/css">
	.st0{fill:#FFFFFF;stroke:#000000;stroke-width:16;}
</style>
<g id="LOGO">
	<polygon id="OCTAGON_00000023981179019810127380000015676585745779695245_" class="st0" points="347,-334.1 854.3,-334.1 
		1234.7,46.3 1234.7,553.7 854.3,934.1 347,934.1 -33.5,553.7 -33.5,46.3 	"/>
	<polygon id="OCTAGON_00000116226882609803609500000012280125361583441583_" class="st0" points="378.8,-254.5 822.4,-254.5 
		1155.1,78.2 1155.1,521.8 822.4,854.5 378.8,854.5 46.1,521.8 46.1,78.2 	"/>
	<polygon id="OCTAGON_00000000217616113993489740000011055543168990945966_" class="st0" points="413.8,-167.1 787.5,-167.1 
		1067.7,113.2 1067.7,486.8 787.5,767.1 413.8,767.1 133.5,486.8 133.5,113.2 	"/>
	<polygon id="OCTAGON_00000173862022194761938270000009873775700233022862_" class="st0" points="442.4,-95.5 758.8,-95.5 
		996.1,141.8 996.1,458.2 758.8,695.5 442.4,695.5 205.1,458.2 205.1,141.8 	"/>
	<polygon id="OCTAGON_00000021101274698448869710000011494194459364722585_" class="st0" points="462.1,-46.4 739.2,-46.4 
		947,161.4 947,438.6 739.2,646.4 462.1,646.4 254.2,438.6 254.2,161.4 	"/>
	<polygon id="OCTAGON_00000143584420102417150940000012360937371998238643_" class="st0" points="477.4,-7.9 723.8,-7.9 
		908.6,176.8 908.6,423.2 723.8,607.9 477.4,607.9 292.7,423.2 292.7,176.8 	"/>
	<polygon id="OCTAGON" class="st0" points="489.4,22 711.8,22 878.6,188.8 878.6,411.2 711.8,578 489.4,578 322.6,411.2 
		322.6,188.8 	"/>
	<g id="TEXT">
		<path d="M449.9,227.1v11.7l-7.2,0.6c-7.2,0-12.2-1.1-15-3.9c-1.7-1.7-2.8-4.4-2.8-8.3v-36.7h-8.3v-11.1h8.3v-16.7h15.6v16.7h9.5
			v11.1h-9.5v31.1c0,2.2,0.6,3.9,1.1,4.4c0.6,0.6,2.2,1.1,5.6,1.1c0.6,0,1.1,0,1.7,0S449.4,227.1,449.9,227.1z"/>
		<path d="M513.3,203.7v34.5h-15.6v-36.1c0-3.3-0.6-5.6-1.7-7.8c-1.7-2.8-3.9-3.9-7.8-3.9s-7.2,1.1-9.5,3.9s-3.3,6.7-3.3,11.7v32.2
			h-15.6v-79.5h15.6v28.4c2.2-3.3,5-5.6,7.8-7.2s6.1-2.2,9.5-2.2c3.9,0,7.2,0.6,10,1.7s5.6,3.3,7.2,5.6s2.8,4.4,2.8,6.7
			S513.3,198.2,513.3,203.7z"/>
		<path d="M578.4,221c-0.6,3.3-2.2,7.2-5.6,10.6c-5,5.6-12.2,8.9-21.1,8.9c-7.8,0-13.9-2.2-20-7.2c-6.1-5-8.9-12.8-8.9-23.9
			c0-10,2.8-18.3,7.8-23.4c5-5,11.7-8.3,20-8.3c5,0,9.5,1.1,13.3,2.8c3.9,1.7,7.2,5,10,8.9c2.2,3.3,3.9,7.8,4.4,12.2
			c0.6,2.8,0.6,6.7,0.6,11.7h-40.6c0,6.1,2.2,10,5.6,12.2c2.2,1.7,4.4,2.2,7.8,2.2s5.6-1.1,7.8-2.8c1.1-1.1,2.2-2.2,2.8-3.9H578.4z
			 M563.4,202.6c0-3.9-1.7-7.2-3.9-9.5c-2.2-2.2-5-3.3-8.3-3.3s-6.1,1.1-8.3,3.3c-2.2,2.2-3.3,5.6-3.9,8.9h24.5V202.6z"/>
		<path d="M592.3,185.4c3.9-5,11.1-7.8,21.1-7.8c6.7,0,12.2,1.1,17.2,3.9c5,2.8,7.8,7.2,7.8,14.5v27.2c0,1.7,0,3.9,0,6.7
			c0,2.2,0.6,3.3,1.1,3.9c0.6,0.6,1.1,1.1,2.2,1.7v2.2h-16.7c-0.6-1.1-0.6-2.2-1.1-3.3c0-1.1-0.6-2.2-0.6-3.3
			c-2.2,2.2-4.4,4.4-7.2,6.1c-3.3,1.7-7.2,2.8-11.1,2.8c-5.6,0-10-1.7-13.3-4.4s-6.1-7.2-6.1-12.8c0-7.2,2.8-12.8,8.3-15.6
			c3.3-1.7,7.8-2.8,13.3-3.9l5-0.6c2.8-0.6,5-0.6,6.1-1.1c2.2-1.1,3.3-2.2,3.3-4.4c0-2.2-1.1-3.9-2.8-5c-1.7-1.1-3.9-1.1-7.2-1.1
			c-3.9,0-6.1,1.1-7.8,2.8c-1.1,1.1-1.7,3.3-2.2,5.6h-15C587.8,193.2,589.5,188.7,592.3,185.4z M603.4,227.1
			c1.7,1.1,3.3,1.7,5.6,1.7c3.3,0,6.7-1.1,9.5-2.8c2.8-2.2,4.4-5.6,4.4-10.6v-5.6c-1.1,0.6-2.2,1.1-2.8,1.7
			c-1.1,0.6-2.2,0.6-3.9,1.1l-3.3,0.6c-3.3,0.6-5.6,1.1-7.2,2.2c-2.2,1.7-3.3,3.3-3.3,6.7C601.2,223.8,602.3,226,603.4,227.1z"/>
		<path d="M679,227.1v11.7h-7.2c-7.2,0-12.2-1.1-15-3.9c-2.2-1.1-2.8-3.9-2.8-7.8v-36.7h-8.3v-11.1h8.3v-16.7h15.6v16.7h9.5v11.1
			h-9.5v31.1c0,2.2,0.6,3.9,1.1,4.4c0.6,0.6,2.2,1.1,5.6,1.1c0.6,0,1.1,0,1.7,0S678.5,227.1,679,227.1z"/>
		<path d="M718.5,193.2c-6.1,0-10.6,2.2-12.8,6.1c-1.1,2.2-1.7,5.6-1.7,10.6v28.4h-15.6v-58.9h15v10c2.2-3.9,4.4-6.7,6.1-8.3
			c2.8-2.2,6.7-3.9,11.1-3.9c0.6,0,0.6,0,0.6,0s0.6,0,1.1,0v16.1c-1.1,0-1.7,0-2.8,0S719,193.2,718.5,193.2z"/>
		<path d="M782.4,221c-0.6,3.3-2.2,7.2-5.6,10.6c-5,5.6-12.2,8.9-21.1,8.9c-7.8,0-13.9-2.2-20-7.2c-6.1-5-8.9-12.8-8.9-23.9
			c0-10,2.8-18.3,7.8-23.4c5-5,11.7-8.3,20-8.3c5,0,9.5,1.1,13.3,2.8c3.9,1.7,7.2,5,10,8.9c2.2,3.3,3.9,7.8,4.4,12.2
			c0.6,2.8,0.6,6.7,0.6,11.7h-40c0,6.1,2.2,10,5.6,12.2c2.2,1.7,4.4,2.2,7.8,2.2s5.6-1.1,7.8-2.8c1.1-1.1,2.2-2.2,2.8-3.9H782.4z
			 M767.4,202.6c0-3.9-1.7-7.2-3.9-9.5c-2.2-2.2-5-3.3-8.3-3.3s-6.1,1.1-8.3,3.3s-3.3,5.6-3.9,8.9h24.5V202.6z"/>
		<path d="M424.4,351.1c-5,0-8.9-1.1-11.7-2.8c-1.7-1.1-3.9-3.3-5.6-6.1v7.2h-15v-80.1h15.6v28.4c2.2-2.8,3.9-5,6.7-6.1
			c2.8-1.7,6.1-2.8,10.6-2.8c7.8,0,13.9,2.8,18.3,8.3s6.7,12.8,6.7,21.7c0,9.5-2.2,16.7-6.7,22.8
			C438.8,347.7,432.1,351.1,424.4,351.1z M432.7,320.5c0-4.4-0.6-7.8-1.7-10.6c-2.2-5-6.1-7.8-11.7-7.8s-9.5,2.8-11.7,7.8
			c-1.1,2.8-1.7,6.1-1.7,10.6c0,5,1.1,9.5,3.3,12.8c2.2,3.3,5.6,5,10,5c3.9,0,7.2-1.7,9.5-5C431,330,432.7,326.1,432.7,320.5z"/>
		<path d="M498.3,341.1c0,0-0.6,0.6-1.1,1.7s-1.1,1.7-2.2,2.2c-2.2,2.2-5,3.9-7.2,4.4c-2.2,1.1-4.4,1.1-7.8,1.1
			c-8.9,0-14.5-3.3-17.8-9.5c-1.7-3.3-2.8-8.3-2.8-15.6v-35.6h16.1v35.6c0,3.3,0.6,6.1,1.1,7.8c1.7,2.8,4.4,4.4,8.3,4.4
			c5.6,0,8.9-2.2,11.1-6.7c1.1-2.2,1.7-5.6,1.7-9.5v-32.2h15.6v58.9h-15V341.1z"/>
		<path d="M543.9,268.8v14.5h-15.6v-14.5H543.9z M543.9,290.5v58.9h-15.6v-58.9H543.9z"/>
		<path d="M559.5,269.3H575v80.1h-15.6V269.3z"/>
		<path d="M644,269.3v80.1h-15v-8.3c-2.2,3.3-4.4,6.1-7.8,7.8c-3.3,1.7-6.1,2.2-10.6,2.2c-6.7,0-12.8-2.8-17.2-8.3
			s-7.2-12.8-7.2-21.7c0-10,2.2-17.8,7.2-23.9c4.4-5.6,11.1-8.9,18.9-8.9c3.3,0,6.7,0.6,9.5,2.2c2.8,1.7,5,3.9,6.7,6.7v-28.4H644
			V269.3z M602.3,320.5c0,5.6,1.1,10,3.3,13.3c2.2,3.3,5.6,5,10,5s7.8-1.7,10-5c2.2-3.3,3.3-7.2,3.3-12.8c0-7.2-1.7-12.2-5.6-15.6
			c-2.2-1.7-5-2.8-7.8-2.8c-4.4,0-7.8,1.7-10,5C603.4,311,602.3,314.9,602.3,320.5z"/>
		<path d="M673.5,268.8v14.5h-15.6v-14.5H673.5z M673.5,290.5v58.9h-15.6v-58.9H673.5z"/>
		<path d="M716.8,301.6c-5,0-8.9,2.2-10.6,6.7c-1.1,2.2-1.7,5.6-1.7,8.9v32.2H689v-58.9h15v8.9c2.2-2.8,3.9-5,5.6-6.7
			c3.3-2.2,7.2-3.3,12.2-3.3c6.1,0,11.1,1.7,15,5c3.9,3.3,5.6,8.3,5.6,16.1v40h-16.1v-36.1c0-3.3-0.6-5.6-1.1-7.2
			C723.5,303.3,720.7,301.6,716.8,301.6z"/>
		<path d="M773.5,360c1.7,1.7,4.4,2.2,8.3,2.2c5.6,0,9.5-1.7,11.1-5.6c1.1-2.2,1.7-6.7,1.7-12.2v-3.9c-1.7,2.8-3.3,4.4-5,5.6
			c-3.3,2.2-7.2,3.3-12.2,3.3c-7.8,0-13.9-2.8-18.3-7.8c-4.4-5-6.7-12.8-6.7-21.7c0-8.9,2.2-16.1,6.7-22.2s10.6-8.9,18.3-8.9
			c2.8,0,5.6,0.6,7.8,1.1c3.9,1.7,6.7,4.4,8.9,8.3v-8.3h15v56.2c0,7.8-1.1,13.3-3.9,17.2c-4.4,6.7-12.8,10-25.6,10
			c-7.8,0-13.9-1.7-18.3-4.4c-4.4-2.8-6.1-7.2-6.7-12.8h16.7C771.9,357.8,772.4,358.9,773.5,360z M770.8,329.4
			c2.2,5,6.1,7.2,11.1,7.2c3.9,0,6.7-1.1,9.5-3.9c2.8-2.8,3.9-7.2,3.9-12.8s-1.1-10-3.3-12.8s-5.6-4.4-9.5-4.4
			c-5.6,0-9.5,2.8-11.1,7.8c-1.1,2.8-1.7,6.1-1.7,10C769.1,323.3,769.6,326.6,770.8,329.4z"/>
		<path d="M478.3,444.5H495v16.1h-16.7C478.3,460.6,478.3,444.5,478.3,444.5z"/>
		<path d="M560.6,422.8h-16.1c-0.6-2.2-1.1-4.4-2.2-6.1c-1.7-2.2-4.4-3.3-8.3-3.3c-5,0-8.9,2.8-10.6,7.8c-1.1,2.8-1.7,6.7-1.7,11.1
			c0,4.4,0.6,7.8,1.7,10.6c1.7,5,5.6,7.2,10.6,7.2c3.9,0,6.1-1.1,7.8-2.8c1.7-1.7,2.2-4.4,2.8-7.8H560c-0.6,4.4-2.2,8.9-5,13.3
			c-5,6.7-12.2,10-21.7,10c-9.5,0-16.7-2.8-21.1-8.3c-4.4-5.6-6.7-12.8-6.7-22.2c0-10,2.2-18.3,7.2-23.9c5-5.6,11.7-8.3,20.6-8.3
			c7.2,0,13.3,1.7,18.3,5S560,414.5,560.6,422.8z"/>
		<path d="M620.6,408.9c5,6.1,7.2,13.9,7.2,22.2c0,8.9-2.2,16.1-7.2,22.2c-5,6.1-12.8,9.5-22.8,9.5s-17.8-3.3-22.8-9.5
			c-5-6.1-7.2-13.3-7.2-22.2c0-8.3,2.2-16.1,7.2-22.2s12.8-9.5,22.8-9.5C608.4,399.5,615.6,402.8,620.6,408.9z M597.8,412.8
			c-4.4,0-7.8,1.7-10.6,5c-2.8,3.3-3.9,7.8-3.9,13.9s1.1,10.6,3.9,13.9c2.8,3.3,6.1,5,10.6,5c4.4,0,7.8-1.7,10.6-5
			c2.2-3.3,3.9-7.8,3.9-13.9s-1.1-10.6-3.9-13.9C606.2,414.5,602.3,412.8,597.8,412.8z"/>
		<path d="M672.3,417.8c-1.1-2.8-3.9-4.4-7.8-4.4c-4.4,0-7.2,1.7-8.9,4.4c-1.1,1.7-1.1,3.9-1.1,7.2v35.6H639v-58.9h15v8.9
			c1.7-3.3,3.9-5,5.6-6.7c2.8-2.2,6.7-3.3,11.7-3.3c4.4,0,8.3,1.1,11.1,2.8c2.2,1.7,3.9,4.4,5,7.2c2.2-3.3,4.4-6.1,7.8-7.8
			c3.3-1.7,6.7-2.2,10.6-2.2c2.8,0,5,0.6,7.8,1.7c2.8,1.1,5,2.8,6.7,5.6c1.7,2.2,2.8,4.4,3.3,7.8c0.6,2.2,0.6,5,0.6,8.9v37.3h-16.1
			v-38.9c0-2.2-0.6-3.9-1.1-5.6c-1.1-2.8-3.9-3.9-7.8-3.9c-4.4,0-7.2,1.7-8.9,5.6c-0.6,1.7-1.1,3.9-1.1,6.7v35h-15.6v-35
			C673.5,421.7,673.5,419.5,672.3,417.8z"/>
	</g>
</g>
<g id="guides">
</g>
</svg>
