<?xml version="1.0" encoding="UTF-8"?><svg id="b" xmlns="http://www.w3.org/2000/svg" width="200" height="200" viewBox="0 0 200 200"><defs><style>.d{stroke-width:0px;}</style></defs><g id="c"><path class="d" d="m0,21.21v21.21h42.43V0H0v21.21Zm36.36,0v15.15H6.06V6.06h30.3v15.15Z"/><path class="d" d="m12.12,21.21v9.09h18.18V12.12H12.12v9.09Z"/><path class="d" d="m48.49,3.03v3.03h12.12V0h-12.12v3.03Z"/><path class="d" d="m90.91,3.03v3.03h-6.06v6.06h-18.18v12.12h-6.06v-6.06h-6.06v-6.06h-6.06v18.18h6.06v6.06h-6.06v6.06h6.06v6.06h-6.06v6.06h-6.06v-6.06h-6.06v6.06h-6.06v6.06h-12.12v-6.06h6.06v-6.06H0v60.61h6.06v6.06h6.06v6.06H0v12.12h6.06v-6.06h12.12v-6.06h6.06v6.06h6.06v-6.06h6.06v6.06h6.06v-6.06h6.06v-6.06h-6.06v-6.06h-6.06v-6.06h12.12v6.06h6.06v6.06h18.18v6.06h-6.06v6.06h-6.06v6.06h-12.12v6.06h6.06v6.06h6.06v6.06h-12.12v6.06h6.06v6.06h6.06v6.06h-6.06v6.06h-6.06v24.24h6.06v-6.06h6.06v6.06h6.06v-6.06h6.06v-6.06h-18.18v-6.06h6.06v-6.06h6.06v-6.06h6.06v6.06h6.06v-6.06h-6.06v-12.12h6.06v6.06h6.06v18.18h-6.06v18.18h12.12v-12.12h6.06v12.12h18.18v-6.06h6.06v-6.06h-6.06v-18.18h-6.06v12.12h-12.12v-6.06h-6.06v-6.06h12.12v-6.06h6.06v-6.06h6.06v6.06h6.06v6.06h6.06v6.06h-6.06v6.06h6.06v6.06h6.06v6.06h-6.06v6.06h6.06v-6.06h6.06v6.06h6.06v-6.06h6.06v6.06h36.36v-6.06h-12.12v-6.06h6.06v-12.12h6.06v-18.18h-12.12v-6.06h6.06v-12.12h6.06v6.06h6.06v6.06h6.06v-6.06h-6.06v-6.06h6.06v-12.12h-12.12v-6.06h-6.06v-12.12h6.06v6.06h6.06v6.06h6.06v-6.06h-6.06v-6.06h6.06v-12.12h-12.12v-12.12h6.06v-6.06h-12.12v-6.06h-6.06v-6.06h-6.06v-6.06h-6.06v-6.06h-6.06v-6.06h-6.06v-12.12h-6.06v12.12h-6.06v-18.18h-12.12v6.06h-6.06v-12.12h-12.12v-6.06h6.06V6.06h12.12v6.06h-6.06v6.06h6.06v-6.06h6.06v12.12h6.06v-6.06h6.06v12.12h6.06V0h-12.12v6.06h-12.12V0h-18.18v6.06h-6.06V0h-12.12v3.03Zm12.12,6.06v3.03h6.06v6.06h-6.06v12.12h-6.06v18.18h-6.06v-18.18h-6.06v12.12h-6.06v12.12h18.18v12.12h6.06v-12.12h12.12v-6.06h-6.06v-6.06h-6.06v-6.06h6.06v-6.06h6.06v6.06h6.06v6.06h6.06v-6.06h6.06v12.12h6.06v12.12h-12.12v6.06h24.24v-6.06h-6.06v-12.12h6.06v6.06h6.06v12.12h6.06v18.18h6.06v-6.06h6.06v6.06h6.06v12.12h-6.06v-12.12h-6.06v6.06h-6.06v6.06h6.06v6.06h-6.06v-6.06h-12.12v6.06h6.06v6.06h6.06v18.18h6.06v-18.18h6.06v12.12h6.06v6.06h6.06v6.06h-6.06v6.06h-6.06v6.06h-6.06v-6.06h-6.06v6.06h-30.3v12.12h6.06v12.12h-6.06v-12.12h-6.06v6.06h-6.06v-12.12h-12.12v-6.06h-6.06v12.12h-6.06v6.06h-12.12v-6.06h-6.06v-12.12h-6.06v6.06h-6.06v-12.12h-6.06v-6.06h6.06v-6.06h6.06v6.06h-6.06v6.06h18.18v-6.06h6.06v-6.06h-6.06v-6.06h-6.06v-12.12h6.06v-6.06h-12.12v6.06h-12.12v-6.06h-6.06v-6.06h6.06v-12.12h-12.12v-6.06h12.12v-6.06h-6.06v-6.06h-6.06v6.06h-18.18v6.06h-12.12v6.06h-6.06v6.06h-6.06v-6.06h6.06v-6.06h-6.06v-6.06h6.06v6.06h6.06v-12.12h-6.06v-6.06h-6.06v-6.06h6.06v6.06h6.06v6.06h12.12v-6.06h6.06v-6.06h6.06v6.06h6.06v-6.06h6.06v-6.06h6.06v-6.06h-6.06v-6.06h6.06v-6.06h12.12v-12.12h24.24V6.06h6.06v3.03Zm-60.61,72.73v3.03h-6.06v6.06h12.12v6.06h-12.12v-6.06h-6.06v12.12h-6.06v-6.06h-6.06v-6.06h12.12v-6.06h6.06v-6.06h6.06v3.03Zm-30.3,24.24v3.03h18.18v12.12h-6.06v-6.06h-12.12v-6.06h-6.06v-6.06h6.06v3.03Zm181.82,0v3.03h-6.06v-6.06h6.06v3.03Zm-151.52,12.12v3.03h-6.06v-6.06h6.06v3.03Zm127.28,42.43v9.09h-18.18v-18.18h18.18v9.09Zm12.12,12.12v3.03h-6.06v12.12h-6.06v-6.06h-12.12v12.12h-6.06v-12.12h-6.06v-6.06h30.3v-6.06h6.06v3.03Zm-48.49,6.06v3.03h-6.06v-6.06h6.06v3.03Zm12.12,12.12v3.03h-6.06v-6.06h6.06v3.03Z"/><path class="d" d="m78.79,27.27v3.03h-6.06v12.12h-6.06v-6.06h-6.06v6.06h6.06v6.06h6.06v-6.06h6.06v-12.12h6.06v-6.06h-6.06v3.03Z"/><path class="d" d="m109.09,39.39v3.03h6.06v6.06h6.06v-6.06h-6.06v-6.06h-6.06v3.03Z"/><path class="d" d="m127.28,51.52v3.03h-12.12v6.06h12.12v-6.06h6.06v-6.06h-6.06v3.03Z"/><path class="d" d="m54.55,57.58v3.03h6.06v-6.06h-6.06v3.03Z"/><path class="d" d="m36.36,63.64v3.03h6.06v-6.06h-6.06v3.03Z"/><path class="d" d="m84.85,63.64v3.03h-18.18v12.12h-6.06v6.06h12.12v12.12h-6.06v6.06h6.06v-6.06h12.12v-6.06h6.06v6.06h6.06v6.06h-6.06v12.12h6.06v-12.12h6.06v-12.12h6.06v-18.18h6.06v24.24h-6.06v12.12h-6.06v12.12h-12.12v6.06h6.06v6.06h12.12v12.12h6.06v-12.12h6.06v-6.06h-6.06v-6.06h6.06v-6.06h6.06v-6.06h6.06v12.12h-6.06v12.12h6.06v6.06h30.3v-12.12h-6.06v6.06h-12.12v-12.12h6.06v-18.18h-6.06v-6.06h-6.06v-6.06h-18.18v-24.24h-12.12v6.06h-6.06v6.06h-12.12v6.06h-6.06v-6.06h-6.06v6.06h-6.06v-12.12h18.18v-12.12h-6.06v3.03Zm0,24.24v3.03h-6.06v-6.06h6.06v3.03Zm12.12,0v3.03h-6.06v-6.06h6.06v3.03Zm24.24,18.18v9.09h-6.06v6.06h-6.06v-6.06h6.06v-18.18h6.06v9.09Zm18.18-6.06v3.03h-6.06v-6.06h6.06v3.03Zm6.06,12.12v3.03h-6.06v-6.06h6.06v3.03Zm-6.06,15.15v6.06h-6.06v-12.12h6.06v6.06Z"/><path class="d" d="m133.34,75.76v3.03h-6.06v6.06h6.06v-6.06h12.12v6.06h12.12v-12.12h-24.24v3.03Z"/><path class="d" d="m175.76,130.31v3.03h-6.06v6.06h6.06v-6.06h6.06v-6.06h-6.06v3.03Z"/><path class="d" d="m90.91,142.43v3.03h-6.06v12.12h12.12v-6.06h-6.06v-6.06h6.06v-6.06h-6.06v3.03Z"/><path class="d" d="m121.21,148.49v3.03h6.06v-6.06h-6.06v3.03Z"/><path class="d" d="m157.58,160.61v3.03h6.06v-6.06h-6.06v3.03Z"/><path class="d" d="m157.58,21.21v21.21h42.43V0h-42.43v21.21Zm36.36,0v15.15h-30.3V6.06h30.3v15.15Z"/><path class="d" d="m169.7,21.21v9.09h18.18V12.12h-18.18v9.09Z"/><path class="d" d="m169.7,51.52v3.03h12.12v12.12h6.06v6.06h6.06v-6.06h6.06v-18.18h-6.06v6.06h-6.06v-6.06h-18.18v3.03Z"/><path class="d" d="m24.24,142.43v9.09h18.18v-6.06h-12.12v-12.12h-6.06v9.09Z"/><path class="d" d="m36.36,136.37v3.03h6.06v-6.06h-6.06v3.03Z"/><path class="d" d="m6.06,142.43v3.03H0v6.06h6.06v-6.06h6.06v-6.06h-6.06v3.03Z"/><path class="d" d="m0,178.79v21.21h42.43v-42.43H0v21.21Zm36.36,0v15.15H6.06v-30.3h30.3v15.15Z"/><path class="d" d="m12.12,178.79v9.09h18.18v-18.18H12.12v9.09Z"/><path class="d" d="m193.94,166.67v3.03h6.06v-6.06h-6.06v3.03Z"/><path class="d" d="m193.94,178.79v3.03h6.06v-6.06h-6.06v3.03Z"/><path class="d" d="m193.94,190.91v3.03h6.06v-6.06h-6.06v3.03Z"/></g></svg>