<?xml version="1.0" encoding="UTF-8"?><svg id="Layer_2" xmlns="http://www.w3.org/2000/svg" viewBox="0 0 1200 1105"><defs><style>.cls-1{fill:none;stroke:#000;stroke-linecap:round;stroke-linejoin:round;stroke-width:2px;}.cls-2,.cls-3{stroke-width:0px;}.cls-3{fill:#fff;}</style></defs><g id="Layer_1-2"><path class="cls-3" d="m852,1104.5H0v-140.94h17c0-1.22.37-2.43-.07-3.09-1.22-1.79-1.06-3.71-.88-5.58.25-2.68-1.05-5.54.91-8.05.15-.19-.3-.82-.44-1.26-.32-1.01-.61-2.04-.78-2.6-5.35-1.86-10.56-1.38-15.74-1.41v-113.95c1,0,2.1-.28,2.98.05,2.61.98,5.22,1.8,8.05,1.48,1.43,1.72,2.12-1.16,3.39-.54,2.73,1.32,5.85.94,8.68,1.95,1.23.44.79,1.22.88,1.94.16,1.29-1.01.9-1.59,1.28-.29.19-.28.85-.4,1.3.35,0,.69,0,1.04-.01,2.24-.08,4.33.23,6.16,2.28-1.53.45-3.12,1.43-3.74,1-1.44-.98-2.74-.65-4.19-.6-1.48,3.84-2.84,7.65-1.56,11.87.17-.91.33-1.83.48-2.66,3.08-.73,6.11-1.45,9.32-2.21,1.96,1.17,2.7,2.98,2.56,5.6-.25,4.65.05,9.33-.11,13.98-.13,3.85.35,7.56,1.55,11.31.2-.4.37-.66.48-.95.25-.69.3-1.84.73-2.01,1.03-.4,1.02.57,1.36,1.36.52,1.21,2.17,2.42,3.18,1.45,1.7-1.64,3.07,1.37,4.65-.23,2.17-2.2,3.28.66,4.88,1.3.58.23,1.54.31,1.94-.01,1.49-1.21,3.08-.36,4.16.16,2.85,1.38,5.79,1.02,8.6.68.95-.12,2.3.27,3.33-.74,1.11-1.08,2.07-2.05,2.22-3.71.06-.7.65-1.42,1.16-1.98.25-.28.99-.43,1.29-.26.3.17.57,1.13.46,1.2-1.82,1.29-.64,2.5.04,3.71.79,1.42,1.56,2.78,3.47,3.03,1.05.14,2.12.53,3.06,1.03,2.33,1.24,4.45,3.2,6.91,3.78,2.84.66,5.96.15,8.96.16.47,0,.93.1,1.31.14.88,1.68,1.07,3.55,3.17,4.31,1.76.64,1.72-1.49,2.94-1.47,3.44.06,5.81-2.18,8.31-4.03.94-.7,1.41-2.58,2.27-2.7,2.31-.33,1.76-2.34,2.56-3.49.47-.68.52-1.65.75-2.5-4.26-1.66-4.76-4.05-2.66-8.37.86-1.77,2.24-3.28,3.42-4.95.62.66,1.32,1.07,1.48,1.63.34,1.2-.49,2.65.8,3.68,1.23.98-1.34,1.88.01,3.23.68.68.24,2.52.24,3.83,0,11.99,0,23.98.02,35.97,0,3.34.34,3.65,3.66,3.69,2.67.04,5.55-.65,7.95.16,3.91,1.32,7.77.53,11.63.82.57.04,1.68-.37,1.67-.51-.18-2.51,2.07-.87,3.17-2.08v-6.86c.99,1.53,1.64,2.53,2.67,4.13.37-3.68.75-6.59-2.73-8.19,1.12-1.15,3.16-2.56,1.7-4-1.87-1.84-1.64-3.76-1.75-5.85-.03-.59-.22-1.39-.63-1.7-1.23-.91-.9-2.49-1.51-3.36-1.1-1.57-1.17-3.48-2.49-5.09-1.31-1.59-3.29-2.9-3.96-4.76-.69-1.91-1.59-3.75-2.17-5.58-.72-2.25-1.81-3.94-3.21-5.7-1.34-1.69-1.51-4.47-4.52-4.43.04-.35.17-.73.1-1.05-.11-.49-.26-1.06-.6-1.4-.86-.86-.88-.07-.99.57-.05.29-.2.72-.41.8-1.37.56-3.91-.19-4.4-1.22-.64-1.35-.31-3.87,1.11-4.3,2.77-.86,1.35-2.66,1.96-4.77-2.34,2.62-4.81,4.21-5.08,7.75-.51-.82-1.02-1.65-1.66-2.69-1.18,2.31-2.95,2.81-4.8,2.29-2.35-.67-4.66-1.14-7.1-1.03-.15,0-.35-1.17-.57-1.92,1.46,0,2.46-.04,3.45,0,1.17.05,2.13-.12,3.15-.92.61-.47,2.64-.35,2.79,0,.73,1.81,2.42-.9,2.95.78.71-.96,1.42-1.91,2.12-2.87.15-.2.23-.46.4-.8-.7-.41-1.36-1.1-2.06-1.15-3.54-.21-7.04-.15-10.61-.9-4.56-.96-9.36-.82-14.05-1.15-.5-.03-1.17.21-1.47-.04-2.36-1.93-5.08-.79-7.61-.91-2.74-.12-5.22-1.61-8.09-1.12-1.94.33-4,.19-5.98.03-1.88-.16-3.75-.54-5.58-.99-1.68-.42-3.25-1.05-5.09-1.04-3.2.02-6.53.75-9.58-.93-5.24.43-10.3-1.55-15.59-1.07-3.44.32-3.41.01-4.21-3.62-.28-1.27-.66-3.01-2.66-1.35-.18.15-1.04-.15-1.22-.46-.17-.3-.02-1.07.26-1.28.47-.35.66-1.73,1.78-.69.15.14.92-.31,1.37-.54,1.76-.92-1.62-2.57.48-3.47-.77-.51-1.52-1.41-2.32-1.46-3.87-.24-7.7-.24-11.6-.91-5.59-.96-11.36-.83-17.05-1.16,0-274.88,0-549.75,0-824.63h1200v1055.52c-3.07,0-5.94,1.74-9.09,1-2.17,1.67-4.88.33-7.03,1.15-1.59.61-3.07.68-4.64.88-1.71.22-3.38.77-5.09.95-4.65.48-9.31.84-13.94,1.24-.42,1.75-.82,3.42-1.22,5.09-2.43.48-3.11,3.7-5.86,3.72-.35,0-1.01.45-.98.56.11.47,1.27.74.31,1.41-.62.43-1.39.65-2.08,1.01-.69.35-1.77.61-1.96,1.16-.73,2.18-2.9,2.79-4.37,4.02-1.43,1.21-3.42,2.35-5.3,2.71-4.67.9-9.31,2.27-14.15,2.1-.67-.02-1.68-.28-1.94.04-1.55,1.91-3.89.16-5.49,1.3-1.82,1.31-4.19-.2-5.64.81-1.95,1.36-3.83.47-5.69.83-.47.09-1.03-.06-1.45.13-2.61,1.2-5.46,1.39-8.23,1.85-2.84.47-5.72.69-8.58,1.04-.52.06-1.03.2-1.17.23,0,.85.04,1.31-.04,1.75-.01.06-.67.11-.95,0-2.9-1.27-5.64-.81-8.71-.15-4.31.92-8.78,1.23-13.15,2.11-3.43.7-6.96.88-10.66,1.31.42.5.7.83.98,1.15-.36.2-.74.61-1.06.56-1.71-.26-3.51-1.17-5.06-.83-2.01.43-3.79.16-5.71-.08-1.8-.23-3.66.01-5.49-.12-.27-.02-.48-.94-.83-1.68,4.02-.44,7.78-.44,11.3-1.35,4.04-1.04,8.07-1.55,12.17-2.07,2.7-.35,5.61-.14,8.04-1.02,1.97-.71,3.79-.52,5.66-.81,2.03-.31,4.06-.67,6.09-.99,4.54-.72,9.12-1.22,13.58-2.28,1.02-.24,2.07-.74,3.17-.7,3.74.13,7.29-1.77,11.09-1.02,2.07-1.76,4.87-.21,6.9-1.4,1.5-.88,3.03-.02,4.23-.67,1.36-.74,2.68-.84,4.12-.95,3.98-.31,7.95-.76,12.07-1.17q-1.09-1.71,1.65-3.47c-.58-.22-1.15-.44-1.96-.74,1.38-.55,2.47-.85,3.81-1.02,1.48-.19,1.94-2.96,3.85-3.6.14-.05.28-.21.35-.35.25-.56-1.75-.92-.16-1.6.96-.41,5.82-3.21,6.27-3.78,1.71-2.21,3.77-3.62,6.75-3.24.74.09,1.51-.11,2.28-.17-.16-.82-1.37-.89-.51-1.86,6.45.85,12.66-1.45,19.04-2.16,6.13-.69,12.42-1.32,18.76-3.37-1.27-.42-2.79-1.27-3.07-.97-1.52,1.64-2.28-.65-3.41-.43-.29.06-.78.33-.77.46.16,1.46-.69,1.66-1.82,1.53-1.25-.14-2.42-.27-3.69-.71-2.16-.75-4.75-2.4-6.89-1.14-1.82,1.07-3.45.76-5.17.82-3.33.12-6.68-.18-9.99.1-2.98.26-5.07-1.49-7.45-2.61-.54-.26-.92-1.3-1.01-2.02-.29-2.43,1.5-4.24,4.49-4.4,2.66-.14,5.34.1,8-.07,2.54-.16,5.05-.75,7.59-.92,2.26-.15,4.2-.35,5.31-2.84.57-1.28,2-2.18,2.98-3.19,2.13,0,4.16-.19,6.12.06,1.47.19,2.46-.57,3.57-1.11.42-.2.61-.9.9-1.37-.4-.19-.8-.54-1.21-.56-7.69-.36-15.39-.68-23.08-1.03-4.2-.19-8.23.73-12.15,2.06-1.86.63-3.66.98-5.6.97-1.83-.01-3.76.71-4.5,2.18-1.23,2.42-3.07,2.9-5.34,2.77-2.61-.16-4.91,1.64-7.6,1.08-.44-.09-1.11.54-1.56.95-1.2,1.11-2.67,1.14-4.09.95-1.72-.23-3.39.3-5.26-.59-1.39-.66-3.59.33-5.42.64-.76.13-1.85.13-2.2.61-1.21,1.66-2.86,1.37-4.47,1.37-2.17.01-4.33-.01-6.5,0-1.94.02-3.96-.42-5.33,1.71-.43.67-1.56,1.11-2.43,1.24-3.01.45-6.04.83-9.08,1.01-2.82.16-5.66.06-8.5.02-1.35-.02-2.42.15-3.53,1.23-1.34,1.3-3.17,2-5.23,1.8-1.49-.14-3,.01-4.5-.04-2.92-.1-5.72,0-8.2,1.98-1.91,1.52-4.32.98-6.56,1.03-1.39-2.31-2.99-.28-4.12.13-2.01.73-3.72,2.25-5.59,3.4-1.64,1.01-3.35,1.62-5.39,1.52-3.02-.15-6.18-.65-8.8,1.64-.31.27-.9.3-1.36.29-5.29-.11-9.57,2.72-13.85,5.15-2.06,1.17-3.92,1.94-6.25,1.88-2.31-.06-4.99-.65-6.86.28-3.71,1.84-7.48,1.87-11.3,1.64-3.55-.21-6.38,1.59-9.3,2.94-1.19.55-2.2,1.17-3.54,1.13-1.5-.04-3.01.09-4.5-.03-2.75-.22-5.03.62-6.93,2.63-.53.56-1.23,1.23-1.92,1.33-3.01.45-6.05.73-9.08,1.05-1.89.2-3.76-.31-5.67.87-.96.59-2.78-.17-4.2-.39-4.15-.65-8.32-1.53-11.84,1.85-.32.31-.79.59-1.22.65-3.02.38-6.05.91-9.08.94-1.9.02-3.57.6-4.79,1.69-1.25,1.11-2.45,1.34-3.96,1.42-3.95.23-8.2-1.18-11.69,1.94-.19.17-.65.05-.98.02-1.73-.16-3.63.57-5.09-1-1.69,1.32-3.67.95-5.59,1-.17,0-.39.07-.49,0-2.91-2.23-5.45-.11-8.7.44,1.2.74,1.87,1.16,2.54,1.57,2.74,1.7,2.79,3.53.04,4.98-2.35,1.24-4.77,1.66-7.32.39-.76-.38-1.75-.29-3.18-.49,1.06,1.26,1.68,2,2.48,2.96-3.13.44-6.02-.49-8.47,1.17-1.92,1.31-3.8,1.41-5.83.33-.39-.21-1.17-.44-1.3-.28-.99,1.21-2.95,1.83-2.52,3.94Zm164-124.94h-6.82c-.41,4.68-.76,9.01-1.22,13.34-.08.73-.75,1.38-.86,2.11-.07.47.31,1.09.66,1.5.1.11,1.07-.19,1.19-.48.45-1.15.71-2.37,1.05-3.56,0,0,3-10.23,3-10.23.37-.22.76-.65,1.11-.62.32.03.76.5.86.86.4,1.51.21,3.48,1.12,4.48,2.55,2.81,3.38,6.51,6.01,10.13-.18-2.57.43-5.14-.58-6.24-2.65-2.89-2.6-6.1-2.54-9.5.01-.72.39-1.77-.98-1.79.11-.61.02-1.42.38-1.81,1.69-1.84,1.57-4.04,1.66-6.3.12-2.94-2.06-5.23-2.11-8.11,0-.27-.92-.7-1.44-.74-1.59-.12-2.31.92-2.48,2.32-.26,2.19-.13,4.33-.83,6.59-.89,2.88.1,5.98,2.81,8.04Zm-514,1c.67-.52,1.52-.93,1.95-1.61.47-.75.48-1.78.82-2.64.51-1.29.02-1.92-.68-3.59-.95-2.3-1.77-.72-2.9-.19v-4.14c1.31.31,2.43.58,3.56.85.33-.8.69-1.68,1.11-2.69-3.99,0-7.64,0-11.29.01-.12,0-.25.19-.5.39.26.32.5.66.79.95,1.75,1.84,1.69,1.83,1.18,5.35-.14.94-.63,2.29,1.43,2.42.84.05,1.81,1.31,1.56,2.73-.08.47-.16,1.43.93.72.25-.16.69-.05,1.04-.07v1.49c-2.08.17-.14,2.44-1.58,2.96-.31-.63-.61-1.27-.97-2.01-.65,1.4-1.16,2.68-1.83,3.89-.6,1.09-1.36,2.08-2.46,3.72-.14-2.44-.24-4.02-.33-5.59-.83,1.28-.7,2.56-.87,3.79-.18,1.37-.75,2.7-.92,4.07-.08.68.48,2.07.56,2.06,1.66-.29,1.04,1.47,1.71,1.82.79.41,1.79.39,3.1.62-1.07.5-1.74.81-2.44,1.13,1.46,1.23,2.39,3.45,4.91,2.18-.15-.25-.36-.46-.41-.71-.12-.56-.15-1.13-.22-1.7.57.06,1.35-.08,1.66.23.72.74,1.22,1.69,2.07,2.94,1.01-1.19,1.89-2.23,2.8-3.3.21,1.09.38,2,.73,3.88.64-2.73.89-4.32-.73-5.79-.78-.71-1.61-1.77-1.68-2.73-.09-1.35-2.4-2.76-.1-4.14-.12-2.59.68-5.44-2-7.34Zm-107.98-68.14c-.05-3.03-2.42-3.62-4.9-4.16.3-.51.95-1.17.81-1.47-.65-1.45-1.07-2.7-.01-4.24.42-.61-.21-.58-1-.47-4.64.63-4.84.6-5.81,3.99-.17.59.43,1.4.75,2.31-1.07.13-2.39.1-3.54.51-.55.19-1.97.91-.52,2.08.4.32.44,1.1.68,1.79.54-.21,1.07-.28,1.38-.57.7-.65,1.51-1.02,2.02-.11.45.79.01,1.32-1.09,1.58-2.51.57-3.63,2.7-3.18,4.89.33,1.59-.95,1.27-1.35,2.4-.2-1.32-.34-2.24-.47-3.08-2.83-1.57-2.71,2.46-4.81,2.14.62,1.22,2.56,1.5,1.82,3.29-.45,1.08-.89,2.17-1.33,3.24-1.14-.56-1.37-2.51-3.21-1.72-2.09.89-.28,2.04-.29,3.06,0,.14-.08.35-.18.41-1.63.9.45,1.49.19,2.25-.33.93-.7,1.85-1.47,3.86q2.29-2.52,2.99-6.99c1.16.55,2.29,1.04,3.36,1.62.16.09.21.65.1.91-.2.49-.55.92-.86,1.4.76.26,1.34.45,1.7.57-.27.83-.7,1.55-.68,2.25.02.52.19,2.57-.12,3.2-.52,1.05-.96,2.14-1.4,3.12-2.09-1.2-3.33-3.19-5.39-4.17-.33-2.87-4.58-1.65-4.54-5.21-.85,1.63-1.22,2.65.05,3.49l3.46,4.69c1.11,2.15,2.22,4.31,3.34,6.49,2.5-1.22,4.71-2.29,6.89-3.36.27.49.5.74.57,1.03.81,3.48,1.26,3.38,4.43,2.44,1.57-.47,1.16-2.23,2.48-2.27,1.45-.05,2.88.02,4.09-1.02,1.08-.93,3.11-.73,3.27-2.75,2.41-.3,2.07-3.73,4.14-3.96.82,1.04,1.49,1.9,2.16,2.76.49.63,1.25,1.2,1.4,1.91.48,2.16.82,4.36,1.02,6.57.16,1.82-.42,3.82.15,5.45.67,1.9-.41,3.46-.17,5.21.24,1.8.05,3.65.05,5.49,0,.83.26,1.78-.04,2.48-2.03,4.6-.45,9.41-.96,14.09-.07.67,1.18.7.54,1.9-.64,1.21-1.62,2.57-.67,4.5.71,1.43.14,3.5.14,5.28,1.05-1.02,2.2-2.75,1.89-3.08-1.92-1.99.59-1.63,1.23-2.56-.58-.48-1.34-.9-1.77-1.54-.25-.37.03-1.1.07-1.67,1.87.19,1.59-1.13,1.59-2.25,0-6.66-.13-13.32.04-19.97.17-6.69.63-13.37.96-20.06.02-.5-.05-1,.01-1.5.21-1.72,1.96-2.87,3.54-2.19,1.13.49,2.07,1.49,3.23,1.83.95.28,2.45.55,2.27-1.48-.04-.45.44-1.31.81-1.38,1.23-.25,1.08.74,1.17,1.56.24,2.21.27,2.2,3.24,4.18-.35-1.17-.52-2.1-.9-2.92-.53-1.14-.64-2.06.3-3.09,1.09-1.19,1.7-.6,2.84.06,1.73,1,1.11-1.43,1.61-1.67,2.97.42,3.67,2.82,3.36,4.6-.25,1.42-.22,2.85-.44,4.26-.04.25.23.56.35.81.88.13,1.73.26,2.84.43-.54.54-.77.77-1.01,1.01.27.23.63.72.79.66,1-.39,1.96-.9,2.69-1.25-.35-1.22-.68-2.38-1.05-3.67-.37.31-.69.58-1.02.85-.2-.34-.59-.69-.57-1.02.03-.63.63-1.46.4-1.84-.96-1.56-.53-2,1.16-2.06,1.46-.05,2.34-.89,2.41-2.44.05-1.29.26-2.59-1.68-2.76-.56-.05-1.07-.65-2.12-1.34,1.32-.25,1.78-.42,2.22-.41.9.02,1.8-.04,1.54-1.23-.24-1.13-1.08-1.09-1.81-.42-.68.64-1.31,1-2.07.2-.67-.71-1.27-.78-2.08-.12-.84.69-1.78,1.29-2.76,1.76-.83.39-1.88.36-2.64.84-.68.43-1.17,1.9-1.6,1.85-2.75-.35-4.92.98-7.87,2.64-.47-.75-1.07-1.55-1.49-2.44-.33-.69-.7-2.09-.6-2.14,1.76-.79-.26-3.43,2.41-4.16,1.72-.48-.56-3.81,1.46-5.22.01,0-.11-.22-.18-.34-.3-.08-.6-.15-.9-.23-1.63-.46-1.47,1.24-2.21,1.76-2.01,1.42-1.12-1.85-2.46-1.75-.3.02-.73.05-.88.25-1.04,1.3-2.46.57-3.7.74-1.38.19-2.23-.72-2.5-1.81-.19-.75-.78-3.04,1.54-1.31.13-.45.48-1,.34-1.32-.39-.87-.99-1.65-2.29-3.69.66,2.91.14,3.59-1.47,2.84-1-.46-2.05-.82-3.2-1.27,1.89-.52,3.52-1.03,5.18-1.42,1.27-.3.87-1.29.79-1.97-.16-1.24-.95-2.07-2.29-1.99-.24.01-.67.74-.62,1.07.09.54.52,1.02.9,1.71h-4.92Zm-239.65,66.92c-.48,2.48-.65,4.89-1.49,7.03-.42,1.06.05,3.09-2.11,3.26-.29.02-.5.95-.75,1.45,2.19.86-1.68,3.03.83,3.83-.31.22-.69.68-.91.61-1.13-.37-2.57-1.41-1.82-2.32,1.23-1.49.13-1.9-.58-2.56-.4-.38-1.5-.64-1.47-.77.6-2.68-1.69-2.09-2.96-2.6.37-.68.73-1.33,1.16-2.11-1.51-1.02-3.39-.54-4.43-2.57-1.13-2.19-.04-3.43.63-4.97.73.64,1.44,1.33,2.22,1.92.18.14.78.05.89-.12.24-.38.38-.88.37-1.32,0-.25-.45-.46-.64-.72-1.75-2.36-1.91-3.13-.1-5.42,1.1-1.4.69-2.7.62-4.38-2.87.02-5.81.33-8.22-1.78-.49-.42-1.61-.05-2.37-.25-.47-.13-.94-.6-1.22-1.04-1.64-2.51-1.21-5.19-.56-7.88.14-.57.55-1.43.33-1.66-2.29-2.36,1.57-.73,1.15-1.81-1.22-.81-2.43-1.61-4.05-2.69v6.94c-1.14.21-2.39.1-2.63.54-1.25,2.26-3.73,3.21-5.3,5.26.65.23,1.23.44,2.1.74-.92,1.24-2.57,2.05-2.11,3.98.25,1.05.35,2.32-.87,3.12-.16.11.03.66-.09.94-.99,2.32,1.71,4.47.3,6.79-.07.12-.15.24-.22.35.27.14.53.34.82.43,2.21.68,1.13,4.31,4,4.52.11,0,.11,1.84.11,2.83.05,7.2-.47,14.44,1.04,21.56.6,2.83,1.08,5.44,4.33,7.28,3.38,1.91,7.37,3.5,9.61,7.85.14,1.28.13,3.1-.91,4.93-.67,1.17-.84,2.67-1.03,4.05-.14.99-.46,2.04-1.17,2.62-.31.26-.53.63-.99,1.2h6.98c.31-2.47,2.42-4.58,2.12-7.39-.28-2.59-2.25-4.28-3.91-5.89.84-.67,1.56-.99,1.91-1.55,1.87-3,1.66-6.64.75-9.47-.97-3.03-.28-5.67-.7-8.54,1.42,0,2.44.15,3.4-.03,1.98-.38,3.2.79,4.09,2.13.75,1.12,1.05,2.55,1.47,3.87.14.46-.14,1.08.07,1.46.17.31.81.35,1.21.57.25.14.42.41.87.86-3.47.51-7.15-1.19-9.16,3.24,1.62,1.59,3.04,3.95,5.06,4.67,1.83.66,2.76,1.63,3.7,2.51-.47,1.13-.8,1.82-1.05,2.55-.27.78-1.86.82-1.22,2.32,2.67-.83,4.1-2.94,4.44-5.19.6-3.93,1.85-7.52,3.59-11.04.53-1.08.35-2.51.53-3.78.22-1.61-1.39-.93-1.98-1.58-1.11-1.21-2.29-2.19-2.08-4.18.27-2.54-.54-5.3,2.02-7.21.08-.06-.26-.85-.56-1.16-.15-.16-.79-.13-.92.04-.27.35-.22,1-.52,1.25-.41.33-1.04.4-1.57.59-.03-.57-.28-1.26-.04-1.68.38-.7,1.6-1.26,1.56-1.82-.25-4.15,1.17-8.5-1.54-12.61Zm-29.17-24.96c.27.01.53.03.8.04v-2.85c0-4-.03-7.99.01-11.99.02-2.17.14-2.23,2.99-2.79,0,4.01-.03,7.97.06,11.94,0,.29.9.56,1.39.84,0-.34.09-.7.01-1.02-.46-1.99.85-3.7,2.1-2.72,1.73,1.36,4.58-.35,5.58,2.35.03.09.59.15.66.05,1.42-2.07,2.48,1.04,3.96.15,0-2.23,2.63-4.4.26-6.91-.17-.18-.1-.67,0-.97.47-1.63.98-3.26,1.74-5.71.19,2.46.32,4.13.45,5.8.8-.96.72-1.91.83-2.83.08-.73.21-1.91.64-2.08,1.57-.63.98,1.28,1.65,1.68,1.96,1.17,1.69,3.02,1.68,4.82,0,1.5-.04,3,.01,4.5.06,1.58,1.14,3.21,3.05,4.65v-10.65h4.38c2.06-2.5,1.37-4.64-.44-6.72,1.74-1.15,2.65-2.44,1.02-4.3-.17-.19.04-.66-.03-.98-.35-1.43-1.74-3.25-2.43-4.09-1.07-1.28-3.76-.87-3.53-3.76,1.29-.13,2.64-.28,3.99-.42-1.28-.95-2.61-1.36-3.92-1.81-.87-.3-2.33-.49-2.48-1.02-.69-2.44-2.53-2.04-4.19-1.95-5.9.32-11.66-1.75-17.58-1.05-.58.07-1.2-.33-1.81-.41-1.59-.22-3.18-.47-4.77-.53-1.32-.05-2.15.8-2.25,2.07-.12,1.66-.6,3.63.09,4.93,1.35,2.55.81,5.11.84,7.64.11,7.82.04,15.65.04,23.48v3.33c2.14-1.06,3.9-1.47,4.73-3.78.19,1.25.33,2.17.47,3.09Zm-76.7-18.9c-.54-.9-1.23-1.64-1.45-2.5-.24-.93,0-1.98-.07-2.98-.05-.76-.23-1.5-.36-2.25-.13.03-.27.06-.4.09v9.56c4.72.86,9.6-1.18,14.2,1.9-3.66,3.95-1.95,8.72-2.54,12.91-3.8,2.48-8.05.67-12.69,1.83,1.26.31,1.99.3,2.1.55.81,1.92,2.3,1.97,4.12,2.04,6.85.26,13.71-.73,20.57.82,3.13.71,6.55.12,10.02.12,0-12.41.02-24.52-.01-36.62,0-2.76-.65-3.53-3.49-3.31-8.23.64-16.33-1.36-24.53-1.05-.49.02-1.15.19-1.46-.05-2.38-1.86-4.94-.59-7.83-.99.4,1.74.87,2.95.9,4.17.03,1.22-.38,2.46-.72,4.39,1.87-1.6,2.9-3.43,4.99-2.17.77,4.47,1.53,8.93,2.33,13.55h-3.67Zm147.31,48.28c-1.08-.38-1.94-1-2.58-.82-1.01.28-1.96.99-2.77,1.7-2.28,2.01-1.9,4.36.87,5.92,1.21.68,2.43,1.35,3.66,2,1.53.81,3.06,1.57,1.09,3.51-.14.14.4,1.4.66,1.41,1.17.05,1.04.77,1.32,1.58.73,2.02.89,4.26,2.71,5.91.79.72,1.1,2.25,1.18,3.44.39,5.65-.3,11.24-2.03,16.61-.66,2.04-.98,4.01-.93,6.1.1,4.05-1.56,7.93-1.14,12.02.03.3-.52.65-.79.97.67.67,1.26,1.26,1.89,1.89-.64.69-1.29,1.38-1.97,2.11,2.64,2.8,5.88.8,8.62,1.5.25-.51.4-.67.37-.78-.31-1.2-1.02-2.43-.89-3.57.15-1.31,1.31-1.74,2.58-.9.1-.45.44-1.09.25-1.32-.72-.9-1.62-1.67-2.42-2.51-.17-.18-.23-.45-.08-.14.77-1.09,1.41-1.99,2.04-2.89,1.11,1.17,2.25,1.84,2.44-.09.13-1.35.78-2.07,1.59-2.86,1.39-1.37,2.19-2.99,2.56-4.94.28-1.48.89-2.99,1.71-4.26,1.72-2.67,3.7-5.22,3.2-8.65-.17-1.17,1.73-1.35.82-3.01-1.87-3.37-2.85-7.14-3.84-10.88-.31-1.15-1.94-2.23-1.79-3.15.22-1.34,1.04-2.62.83-4.1-.04-.29-.22-.57-.26-.67-.99-.33-2.6-.62-2.6-.91,0-1.46-.66-1.94-1.76-2.83-1.28-1.03-2.28-3.28-2.14-4.89.1-1.13.36-1.78-.55-2.56-.33-.28-.61-.78-.65-1.21-.14-1.78.47-3.59-1.95-4.74-.91-.43-.9-2.78-1.32-4.28-1.59.69.36,2.97-1.85,3.11-1.32.08-.67,2.33-2.53,2.21-1.09-.07-2.24.85-3.56,1.4v3.57Zm992.16-5.73c-.24-.24-.65-.45-.68-.71-.15-1.29-.21-2.59-.29-3.88-.16-2.34-1.72-3.59-3.98-2.81-1.44.49-2.69,1.56-3.97,2.44-.16.11-.18.79-.03.93,1.75,1.52.21,1.79-.91,2.3-.09-1.61-.19-3.19-.29-4.92h-2.83c0-1.15.08-2.14-.01-3.11-.75-8.23,1.28-16.35,1.03-24.56-.03-1.05.17-2.11.25-2.95,1.9.31,3.43.73,4.98.78,3.16.11,6.39-.33,9.47.18,1.71.28,2.89.17,4.56-.9-1.15-.5-1.98-1.16-2.84-1.19-2.99-.13-6.02.18-8.98-.17-1.07-.13-1.52,2.02-2.87.4-.5-.6-2.18-.23-3.32-.27-1.17-.03-2.34.06-3.49-.05-.29-.03-.72-.64-.71-.98,0-.33.46-.91.76-.93,2.04-.19,4.13.23,6.13-.97h-8.8c-.14-1.59-.25-2.84-.36-4.07-.95,0-1.76.25-2.25-.04-4.5-2.66-9.2-4.77-14.7-5.31.52-.52.76-.76.99-.99-.46-.2-1.3-.64-1.33-.58-1.28,2.1-3.53,1.93-4.71,2.04,1.02,1.12,2.23,2.44,3.44,3.77,1-.81,2.18-1.42,3.44-.06,1.18-1.4,2.66-.73,4.33-.65,0,2.01.06,3.97-.01,5.93-.1,2.7-1.51,3.41-4.19,2.19-.98-.45-1.94-1.01-2.97-1.25-.65-.15-1.51-.38-1.91.87-.31.98-.62.88-1.5-1.29-.71,2.79-2.15,5.01.51,7.31.81.7,1.44,2.05,1.11,3.52-.24,1.07-.05,2.23-.05,3.8.73-.61,1.12-1.16,1.37-1.1,2.12.45,1.2,2.66,2.03,3.84h12.59c1.82-1.61,3.38-.4,4.98.47-.42,5.49,2.23,10.86.79,15.99-1.8-.16-3.51-.16-5.15-.5-1.91-.4-1.25,1.53-2.13,2.05-.57-.59-1.37-1.79-1.7-1.67-2.22.77-4.35-1.22-6.78.03,0,1.48-.13,3.13.04,4.74.15,1.42-.66,2.63-1.55,2.76-1.46.2-1.57.83-1.49,1.91.07.97.12,1.94.22,2.91.01.11.23.2.6.49.9-.65,1.87-1.35,2.85-2.06.34,1.08.86,1.76,2.02,2.22.65.26.3,2.42,2.46,1.15v-5.27c2.07-1.32,3.54,2.23,5.62-.14,1.16-1.32,3.14,1.05,5.14.07,1.24-.61,3.74,1.07,4.77.38,1.85-1.23,3.8.2,5.62-1.11,1.09-.78,3.29.54,4.67-.96Zm-567.77-2.46c-.07.61.09,1.4-.23,1.8-1.72,2.13-1.45,4.8-2.21,7.11-.79,2.41.15,3.4,1.22,4.85.13.17-.09.6-.18,1.04h-4.96c.48-1.33.87-2.39,1.37-3.79-1.58.24-3.14-.97-3.25,1.47-.08,1.79-1.38,3.07-2.35,4.52-.93,1.38-2.25,2.82-.71,4.97.91,1.28.96,3.3,1.07,5,.25,3.9-.89,7.6-3.23,10.59-1.46,1.86-1.83,3.94-2.72,5.9-.38.84-1.02,1.76-.92,2.57.12,1.01.88,1.94,1.37,2.92.52-.93,1.15-1.81,1.52-2.79.88-2.32,3.48-7.36,4.85-8.45,2.91-2.31,4.03-5.57,5.16-8.86.22-.64.33-1.31.57-2.27,3.25,1.86,4.12,5.03,6.2,7.41.62-1.81,1.17-3.42,1.71-5,.54,0,1.04-.04,1.54,0,3.27.3,3.25.28,6.04-1.53.9-.58,1.96-.92,2.86-1.5.76-.49,1.94-1.13,1.99-1.78.21-2.33,2.42-.39,2.83-1.22-.97-3.23-1.87-6.15-2.72-9.09-.34-1.16-1-2.42-.79-3.5,1.04-5.48,1.06-6.07-.07-10.78-.25-1.04-.05-2.24.13-3.33.39-2.25-.56-3.55-3.07-3.97.64,1.07,1.28,2.16,1.93,3.24-1.24-.13-2.04-.67-2.47-1.42-.53-.92-.75-2.01-1.18-3.28-2.42.48-4.87.96-7.52,1.48.08,1.15-.19,3.06.27,3.25,3.48,1.47,1.71,3.54.71,5.34-.88,1.59-.99,3.28-.98,5.08-3.03-1.17-3.02-3.7-3.78-5.98Zm-133.02,29.67c.27-1.49.79-2.99.76-4.48-.04-1.94-2.44-2.96-3.89-1.72-1.44,1.24-2.72,2.67-4.15,4.1.88.32,1.46.53,2.6.94-1.42,1.04-2.57,1.89-3.83,2.81,1.8.93,3.11,2.02,4.56,2.25,1.49.25,3.12-.33,4.82-.56-.07.43-.66,3.84-.66,3.84,1.84.97-.06,2.06.02,3.13.39,5.08.43,10.18.59,15.27-2.1,3.18-.62,6.72-.93,10.08-.09.99.47,2.12.97,3.05.48.89,1.74.86,1.86.03.19-1.37,1.46-1.78,1.82-2.77.29-.79-.34-1.88-.11-2.73.65-2.44,1.8-4.76,1.42-7.41-.06-.43.1-.95.31-1.36,1.08-2.16,1.19-4.31-.07-6.41-.94-1.57.75-2.68,1.22-2.64,2.49.18,5.13-2.08,7.12-.04-1.29,4.72-.08,9.35-.82,13.91-.61-.09-1.07-.12-1.5-.24-.37-.11-.71-.32-1.06-.48-.03.45-.24,1.05-.04,1.31.23.29,1.05.15,1.25.44.29.44.4,1.58.36,1.59-2.83.78-1.82,2.57-1.36,5.05q.71-3.09,3.58-4.59c0,.77-.1,1.43.04,2.02.08.35.79.89.82.86.74-.61,1.41-1.31,2.13-1.95.22-.19.56-.24.85-.35-.3-.22-.6-.44-.9-.66-.65-.46-1.3-.92-1.98-1.41.4-.42.68-.97,1.07-1.06.54-.12,1.32.36,1.72.12.55-.32.74-1.45,1.26-1.58,1.21-.31,1.29-1.07.76-1.73-.71-.88-.83-1.36-.24-2.49.91-1.76.44-4.16,2.48-5.46-1.17-1.89.46-3.79-.04-5.65-.08-.31-.77-.42-1.01-.75-1.47-1.94-3.26-3.83-2.89-6.5.34-2.42.44-3.57-1.09-4.4-1.38-.75-1.15-1.27-.41-2.12.45-.52.97-.99,1.46-1.48-2.58,1.02-5.81-.29-7.59,2.46-.18.28-1.49-.17-2.27-.28.43-2.62-4.2-2.1-3.19-5.11.02-.05-.42-.25-.64-.38-.63,1.44-1.46-.3-2.11.13-.41.27-.72.69-1.07,1.04.96.76-.1,1.73.24,2.44.18.38,1.06.43,1.66.64-1.06,1.34-2.18,2.16-3.86,1.27Zm625.82-9.82c0-6.47.13-12.63-.04-18.78-.16-6.03-.73-12.05-.93-18.08-.16-4.95-.03-9.9-.03-15.05-1.9.1-3.44.18-5.08.27.77,1.93,4.32,1.54,2.75,4.8-2.96,0-6.09-.06-9.21.02-1.81.05-2.92,1.65-2.43,3.39.2.73.93,1.39.93,2.09.08,6.11.04,12.23.04,18.52h-6c0,6.3,0,12.42.02,18.54,0,.44.13,1.03.43,1.29.44.4.55,1.32,1.81.57,1.21-.72,3.06-.36,4.58-.48.14,1.2.23,1.99.33,2.9h12.83Zm23.84-12.86c-1.18,0-2.01-.02-2.84,0-1.85.06-1.85.07-1.79,2.7,2.92.41,5.82.81,8.8,1.23,0-2.21.09-4.04-.03-5.86-.1-1.52.47-2.5,1.83-3.07.93-.39,1.88-.74,3.44-1.34-.79,3.15,1.2,6.22-2.19,8.15-.28.16.08,1.44.2,2.84.62-1.31.93-1.97,1.27-2.7.84,1.79.87,1.81,2.57,1.55-.5-2.2.34-4.42-.66-6.72-.88-2.03-.88-4.44-1.31-6.93.74.51,1.15.79,1.77,1.21.1-2.3-.02-4.04-.7-5.97-.52-1.48-1.68-2.39-2.07-3.63-.48-1.51,0-3.3-.18-4.94-.07-.55-.94-1.01-1.44-1.52-.23,1.22.51,2.04.42,2.74-.12.84-.97,1.56-1.48,2.35-.49.75,1.15,1.96-.48,2.45-.85.26-1.76.36-3.27.65.94-3-1.26-6.5,3.33-7.58,0-.95.17-1.97-.04-2.9-.4-1.78,1.23-1.49,1.95-2.12-.91-.76-.93-1.47.12-2.11,1-.62,1.01-1.57.98-2.59-.04-1.61-.01-3.22-.01-4.63-5.89-.49-11.29-2.12-17-.91,0,1.29-.02,2.6,0,3.91.04,1.85-.36,3.78.77,5.48-2.59,2.39,2.05,2.89,1.28,4.82-.02.06.2.27.34.33.08.04.23-.08.54-.2.05-1.14.1-2.39.18-4.19,1.13.72,2.01.97,2.33,1.54.67,1.19,1.53,2.6,1.41,3.83-.11,1.12-.75,2.09.05,3.24.06.09-1.03,1.29-1.73,1.53-.48.16-1.23-.44-2.39-.93v7.5h-3.08c.92,3.68,1.62,7.15,1.31,10.71-.06.7.19,1.43.3,2.13,3.56-.42,2.31-3.24,2.82-4.94q4.78,0,4.7,4.9Zm-482.13,9.6c.52.91,1.08,1.53,1.25,2.24.24.99-.48,2.9,1.69,1.3.45,1.31,1.22,2.6,1.27,3.93.06,1.58-1.61.49-2.24.97-.7.54-1.28,1.37-1.65,2.2-1.16,2.58-2.05,5.24-2.04,8.13,0,1.46.34,3.25-.35,4.31-1.2,1.82-.16,3.44-.74,5.13,2.36-.05,3.68-.35,3.78-1.04.12-.91-.08-1.88-.22-2.81-.07-.45-.54-.97-.41-1.29,1.04-2.63,2.02-5.27,1.96-8.16,2.6-3.4,3.16-7.42,3.14-11.5q3.33,0,7.12,1.76c1.54.72,5.32.16,5.26-.91-.14-2.45,3.28-2.89,2.62-5.43-.08-.33.86-.92,1.34-1.39.69.64,1.38,1.29,2.52,2.36,0-1.25.25-2.14-.05-2.78-.78-1.68-2.45-3.22-2.53-4.87-.09-1.84-.24-3.73-.51-5.53-.28-1.94-1.21-3.8-1.96-5.65-.12-.3-.78-.45-1.22-.51-.21-.03-.47.32-.71.5,1.74,1.45-.81,2.24-.56,3.29h-3.13c-.34-1.1-.59-1.99-.89-2.87-.84-2.44-.53-3.16,1.78-3.95.51-.18,1.05-.3,1.57-.46-1.96-.55-3.78-.64-5.58-.52-1.56.1-2.32,1.18-1.68,2.91.54,1.45-.72,1.35-1.12,1.98-1.95-2.03-2.1.22-2.35,1.16-.34,1.27.56,3.07-1.81,3.2-.1,0-.32.61-.23.85.5,1.36,1.08,2.7,1.74,4.33,1.2-1.02,2.01-1.81,2.93-2.42.23-.15,1.04.15,1.21.46.17.3.02,1.08-.26,1.28-.84.6-1.81,1.02-2.82,1.55.72.72,1.29,1.12,1.64,1.67,1.05,1.67.52,2.3-1.31,3.48-1.08.7-1.31-.64-1.8-.29-.8.58-1.38,1.44-2.16,2.06-.59.47-1.34.74-2.5,1.35Zm-132.72-101.31c-.61-2.12-2.29-3.69-.98-5.46-.28-.15-.64-.49-.84-.41-3.21,1.2-6.98.3-9.92,2.6-.21.16-.65.02-.98.02-2.58-.02-4.91.06-7.26,1.87-2.24,1.73-2.59,1.73-.85,3.86,1.48,1.81,3.29,1.28,5,1.22,2.25-.08,3.8.51,4.14,2.96.56.03,1.05.07,1.53.08,4.08.05,5.4-.19,8.09-1.38.56-.25,1.16-.57,1.74-.59,4.21-.13,8.3-1.61,12.57-1.06.56.07,1.71-.34,1.7-.46-.16-2.09,1.37-1.38,2.37-1.5,1.59-.2,3.18-.37,4.76-.56.24-.03.47-.12.71-.18.46,3.01,2.59,1.28,3.98,1.83.25-1.32.41-2.22.58-3.09,1.55,0,2.88.03,4.21,0,1.1-.03,2.19-.14,3.29-.22-1.15-.77-2.31-.91-3.42-.75-4.06.6-8.61-1.75-12.17,1.96-.08.08-.32.02-.49,0-4.39-.39-9.44,1.69-12.6-3.35-.09-.14-.22-.32-.35-.34-1.15-.23-2.5-1.28-2.88,1.06-.11.72-1.26,1.27-1.93,1.89Zm-230.79,76.29c-2.56-1.49-4.83-2.82-7.17-4.19-.03-1.47-.41-3.16,1.35-4.27,1.31-.83-.48-1.19-.35-1.81.17-.82-.69-2.12.97-2.29.89-.09,2.27.4,1.92-1.27-.08-.37-1.28-.57-1.99-.71-.59-.12-1.22-.02-1.79-.02-.39-3.89.21-7.44-1.14-10.9v2.83c0,3.99-.02,7.99.02,11.98,0,1.03.05,2.2-1.03,2.54-2.29.72-2.31,3.02-3.47,4.5-1.02,1.31-.84,2.46.38,3.4,1.07.83,1.64,2.14,1.03,3-1.97,2.8-.35,5.67-1.05,8.47,1.25.14,2.03.22,3.12.34,0,1.47-.17,2.95.06,4.38.14.85.74,1.9,1.45,2.3.5.29,1.53-.36,2.34-.59.13,1.3.25,2.5.4,3.98.78-.78,1.6-1.21,1.66-1.73.24-1.88.54-3.74.88-5.6.39-2.13.55-4.08,2.18-5.65.17-.16.1-.66,0-.97-.3-1.04-.92-2.06-.91-3.08,0-.94.66-1.89,1.08-2.96-.99.1-2.04.32-2.08.19-.53-1.55.87-1.33,2.12-1.85Zm22.6-7.58c-3,1.3-2.59,4.98-4.77,6.85-.11.09.03.74.22.85,1.63.97-.09,1.8-.35,2.22-.58.96-2.26,1.43-2.51,2.36-.31,1.17.68,2.64.53,3.92-.19,1.65-.76,3.34-1.52,4.82-.96,1.87-.35,2.94,1.47,4.02,1.07-1.64,2.57-3.1,3.01-4.83.52-2.06,2.27-1.44,3.33-2.06.57-.34,1.91.94,1.82,2.34,0,.1.42.23.72.39.27-1.65.81-3.25.73-4.82-.1-1.9,2.25-2.2,2.17-4.11,1.08,2.08,1.98,4.09,2.28,6.18.32,2.23.07,4.54.07,6.89,1.19-.57,2.46-.76,2.72-1.38.4-.95.55-2.5.03-3.24-1.54-2.19-.76-4.54-.56-6.67.1-1.11.33-1.67-.47-2.58-.78-.9-1.23-2.13-1.71-3.26-.72-1.69-1.26-3.47-2.05-5.13-.48-1.01-1.18-1.82-2.61-1.81-.85.01-1.71-.61-2.56-.94Zm-148.06,59.93c.42-1.82.79-3.64,1.31-5.43.08-.27.85-.54,1.23-.46.3.06.77.76.68,1-.58,1.59-1.34,3.11-1.91,4.69-.11.31.31.81.48,1.22.34-.31.68-.62,1.56-1.43.99.99,1.97,1.97,2.78,2.79.35-1.26,1.06-2.5,3.16-2.37,2.28.14,4.57.03,7.07.03-.44-1.56-1.01-2.72-1.04-3.89-.04-1.81,1.89-1.84,2.94-2.66-1.01-1.79,2.32-.69,1.59-2.41-.26-.61.07-1.48-.19-2.09-.66-1.52-1.41-.16-2.17,0-.37.08-.94-.21-1.25-.5-1.42-1.34-2.56-3.12-5-2.51-.21.05-.64-.8-.99-1.22-.48-.58-.98-1.15-1.48-1.73-.49.49-.84.84-1.19,1.19-.11.11-.2.23-.3.35q2.42,1.19.48,3.47-1.23-2.44-3.67-.36c1.81.67,3.51,1.29,5.66,2.08-1.01.79-2.22,1.26-2.41,2-.5,1.92-1.18,1.69-2.28.59-.91-.91-1.76-2.28-3.11-.5-.23-.44-.43-.91-.72-1.31-.13-.18-.44-.22-.76-.36-.15.98-.29,1.9-.51,3.28-.53-1.11-.84-1.77-1.12-2.36-.73,1.02-1.54,1.98-2.14,3.05-.26.46-.11,1.14-.15,1.73l1.34.94c.24-.98.49-1.96.72-2.9,1.98,2.08-2.36,4.63,1.39,6.07Zm190.64-82c-.68,2.06-1.43,3.37-1.15,3.65,1.33,1.31.52,2.83.78,4.22.22,1.15-2.04,1.89-.42,3.36,1.55,1.41-1.31,2.32-.66,3.92.41,1,.45,2.48-.02,3.42-.59,1.19,1.98,1.54.4,2.9-.6.52-.08,2.21-.34,3.29-.35,1.43,1.63,2.78.04,4.17.07,4.72-1.43,9.28-1.1,14.07.18,2.65,1.16,4.17,3.25,5.21,1.38-.88,2.1-1.71.85-2.97,2.01-4.74.42-9.73,1.04-14.55.58-4.47-1.09-8.68-1.05-13.07.04-4.66.07-9.32-.04-13.97-.02-.85-.7-1.69-1.57-3.63Zm179.84,50c-.16.35-.31.7-.47,1.05.85.94,1.53,2.18,2.58,2.75,2.05,1.11-1.1,2.56.43,3.53,1.59,6.99,1.6,7.42.39,13.08-.26,1.22.92,2.92,2.87,3.71-.54-4.36,1.64-8.3.97-12.54-.14-.91-.72-1.84-.6-2.69.11-.76.92-1.42,1.41-2.13.06-.08.08-.29.03-.34-.74-.72-1.52-1.65-.19-2.23.48-.21,1.53.87,2.33,1.36,1.02.63,2.05,1.25,3.64,2.22-1.89.78-3.2,1.33-4.84,2.01,4.67.93,8.53-.2,12.26-2.21-1.57-1.45-3.27-2.77-5.47-2.45-2.34.34-2.74-1.24-3.39-2.87.48-.08.97-.09,1.38-.27.22-.1.33-.5.44-.79.06-.14.07-.37,0-.49-.57-.91-1.28-.87-1.95-.15-2,2.14-4.64,1.28-6.34.35-2.02-1.11-3.7-.44-5.48-.89Zm-264.22-3.97c0-3.11-.02-6.21.01-9.31.01-1.13-.21-2.47.3-3.35,1.82-3.1,1.7-6.43,1.7-9.79,0-1.88-.52-4.06,2.34-4.56.3-.05.6-1.03.62-1.59.07-2.49-.01-4.99.05-7.48.02-.94.05-2,.49-2.77.46-.82.54-2.11.02-1.96-2.14.61-1.01-2.89-3.14-2.2-.91.3-1.58.38-1.37,1.44.16.83.48,1.62.78,2.59-3.99-.78-6.81-3.16-9.33-6.05-.52,1.08-.92,1.89-1.27,2.63,1.64,1.04,3.29,2.22,5.07,3.17,1.55.83,1.22,3.41,3.45,3.5.09,1.46.25,2.91.27,4.37.04,3.49.01,6.98.01,10.47,0,1.33.54,3.16-.12,3.88-1.1,1.19.57,2.58-.75,3.41-.17,4.53-.32,9.06.87,13.59Zm-231.69,23.03c.58,0,1.32.22,1.82-.04,2.32-1.17,4.89.12,7.27-.89.93-.39,2.83-.34,3.24.24,1.55,2.2,3.16.88,4.95.82,1.81-.06,2.13-1.31,3.15-2.01.75-.52,2.4-.1,2.86-1.3.42-1.11.32-2.42.46-3.82-2.2,0-4.02-.13-5.81.04-1.54.14-3.03.78-4.57.92-1.81.17-3.65-.06-5.47.07-1.55.11-3.32-.71-4.61.87-1.67-1.66-2.91.94-4.22.19.32,1.7.6,3.18.93,4.91Zm-12.48,61.14c.38,2.02,1.26,2.95,3.02,2.83,4.5-.32,9-.62,13.49-1.03.88-.08,1.69-.74,2.57-.94,1.83-.42,2.34-1.7,2.05-3.27-.31-1.63-.92-3.21-1.39-4.8-1.16,0-2.61.41-3.04-.08-1.33-1.5-2.2-.67-3.26.13-.75.56-1.7.92-2.3,1.59-2.97,3.29-6.46,5.53-11.14,5.58Zm313.27-101.72c-.41,2.17-.24,4.33-.9,6.58-.9,3.08-2.22,6.45-.86,9.83,1.99.96,1.46-1.09,2.04-1.75.71-.81,1.05-1.98,1.83-2.69.81-.74,3.08-.88,2.37-2.08-1.2-2.04,1.11-1.25,1.07-2.14.25.54.2,1.05.37,1.47.2.5.6.91.91,1.37.36-.41.83-.76,1.05-1.23,1.11-2.36.51-5.39,2.94-7.31.38-.3.05-1.5.05-2.74-2.5,1.01-4.74,2.22-6.87.28-1.51-1.38-2.7-.09-4,.4Zm812.98.83c5.88-.54,11.32-1.04,16.77-1.53.08-1.22.86-2.42-1.36-2.87-1.2-.24-2.43-1.78-.57-3.38.39-.33.06-1.5.06-2.7-2.05.79-4.43-.98-5.48,2.06-.11.33-2.12.14-3.19-.08-.31-.06-.43-1.07-.89-2.36-.82,1.92-1.4,3.26-2.05,4.79h-3.29v6.07Zm-308.31,45.61c.28-.32.57-.63.85-.95-4.08-.38-5.09-2.65-4.63-5.83.34-2.4,2.73-1.68,4.35-2.7-.5-3.47-1.01-6.92-1.54-10.58-.5.45-.86.62-.95.88-.65,1.73-1.27,3.47-1.85,5.22-1.18,3.6-1.77,4.07-5.36,4.1-1.16,0-2.33-.02-3.49,0-3.5.06-7.22-.78-10.03,2.89q-.1,2.98,1.49,5.99c.16-.72,2.07-.84.7-2.16-.26-.25-.15-1.37.16-1.62,3.29-2.6,6.71-4.98,11.26-4.09,1.37.27,2.32.97,2.28,2.59-.05,2.11-.01,4.22-.01,6.26h6.78Zm-234.55-50.84c-.21.81-.18,1.4-.46,1.68-1.43,1.45-2.81,2.7-.86,4.9.5.57.23,2.39-.33,3.2-.99,1.43-.64,2.89-.51,4.24.27,2.77,2.58,3.89,5.46,2.99.81-.25,1.69-.28,2.2-.36-.29-1.97-.89-3.55-.66-4.99.57-3.69.72-3.67-2.04-5.2.56-.78,2.5-.25,1.97-2.08-.09-.31-.04-.66,0-.99.3-2.99.53-3.7-2.53-3.4-.65.06-1.32,0-2.24,0Zm-559.43,105.79h21.4c-.27-1.43-.48-2.65-.72-3.85-.27-1.35-.56-2.69-.84-3.98-1.56,0-2.89.08-4.21-.02-1.89-.15-3.36.78-4.71,1.84-1.16.92-1.98,2.37-3.23,3.05-1.16.62-2.81-.3-4.09,1.04-.47.5-1.93-.04-2.89.15-.3.06-.42.98-.72,1.76Zm-22.48-101.92c1.56-1.03,3.11-1.42,4.78-.28,2.27,1.55,4.19-.93,6.4-.74.21.02.59-1.89.94-3.06h3.76c-.31-1.13-.33-2.58-.85-2.79-1.91-.77-2.87-3.02-5.22-3.04-2.77-.03-5.28,1.21-7.36,3.71-1.44,1.73-3.84,2.93-2.45,6.19Zm766.83,16.95c.28,0,.56-.01.84-.02,0-.62-.25-1.43.05-1.83.95-1.29.84-2.48-.57-2.9-1.16-.34-2.58-1.22-2.09-1.74,1.33-1.42-1.05-1.71-.47-2.92.57-1.19.14-2.36-1.6-2.77-.46-.11-.56-1.72-.83-2.64,2,.24,1.45-1.22,1.52-2.27.07-1.1-.04-2.11.77-3.21.58-.79.11-2.34.11-4.03-1.45.58-2.7.68-3.08,1.31-1.12,1.82-1.99,3.81-2.77,5.81-.96,2.47-.61,5.27-1.82,7.72-.19.39.1,1.47.38,1.56.97.32,1.58-.19,1.4-1.28-.23-1.43.76-2.07,1.76-2.59.2-.1.82.61,1.25.94-.92,1.16-.93,2.11.45,2.99.84.54.53,1.21.08,2.06-.66,1.24-.03,2.67,1.17,2.9,1.06.21,2.19.04,3.45.04v2.83Zm-480.12,31.57c-1.83,1.45-.75,3.4-1.04,5.08.9.1,1.99.56,2.64.21.68-.37,1.35-1.56,1.29-2.33-.23-2.64.73-4.96,1.5-7.25,1.57-.14,3.1-.27,4.63-.4-.1-.73-.03-1.16-.2-1.34-2.04-2.11-5.21-.6-7.49-2.31-.71-.53-2.15-.08-3.68-.08.66.78.95,1.12,1.25,1.46-.88.5-1.75,1.32-2.7,1.45-1.02.14-2.13-.35-3.66-.66,1.77,3.48,4.45,5.01,7.47,6.16Zm350.81,4.23c1.69.35,3.46.18,4.05.93,1.67,2.13,2.67.19,4.46.07-1.67-1.29-2.64-2.24-2.41-4.04.23-1.79.14-3.65.02-5.47-.11-1.72.49-3.53-.55-5.58-2.32,1.97-5.63,1.37-7.12,3.65.96,3.25,1.83,6.19,2.68,9.14.03.1-.14.27-.24.39-.22.24-.47.47-.9.9Zm452.15-102.45c3.28-2.38,7.59.43,10-3.02-.37-2.36-2.6-3.14-3.81-4.42.31-.91.56-1.62.81-2.34.26-.76.51-1.51.8-2.36-1.61,0-2.93-.02-4.25,0-2.9.06-3.48.57-3.53,3.28-.05,2.79-.01,5.58-.01,8.86Zm-695.71-22.93c-.23.57-.53,1.64-.69,1.62-2.39-.3-4.74-3.36-4.31-5.57.09-.46,1.24-.87-.02-1.21-.36-.1-1.13.2-1.22.48-.44,1.31-1.11,2.73-.96,4.02.27,2.46-1.31,3.21-3.25,4.01,1,.24.96,1.39,2.46.95,1.28-.37,4.13-1.02,4.87,2.05.23.94,1.55,1.61,2.36,2.41,1.75-2.32,1.93,1.23,3.21.83-.39-1.1,1.93-1.63.55-3.16-.42-.46.76-1.22,1.95-.88.14.04.32.27.38.23.47-.28.98-.54,1.33-.94.08-.09-.36-.91-.66-.99-.62-.16-1.34.07-1.97-.07-2.04-.46-3.99-1.09-4.03-3.76Zm-212.29,50.98c-.28-.06-.55-.12-.83-.18-.72,1.53-1.54,3.03-2.14,4.6-.64,1.67-1.86,3.3-.1,5.21.56.61-.33,2.5,1.65,2.12,1.08-.21,1.72,1.01,3.27.22,1.74-.89,2.89-2.35,4.5-3.28,1.39-.81.7-3.47-.89-3.88-.78-.2-1.66.01-2.48-.04-2.17-.15-2.7-.66-2.95-2.89-.07-.62-.01-1.25-.01-1.88Zm-38.32,12.57c.23,1.18.42,2.2.67,3.45.61-1.43.87-2.75,1.63-3.62.97-1.12,1.35-2.1.69-3.52-1.31.3-2.61.73-3.94.86-1.37.13-3.06.45-3.09-1.83-.45.03-1.22-.08-1.29.1-1.03,2.49-3.7,3.4-5.62,5.61,2.66,1.58,5.05,2.99,7.49,4.44,1.21-1.92,2.27-3.59,3.48-5.48Zm622.87,42.34c.35-1.98,3-3.55.5-5.64-.17-.14-.19-.76-.03-.93,1.99-2.13.54-4.72.95-7.05.01-.08-.41-.24-.76-.43-.14.99-.28,1.9-.46,3.13-1.4-.28-2.61-.53-3.81-.78-.74-.15-.69-2-2.17-.86-.45.34-1.69-.36-2.98-.68.61,1.03,1.15,1.53,1.17,2.05.04,1.45,1,2.98.87,4.02-.4,3.17,2.49,1.32,3.23,2.54.56.94,1.29,1.79,1.95,2.66.47.62.97,1.23,1.55,1.97Zm-349.2-82.97c-.13.13-.24.24-.36.36.22.11.44.26.67.31.08.02.22-.2.33-.31-.22-.12-.43-.24-.64-.36Z"/><path class="cls-2" d="m852,1104.5c-.44-2.11,1.53-2.73,2.52-3.94.13-.16.91.07,1.3.28,2.02,1.09,3.91.98,5.83-.33,2.45-1.67,5.34-.74,8.47-1.17-.8-.96-1.42-1.69-2.48-2.96,1.43.2,2.42.11,3.18.49,2.56,1.26,4.97.85,7.32-.39,2.74-1.45,2.7-3.29-.04-4.98-.67-.41-1.34-.83-2.54-1.57,3.25-.54,5.79-2.66,8.7-.44.1.08.33.01.49,0,1.91-.05,3.9.32,5.59-1,1.45,1.57,3.36.83,5.09,1,.33.03.8.15.98-.02,3.49-3.12,7.74-1.71,11.69-1.94,1.52-.09,2.71-.32,3.96-1.42,1.22-1.08,2.89-1.66,4.79-1.69,3.03-.04,6.06-.57,9.08-.94.43-.05.9-.34,1.22-.65,3.52-3.38,7.69-2.51,11.84-1.85,1.42.22,3.25.98,4.2.39,1.91-1.18,3.78-.67,5.67-.87,3.03-.32,6.07-.59,9.08-1.05.7-.11,1.39-.77,1.92-1.33,1.9-2.01,4.17-2.85,6.93-2.63,1.49.12,3-.01,4.5.03,1.34.04,2.35-.58,3.54-1.13,2.92-1.35,5.75-3.15,9.3-2.94,3.82.23,7.59.21,11.3-1.64,1.87-.93,4.55-.33,6.86-.28,2.33.06,4.18-.71,6.25-1.88,4.28-2.43,8.56-5.27,13.85-5.15.46,0,1.06-.02,1.36-.29,2.62-2.29,5.79-1.79,8.8-1.64,2.05.1,3.75-.51,5.39-1.52,1.86-1.15,3.58-2.67,5.59-3.4,1.14-.41,2.73-2.44,4.12-.13,2.24-.06,4.65.49,6.56-1.03,2.48-1.97,5.28-2.08,8.2-1.98,1.5.05,3.01-.11,4.5.04,2.06.2,3.89-.51,5.23-1.8,1.11-1.08,2.18-1.25,3.53-1.23,2.83.04,5.67.14,8.5-.02,3.04-.18,6.07-.56,9.08-1.01.87-.13,2-.57,2.43-1.24,1.37-2.13,3.39-1.7,5.33-1.71,2.17-.02,4.33,0,6.5,0,1.62,0,3.26.29,4.47-1.37.35-.48,1.44-.48,2.2-.61,1.83-.3,4.03-1.3,5.42-.64,1.86.89,3.53.36,5.26.59,1.42.19,2.9.17,4.09-.95.45-.42,1.12-1.05,1.56-.95,2.69.56,4.99-1.24,7.6-1.08,2.27.14,4.11-.34,5.34-2.77.75-1.47,2.68-2.2,4.5-2.18,1.94.01,3.74-.34,5.6-.97,3.92-1.32,7.95-2.25,12.15-2.06,7.69.35,15.39.66,23.08,1.03.41.02.81.37,1.21.56-.29.47-.48,1.17-.9,1.37-1.11.54-2.1,1.29-3.57,1.11-1.97-.25-3.99-.06-6.12-.06-.98,1.01-2.41,1.91-2.98,3.19-1.12,2.5-3.05,2.69-5.31,2.84-2.54.17-5.05.77-7.59.92-2.66.17-5.34-.08-8,.07-2.99.16-4.78,1.97-4.49,4.4.09.72.46,1.76,1.01,2.02,2.37,1.12,4.47,2.87,7.45,2.61,3.31-.28,6.66.02,9.99-.1,1.72-.06,3.35.25,5.17-.82,2.14-1.26,4.73.39,6.89,1.14,1.27.44,2.45.57,3.69.71,1.13.13,1.98-.06,1.82-1.53-.01-.13.48-.4.77-.46,1.13-.23,1.89,2.07,3.41.43.28-.3,1.81.54,3.07.97-6.35,2.05-12.64,2.68-18.76,3.37-6.37.72-12.58,3.01-19.04,2.16-.87.97.34,1.04.51,1.86-.77.07-1.54.26-2.28.17-2.97-.37-5.03,1.04-6.75,3.24-.44.57-5.3,3.38-6.27,3.78-1.59.67.4,1.04.16,1.6-.06.14-.21.3-.35.35-1.91.65-2.37,3.42-3.85,3.6-1.34.17-2.43.47-3.81,1.02.81.31,1.38.53,1.96.74q-2.74,1.76-1.65,3.47c-4.12.41-8.09.85-12.07,1.17-1.44.11-2.76.21-4.12.95-1.2.65-2.73-.21-4.23.67-2.03,1.19-4.83-.36-6.9,1.4-3.79-.76-7.34,1.15-11.09,1.02-1.1-.04-2.15.46-3.17.7-4.46,1.06-9.04,1.56-13.58,2.28-2.03.32-4.05.68-6.09.99-1.87.28-3.68.09-5.66.81-2.43.88-5.34.67-8.04,1.02-4.1.53-8.14,1.03-12.17,2.07-3.52.91-7.28.91-11.3,1.35.35.74.56,1.67.83,1.68,1.82.13,3.68-.11,5.49.12,1.92.24,3.7.52,5.71.08,1.55-.33,3.36.57,5.06.83.32.05.71-.36,1.06-.56-.28-.33-.56-.66-.98-1.15,3.7-.43,7.23-.61,10.66-1.31,4.37-.89,8.84-1.19,13.15-2.11,3.08-.66,5.81-1.12,8.71.15.28.12.94.07.95,0,.08-.44.04-.91.04-1.75.14-.03.65-.17,1.17-.23,2.86-.35,5.74-.56,8.58-1.04,2.77-.46,5.61-.64,8.23-1.85.41-.19.97-.04,1.45-.13,1.86-.36,3.74.53,5.69-.83,1.45-1.01,3.81.5,5.64-.81,1.6-1.15,3.94.6,5.49-1.3.27-.33,1.28-.07,1.94-.04,4.84.16,9.48-1.2,14.15-2.1,1.88-.36,3.87-1.5,5.3-2.71,1.46-1.23,3.64-1.84,4.37-4.02.18-.54,1.27-.8,1.96-1.16.68-.35,1.45-.57,2.08-1.01.96-.67-.19-.94-.31-1.41-.03-.11.64-.56.98-.56,2.75-.02,3.43-3.24,5.86-3.72.4-1.67.8-3.33,1.22-5.09,4.63-.4,9.29-.76,13.94-1.24,1.71-.18,3.38-.73,5.09-.95,1.57-.2,3.05-.27,4.64-.88,2.15-.82,4.86.52,7.03-1.15,3.15.74,6.02-1,9.09-1v48.98h-174c.63-.67,1.13-1.64,1.9-1.95,3.34-1.35,7.46-3.99,10.29-6.99-2.77-.18-5.28-.1-7.77-.92-1.85-.61-3.97.6-5.69,1.68-3.43,2.16-6.29,5.22-10.35,6.4-.27.08-.26,1.16-.37,1.78h-162Z"/><path class="cls-2" d="m0,824.63c5.69.33,11.47.2,17.05,1.16,3.9.67,7.73.67,11.6.91.8.05,1.54.95,2.32,1.46-2.1.89,1.28,2.54-.48,3.47-.45.24-1.21.69-1.37.54-1.12-1.05-1.31.33-1.78.69-.28.21-.43.98-.26,1.28.17.3,1.03.61,1.22.46,2-1.66,2.38.08,2.66,1.35.8,3.63.77,3.94,4.21,3.62,5.29-.49,10.34,1.5,15.59,1.07,3.05,1.68,6.38.95,9.58.93,1.84-.01,3.41.63,5.09,1.04,1.83.45,3.7.83,5.58.99,1.99.17,4.04.3,5.98-.03,2.87-.48,5.35,1,8.09,1.12,2.53.11,5.25-1.02,7.61.91.3.24.97,0,1.47.04,4.69.33,9.49.19,14.05,1.15,3.57.75,7.07.69,10.61.9.7.04,1.36.74,2.06,1.15-.17.35-.25.6-.4.8-.7.96-1.41,1.92-2.12,2.87-.53-1.68-2.22,1.03-2.95-.78-.14-.36-2.17-.48-2.79,0-1.03.8-1.99.97-3.15.92-1-.05-2,0-3.45,0,.21.75.42,1.92.57,1.92,2.45-.12,4.76.36,7.1,1.03,1.84.52,3.62.02,4.8-2.29.64,1.04,1.15,1.86,1.66,2.69.28-3.53,2.74-5.13,5.08-7.75-.61,2.11.81,3.91-1.96,4.77-1.42.44-1.75,2.96-1.11,4.3.5,1.04,3.03,1.78,4.4,1.22.22-.09.36-.51.41-.8.11-.64.13-1.43.99-.57.33.34.48.91.6,1.4.08.33-.06.7-.1,1.05,3.02-.03,3.18,2.74,4.52,4.43,1.4,1.76,2.49,3.45,3.21,5.7.58,1.84,1.48,3.68,2.17,5.58.67,1.87,2.65,3.17,3.96,4.76,1.32,1.61,1.39,3.52,2.49,5.09.61.87.29,2.45,1.51,3.36.41.31.6,1.11.63,1.7.11,2.09-.12,4.01,1.75,5.85,1.46,1.43-.58,2.85-1.7,4,3.49,1.6,3.1,4.5,2.73,8.19-1.04-1.6-1.69-2.6-2.67-4.13v6.86c-1.1,1.22-3.35-.42-3.17,2.08,0,.14-1.1.55-1.67.51-3.86-.28-7.72.5-11.63-.82-2.39-.81-5.28-.12-7.95-.16-3.32-.04-3.66-.35-3.66-3.69-.03-11.99,0-23.98-.02-35.97,0-1.31.44-3.15-.24-3.83-1.35-1.35,1.22-2.24-.01-3.23-1.29-1.03-.46-2.48-.8-3.68-.16-.56-.86-.97-1.48-1.63-1.18,1.67-2.56,3.18-3.42,4.95-2.1,4.32-1.6,6.7,2.66,8.37-.24.85-.28,1.82-.75,2.5-.8,1.15-.24,3.16-2.56,3.49-.86.12-1.33,2-2.27,2.7-2.5,1.86-4.87,4.09-8.31,4.03-1.23-.02-1.18,2.11-2.94,1.47-2.1-.76-2.29-2.63-3.17-4.31-.38-.04-.85-.14-1.31-.14-3-.01-6.12.5-8.96-.16-2.46-.57-4.58-2.53-6.91-3.78-.94-.5-2.01-.89-3.06-1.03-1.9-.24-2.68-1.61-3.47-3.03-.67-1.21-1.86-2.43-.04-3.71.1-.07-.16-1.03-.46-1.2-.3-.17-1.04-.02-1.29.26-.51.56-1.1,1.28-1.16,1.98-.14,1.67-1.11,2.63-2.22,3.71-1.03,1.01-2.39.63-3.33.74-2.81.34-5.75.7-8.6-.68-1.07-.52-2.67-1.36-4.16-.16-.4.33-1.37.24-1.94.01-1.6-.63-2.72-3.5-4.88-1.3-1.58,1.6-2.95-1.4-4.65.23-1.01.97-2.65-.24-3.18-1.45-.34-.79-.33-1.75-1.36-1.36-.44.17-.48,1.31-.73,2.01-.1.29-.28.55-.48.95-1.2-3.75-1.68-7.46-1.55-11.31.16-4.66-.15-9.33.11-13.98.14-2.62-.61-4.44-2.56-5.6-3.22.76-6.24,1.48-9.32,2.21-.15.83-.32,1.75-.48,2.66-1.28-4.22.08-8.03,1.56-11.87,1.45-.05,2.75-.38,4.19.6.63.43,2.22-.55,3.74-1-1.83-2.05-3.92-2.36-6.16-2.28-.35.01-.69,0-1.04.01.12-.45.11-1.11.4-1.3.58-.38,1.74,0,1.59-1.28-.09-.72.35-1.5-.88-1.94-2.83-1.01-5.95-.64-8.68-1.95-1.28-.62-1.96,2.26-3.39.54-2.84.32-5.44-.5-8.05-1.48-.88-.33-1.98-.05-2.98-.05,0-1,0-2,0-3Zm57.95,48.78c.24.04.49.09.73.13.61-1.6,1.23-3.21,1.98-5.19.31,1.76.54,3.05.96,5.43,1.45-2.48,2.53-3.95,3.15-5.58.22-.57-.57-1.66-1.12-2.32-.19-.23-1.09.09-1.64.23-.44.11-1.11.59-1.25.46-1.93-1.85-4.42-.41-6.42-1.13-.42-1.22-.89-2.34-1.14-3.49-.08-.35,1.25-.66.21-1.34-1.39-.91-2.77-1.84-4.15-2.76-1.23,1.1,1.95,2.53-.26,3.55.19.4.28,1.01.6,1.17,1.1.55,2.27.94,3.09,1.26.48,2.14.94,3.96,1.29,5.81.17.89-.31,2.33,1.32,1.91,1.29-.33.6-1.63.59-2.51,0-.24-.44-.47-.67-.71.25-.24.47-.6.76-.69.23-.07.78.14.82.31.43,1.81.78,3.63,1.15,5.45Z"/><path class="cls-2" d="m0,941.57c5.17.04,10.38-.45,15.74,1.41.17.56.47,1.58.78,2.6.14.44.59,1.07.44,1.26-1.96,2.51-.66,5.38-.91,8.05-.18,1.87-.34,3.79.88,5.58.45.65.07,1.87.07,3.09H0v-21.99Z"/><path class="cls-3" d="m1014,1104.5c.12-.62.1-1.7.37-1.78,4.06-1.18,6.92-4.24,10.35-6.4,1.72-1.08,3.84-2.29,5.69-1.68,2.49.82,5,.74,7.77.92-2.82,3-6.94,5.64-10.29,6.99-.77.31-1.27,1.28-1.9,1.95h-12Z"/><path class="cls-2" d="m154.38,979.34c2.72,4.11,1.29,8.47,1.54,12.61.03.56-1.18,1.12-1.56,1.82-.23.42.01,1.11.04,1.68.53-.18,1.16-.25,1.57-.59.31-.25.26-.9.52-1.25.13-.17.77-.19.92-.04.29.31.63,1.1.56,1.16-2.56,1.9-1.75,4.67-2.02,7.21-.21,1.99.97,2.96,2.08,4.18.59.65,2.2-.03,1.98,1.58-.17,1.27,0,2.69-.53,3.78-1.74,3.52-2.99,7.11-3.59,11.04-.34,2.24-1.78,4.36-4.44,5.19-.64-1.5.94-1.54,1.22-2.32.25-.72.58-1.42,1.05-2.55-.93-.89-1.87-1.85-3.7-2.51-2.01-.73-3.44-3.08-5.06-4.67,2.01-4.43,5.69-2.73,9.16-3.24-.45-.45-.62-.72-.87-.86-.39-.22-1.03-.26-1.21-.57-.21-.38.07-1.01-.07-1.46-.41-1.32-.72-2.75-1.47-3.87-.9-1.35-2.11-2.51-4.09-2.13-.96.18-1.98.03-3.4.03.42,2.87-.27,5.51.7,8.54.91,2.83,1.12,6.47-.75,9.47-.35.56-1.07.89-1.91,1.55,1.66,1.61,3.63,3.3,3.91,5.89.3,2.8-1.82,4.91-2.12,7.39h-6.98c.46-.57.68-.94.99-1.2.71-.58,1.04-1.62,1.17-2.62.19-1.38.36-2.88,1.03-4.05,1.04-1.82,1.05-3.65.91-4.93-2.24-4.36-6.23-5.94-9.61-7.85-3.25-1.84-3.73-4.45-4.33-7.28-1.51-7.12-.99-14.36-1.04-21.56,0-.98,0-2.82-.11-2.83-2.87-.21-1.79-3.85-4-4.52-.29-.09-.55-.28-.82-.43.07-.12.15-.23.22-.35,1.41-2.33-1.29-4.47-.3-6.79.12-.28-.07-.83.09-.94,1.22-.8,1.12-2.08.87-3.12-.46-1.94,1.19-2.75,2.11-3.98-.87-.31-1.45-.51-2.1-.74,1.57-2.05,4.05-3,5.3-5.26.24-.44,1.48-.33,2.63-.54v-6.94c1.62,1.08,2.83,1.88,4.05,2.69.43,1.08-3.44-.55-1.15,1.81.22.23-.19,1.09-.33,1.66-.65,2.69-1.08,5.37.56,7.88.28.44.75.91,1.22,1.04.77.21,1.89-.17,2.37.25,2.41,2.11,5.34,1.8,8.22,1.78.07,1.69.49,2.98-.62,4.38-1.81,2.3-1.65,3.06.1,5.42.2.26.63.47.64.72.02.44-.13.94-.37,1.32-.11.17-.71.26-.89.12-.78-.59-1.49-1.28-2.22-1.92-.68,1.55-1.76,2.78-.63,4.97,1.04,2.02,2.92,1.55,4.43,2.57-.43.78-.79,1.43-1.16,2.11,1.27.51,3.56-.08,2.96,2.6-.03.13,1.07.39,1.47.77.7.66,1.81,1.07.58,2.56-.74.9.7,1.95,1.82,2.32.21.07.6-.39.91-.61-2.51-.79,1.36-2.96-.83-3.83.25-.51.47-1.43.75-1.45,2.16-.16,1.69-2.19,2.11-3.26.85-2.14,1.01-4.54,1.49-7.03Z"/><path class="cls-2" d="m394.11,912.52c1.52-.11,3.14-.11,4.84-.11-.38-.68-.8-1.17-.9-1.71-.06-.33.37-1.05.62-1.07,1.34-.08,2.13.76,2.29,1.99.09.68.49,1.67-.79,1.97-1.66.39-3.29.9-5.18,1.42,1.15.45,2.2.81,3.2,1.27,1.61.74,2.12.06,1.47-2.84,1.3,2.04,1.9,2.82,2.29,3.69.15.33-.21.87-.34,1.32-2.32-1.73-1.74.55-1.54,1.31.28,1.09,1.12,1.99,2.5,1.81,1.24-.17,2.66.57,3.7-.74.16-.19.58-.22.88-.25,1.34-.1.45,3.17,2.46,1.75.73-.52.58-2.21,2.21-1.76.3.08.6.15.9.23.06.12.19.33.18.34-2.01,1.41.26,4.74-1.46,5.22-2.67.74-.65,3.38-2.41,4.16-.11.05.27,1.45.6,2.14.42.89,1.03,1.69,1.49,2.44,2.96-1.66,5.12-2.99,7.87-2.64.44.05.92-1.42,1.6-1.85.76-.47,1.81-.44,2.64-.84.98-.47,1.92-1.07,2.76-1.76.81-.66,1.41-.59,2.08.12.76.8,1.38.43,2.07-.2.73-.67,1.57-.72,1.81.42.26,1.19-.64,1.24-1.54,1.23-.45,0-.9.16-2.22.41,1.06.69,1.56,1.3,2.12,1.34,1.94.17,1.73,1.47,1.68,2.76-.07,1.55-.95,2.39-2.41,2.44-1.69.05-2.12.49-1.16,2.06.23.38-.36,1.21-.4,1.84-.02.33.37.68.57,1.02.33-.27.65-.54,1.02-.85.37,1.3.7,2.45,1.05,3.67-.73.35-1.69.86-2.69,1.25-.15.06-.52-.43-.79-.66.24-.24.47-.47,1.01-1.01-1.1-.17-1.96-.3-2.84-.43-.11-.25-.39-.55-.35-.81.22-1.41.18-2.84.44-4.26.32-1.78-.38-4.17-3.36-4.6-.5.23.12,2.67-1.61,1.67-1.14-.66-1.75-1.25-2.84-.06-.94,1.03-.84,1.95-.3,3.09.38.82.55,1.74.9,2.92-2.96-1.98-3-1.97-3.24-4.18-.09-.83.07-1.81-1.17-1.56-.36.07-.85.93-.81,1.38.18,2.03-1.31,1.76-2.27,1.48-1.15-.34-2.1-1.34-3.23-1.83-1.58-.68-3.33.47-3.54,2.19-.06.49.01,1-.01,1.5-.33,6.69-.79,13.37-.96,20.06-.17,6.65-.04,13.31-.04,19.97,0,1.13.28,2.45-1.59,2.25-.04.57-.32,1.3-.07,1.67.43.64,1.19,1.06,1.77,1.54-.64.93-3.15.56-1.23,2.56.31.32-.84,2.05-1.89,3.08,0-1.78.57-3.85-.14-5.28-.95-1.93.03-3.29.67-4.5.64-1.21-.61-1.24-.54-1.9.51-4.68-1.07-9.49.96-14.09.31-.7.04-1.65.04-2.48,0-1.83.19-3.69-.05-5.49-.24-1.75.85-3.31.17-5.21-.58-1.63,0-3.63-.15-5.45-.2-2.2-.54-4.41-1.02-6.57-.15-.7-.91-1.28-1.4-1.91-.67-.86-1.34-1.71-2.16-2.76-2.07.23-1.73,3.67-4.14,3.96-.16,2.02-2.19,1.83-3.27,2.75-1.21,1.04-2.63.97-4.09,1.02-1.31.04-.91,1.81-2.48,2.27-3.17.94-3.62,1.04-4.43-2.44-.07-.29-.29-.54-.57-1.03-2.18,1.06-4.39,2.14-6.89,3.36-1.12-2.18-2.23-4.34-3.34-6.49l-3.46-4.69c-1.27-.84-.89-1.86-.05-3.49-.04,3.55,4.21,2.34,4.54,5.21,2.06.98,3.3,2.97,5.39,4.17.43-.98.88-2.07,1.4-3.12.31-.63.15-2.68.12-3.2-.03-.7.4-1.42.68-2.25-.36-.12-.93-.32-1.7-.57.31-.49.66-.91.86-1.4.11-.26.06-.82-.1-.91-1.07-.58-2.2-1.07-3.36-1.62q-.71,4.47-2.99,6.99c.77-2.01,1.15-2.93,1.47-3.86.27-.76-1.82-1.35-.19-2.25.11-.06.18-.27.18-.41,0-1.03-1.8-2.17.29-3.06,1.84-.78,2.07,1.17,3.21,1.72.44-1.07.88-2.16,1.33-3.24.75-1.79-1.19-2.07-1.82-3.29,2.09.33,1.98-3.71,4.81-2.14.13.84.27,1.76.47,3.08.4-1.13,1.68-.8,1.35-2.4-.46-2.19.67-4.31,3.18-4.89,1.11-.25,1.54-.78,1.09-1.58-.51-.91-1.33-.54-2.02.11-.31.29-.84.36-1.38.57-.25-.69-.28-1.47-.68-1.79-1.45-1.17-.03-1.88.52-2.08,1.16-.41,2.47-.38,3.54-.51-.32-.91-.92-1.72-.75-2.31.98-3.39,1.17-3.36,5.81-3.99.79-.11,1.42-.14,1,.47-1.06,1.54-.64,2.79.01,4.24.14.31-.51.96-.81,1.47,2.47.54,4.85,1.13,4.98,4.27-.11.04-.31-.04-.51-.11-.2.49-.32,1.04-.62,1.45-.83,1.15-1.34,2.4-3.38,1.04-1.62-1.09-2.37.69-2.73,2.41,1.47.2,2.77.38,5.15.71-2.07.47-3.01.69-4.17.96.92.83,2.61.37,2.1,1.91-.42,1.28-1.75.83-2.5.55-.85-.32-1.44-1.28-2.25-1.81-.23-.15-.8.22-1.85.55,1.17.76,1.96,1.28,2.8,1.82-.76.68-1.62,1.5-1.66,1.47-2.75-2.59-3.45.77-4.39,1.82-1.39,1.56-2.1,3.73-3.15,5.74.67.33,1.35.63,1.99,1.01.8.48,1.6.99,2.34,1.56.32.25.49.7.72,1.06-1.9,1.09,1,2.68-.45,4.01-.54.5-.32,1.83-.53,3.39.91-.91,1.48-1.21,1.57-1.62.25-1.08-.06-2.47.52-3.25.52-.71,1.94-.72,2.91-1.17.41-.19.95-.7.94-1.06-.05-2.48,2.35-4.77.63-7.26-.86-.16-2.1-.05-2.33-.49-.79-1.49-.12-2.73,1.32-3.55q1.62,3.08,5.31,2.38c.04-2.74,2.53-3.53,4.09-5.25-1.01-.15-1.93-.28-2.89-.42.68-1.35,1.52-2.34.45-3.98-.51-.78.39-2.49.57-3.88Z"/><path class="cls-2" d="m125.2,954.38c-.14-.92-.28-1.84-.47-3.09-.83,2.31-2.59,2.71-4.73,3.78v-3.33c0-7.83.07-15.65-.04-23.48-.03-2.54.51-5.09-.84-7.64-.69-1.3-.21-3.27-.09-4.93.09-1.27.93-2.12,2.25-2.07,1.59.06,3.18.31,4.77.53.61.08,1.23.48,1.81.41,5.93-.7,11.68,1.37,17.58,1.05,1.66-.09,3.49-.49,4.19,1.95.15.53,1.61.72,2.48,1.02,1.31.45,2.63.86,3.92,1.81-1.35.14-2.71.28-3.99.42-.23,2.9,2.46,2.48,3.53,3.76.69.83,2.08,2.66,2.43,4.09.08.31-.13.79.03.98,1.63,1.86.72,3.16-1.02,4.3,1.81,2.09,2.5,4.22.44,6.72h-4.38v10.65c-1.91-1.44-3-3.07-3.05-4.65-.05-1.5-.01-3-.01-4.5,0-1.8.28-3.65-1.68-4.82-.67-.4-.09-2.31-1.65-1.68-.43.17-.55,1.35-.64,2.08-.11.92-.03,1.87-.83,2.83-.13-1.67-.26-3.34-.45-5.8-.75,2.46-1.26,4.08-1.74,5.71-.09.31-.16.8,0,.97,2.36,2.51-.26,4.69-.26,6.91-1.48.9-2.54-2.22-3.96-.15-.07.1-.62.04-.66-.05-1-2.7-3.86-.99-5.58-2.35-1.25-.98-2.56.73-2.1,2.72.07.32,0,.68-.01,1.02-.48-.28-1.38-.55-1.39-.84-.09-3.96-.06-7.93-.06-11.94-2.84.56-2.96.62-2.99,2.79-.04,4-.01,7.99-.01,11.99v2.85c-.27-.01-.53-.03-.8-.04Z"/><path class="cls-2" d="m48.5,935.48h3.67c-.79-4.62-1.56-9.08-2.33-13.55-2.09-1.26-3.13.57-4.99,2.17.34-1.93.75-3.17.72-4.39-.03-1.22-.5-2.43-.9-4.17,2.89.4,5.45-.87,7.83.99.31.24.97.07,1.46.05,8.2-.31,16.3,1.69,24.53,1.05,2.84-.22,3.48.55,3.49,3.31.03,12.11.01,24.21.01,36.62-3.47,0-6.89.59-10.02-.12-6.86-1.55-13.72-.57-20.57-.82-1.82-.07-3.31-.12-4.12-2.04-.11-.25-.84-.24-2.1-.55,4.64-1.16,8.89.65,12.69-1.83.6-4.19-1.12-8.96,2.54-12.91-4.6-3.08-9.47-1.04-14.2-1.9v-9.56c.13-.03.27-.06.4-.09.12.75.31,1.5.36,2.25.06.99-.17,2.04.07,2.98.22.86.9,1.6,1.45,2.5Zm3.51-14c-.26,4.46,1.55,8.14,1.08,12.1-.19,1.64,2.17,2.77,5.05,2.69v-7.7c.11,0,.23,0,.34,0,.57,2.37,1.13,4.74,1.9,7.94,1.26-1.41,2.3-2.08,2.53-2.96.31-1.18.46-2.61-.94-3.55-1.06-.71-2.02-1.59-2.97-2.44-.4-.36-.93-.84-.95-1.29-.07-1.46.18-2.99-1.96-3.1-.25-2.94-2.43-1.08-4.08-1.7Z"/><path class="cls-2" d="m195.81,983.76v-3.57c1.32-.55,2.47-1.47,3.56-1.4,1.86.12,1.22-2.13,2.53-2.21,2.22-.14.26-2.42,1.85-3.11.42,1.51.42,3.85,1.32,4.28,2.42,1.15,1.8,2.96,1.95,4.74.03.42.32.93.65,1.21.91.78.65,1.43.55,2.56-.14,1.61.86,3.86,2.14,4.89,1.11.89,1.76,1.37,1.76,2.83,0,.29,1.61.58,2.6.91.04.1.22.37.26.67.21,1.48-.61,2.76-.83,4.1-.15.92,1.48,2,1.79,3.15.99,3.74,1.97,7.51,3.84,10.88.91,1.65-.99,1.84-.82,3.01.51,3.43-1.48,5.97-3.2,8.65-.82,1.27-1.43,2.78-1.71,4.26-.37,1.96-1.17,3.57-2.56,4.94-.81.79-1.46,1.51-1.59,2.86-.19,1.94-1.32,1.26-2.44.09-.64.9-1.27,1.8-2.04,2.89-.15-.31-.09-.03.08.14.81.84,1.7,1.61,2.42,2.51.18.23-.16.87-.25,1.32-1.27-.84-2.42-.41-2.58.9-.13,1.14.58,2.37.89,3.57.03.11-.12.27-.37.78-2.74-.71-5.98,1.3-8.62-1.5.68-.73,1.33-1.42,1.97-2.11-.63-.63-1.22-1.22-1.89-1.89.27-.32.82-.68.79-.97-.43-4.09,1.24-7.98,1.14-12.02-.05-2.09.27-4.05.93-6.1,1.73-5.37,2.42-10.96,2.03-16.61-.08-1.19-.39-2.72-1.18-3.44-1.81-1.65-1.98-3.89-2.71-5.91-.29-.8-.15-1.53-1.32-1.58-.25-.01-.79-1.28-.66-1.41,1.97-1.95.44-2.71-1.09-3.51-1.23-.65-2.45-1.32-3.66-2-2.77-1.56-3.15-3.91-.87-5.92.81-.71,1.76-1.42,2.77-1.7.64-.18,1.5.45,2.58.82Z"/><path class="cls-2" d="m1187.97,978.03c-1.38,1.51-3.58.18-4.67.96-1.82,1.31-3.78-.12-5.62,1.11-1.04.69-3.53-.99-4.77-.38-2.01.98-3.98-1.39-5.14-.07-2.08,2.37-3.55-1.18-5.62.14v5.27c-2.15,1.27-1.81-.9-2.46-1.15-1.16-.46-1.68-1.13-2.02-2.22-.98.71-1.95,1.41-2.85,2.06-.36-.29-.59-.38-.6-.49-.09-.97-.14-1.94-.22-2.91-.08-1.09.03-1.71,1.49-1.91.89-.12,1.7-1.34,1.55-2.76-.17-1.61-.04-3.26-.04-4.74,2.43-1.25,4.55.74,6.78-.03.33-.12,1.13,1.09,1.7,1.67.88-.52.22-2.45,2.13-2.05,1.64.34,3.35.34,5.15.5,1.44-5.13-1.2-10.5-.79-15.99-1.59-.87-3.15-2.08-4.97-.47h-12.59c-.83-1.17.09-3.38-2.03-3.84-.26-.05-.64.49-1.37,1.1,0-1.57-.19-2.73.05-3.8.33-1.47-.3-2.82-1.11-3.52-2.66-2.29-1.22-4.51-.51-7.31.88,2.17,1.19,2.27,1.5,1.29.4-1.26,1.26-1.03,1.91-.87,1.03.24,1.99.8,2.97,1.25,2.68,1.22,4.08.52,4.19-2.19.07-1.96.01-3.93.01-5.93-1.67-.08-3.15-.75-4.33.65-1.27-1.36-2.44-.75-3.44.06-1.21-1.32-2.41-2.64-3.44-3.77,1.18-.1,3.44.06,4.71-2.04.03-.06.87.38,1.33.58-.24.24-.47.47-.99.99,5.5.53,10.2,2.65,14.7,5.31.49.29,1.3.04,2.25.04.11,1.23.22,2.48.36,4.07h8.8c-2,1.2-4.1.77-6.13.97-.3.03-.76.6-.76.93,0,.34.43.95.71.98,1.15.11,2.33.02,3.49.05,1.14.03,2.82-.33,3.32.27,1.35,1.62,1.79-.53,2.87-.4,2.96.36,5.99.04,8.98.17.86.04,1.7.69,2.84,1.19-1.67,1.07-2.85,1.18-4.56.9-3.08-.51-6.31-.06-9.47-.18-1.54-.06-3.08-.47-4.98-.78-.07.84-.28,1.9-.25,2.95.26,8.21-1.78,16.33-1.03,24.56.09.97.01,1.96.01,3.11h2.83c.1,1.73.19,3.31.29,4.92,1.12-.51,2.66-.79.91-2.3-.16-.14-.13-.82.03-.93,1.29-.88,2.54-1.95,3.97-2.44,2.26-.78,3.82.47,3.98,2.81.09,1.3.14,2.6.29,3.88.03.26.44.47.68.71Z"/><path class="cls-2" d="m620.2,975.56c.76,2.28.74,4.8,3.78,5.98,0-1.8.1-3.49.98-5.08,1-1.8,2.77-3.87-.71-5.34-.46-.19-.2-2.1-.27-3.25,2.65-.52,5.1-1.01,7.52-1.48.44,1.26.66,2.36,1.18,3.28.43.75,1.23,1.29,2.47,1.42-.65-1.09-1.29-2.17-1.93-3.24,2.51.42,3.45,1.72,3.07,3.97-.19,1.09-.39,2.29-.13,3.33,1.13,4.71,1.11,5.3.07,10.78-.2,1.08.46,2.35.79,3.5.85,2.94,1.75,5.86,2.72,9.09-.41.84-2.61-1.11-2.83,1.22-.06.66-1.23,1.29-1.99,1.78-.9.58-1.96.92-2.86,1.5-2.79,1.81-2.77,1.83-6.04,1.53-.5-.05-1,0-1.54,0-.54,1.58-1.09,3.18-1.71,5-2.08-2.39-2.95-5.55-6.2-7.41-.23.96-.35,1.63-.57,2.27-1.14,3.29-2.26,6.56-5.16,8.86-1.38,1.09-3.97,6.14-4.85,8.45-.37.97-1,1.85-1.52,2.79-.49-.98-1.25-1.91-1.37-2.92-.1-.81.54-1.73.92-2.57.9-1.96,1.27-4.04,2.72-5.9,2.34-2.98,3.48-6.69,3.23-10.59-.11-1.71-.15-3.73-1.07-5-1.54-2.15-.21-3.59.71-4.97.97-1.45,2.27-2.73,2.35-4.52.11-2.44,1.67-1.23,3.25-1.47-.51,1.4-.89,2.46-1.37,3.79h4.96c.08-.44.3-.87.18-1.04-1.07-1.45-2.01-2.43-1.22-4.85.75-2.31.49-4.97,2.21-7.11.32-.4.17-1.19.23-1.8Z"/><path class="cls-2" d="m487.18,1005.24c1.68.9,2.8.07,3.86-1.27-.6-.21-1.48-.26-1.66-.64-.33-.71.72-1.68-.24-2.44.35-.35.66-.77,1.07-1.04.65-.43,1.48,1.31,2.11-.13.22.13.65.33.64.38-1.01,3.01,3.62,2.49,3.19,5.11.78.11,2.09.56,2.27.28,1.78-2.75,5.01-1.44,7.59-2.46-.49.49-1.01.95-1.46,1.48-.73.86-.97,1.37.41,2.12,1.53.83,1.43,1.98,1.09,4.4-.37,2.67,1.42,4.56,2.89,6.5.25.32.93.43,1.01.75.5,1.87-1.14,3.77.04,5.65-2.04,1.29-1.57,3.7-2.48,5.46-.59,1.13-.46,1.61.24,2.49.53.66.45,1.42-.76,1.73-.51.13-.71,1.26-1.26,1.58-.4.24-1.17-.24-1.72-.12-.39.09-.67.64-1.07,1.06.68.48,1.33.94,1.98,1.41.3.22.6.44.9.66-.29.11-.63.16-.85.35-.72.63-1.39,1.33-2.13,1.95-.03.02-.74-.51-.82-.86-.14-.59-.04-1.25-.04-2.02q-2.86,1.5-3.58,4.59c-.46-2.47-1.46-4.27,1.36-5.05.04-.01-.06-1.15-.36-1.59-.19-.29-1.02-.14-1.25-.44-.21-.27,0-.86.04-1.31.35.17.69.38,1.06.48.43.12.89.15,1.5.24.74-4.56-.47-9.19.82-13.91-1.99-2.03-4.63.23-7.12.04-.47-.03-2.16,1.07-1.22,2.64,1.26,2.1,1.15,4.25.07,6.41-.2.41-.37.92-.31,1.36.38,2.65-.77,4.97-1.42,7.41-.22.84.4,1.93.11,2.73-.36.99-1.62,1.4-1.82,2.77-.12.84-1.38.86-1.86-.03-.5-.93-1.07-2.07-.97-3.05.32-3.36-1.16-6.9.93-10.08-.16-5.09-.21-10.19-.59-15.27-.08-1.06,1.82-2.15-.02-3.13,0,0,.59-3.41.66-3.84-1.7.23-3.33.81-4.82.56-1.45-.24-2.76-1.32-4.56-2.25,1.26-.92,2.41-1.77,3.83-2.81-1.14-.41-1.71-.62-2.6-.94,1.43-1.43,2.71-2.86,4.15-4.1,1.44-1.24,3.85-.22,3.89,1.72.03,1.49-.49,2.99-.76,4.48Z"/><path class="cls-2" d="m1113,995.42h-12.83c-.1-.91-.19-1.69-.33-2.9-1.53.11-3.37-.24-4.58.48-1.27.75-1.37-.17-1.81-.57-.3-.27-.42-.85-.43-1.29-.03-6.12-.02-12.25-.02-18.54h6c0-6.29.03-12.4-.04-18.52,0-.7-.73-1.36-.93-2.09-.48-1.74.62-3.34,2.43-3.39,3.12-.08,6.25-.02,9.21-.02,1.58-3.26-1.98-2.87-2.75-4.8,1.64-.09,3.18-.17,5.08-.27,0,5.15-.13,10.11.03,15.05.2,6.03.77,12.05.93,18.08.17,6.15.04,12.31.04,18.78Zm-2-41.35c-.66-.66-1.23-1.25-1.83-1.83-2.27-2.16-2.77-1.99-5.88-.74-2.81,1.12-3.55,2.99-3.3,5.68.06.66.06,1.33,0,1.99-.14,1.61.29,2.81,1.95,3.44.44.17.84.74,1.03,1.21.17.43.18,1.04.01,1.47-.97,2.45,1.64,3.25,2.29,4.95.06.16,1.47.14,1.57-.09.67-1.58,1.58-3.11,1.19-4.99-.28-1.35-.01-2.58,1.3-3.43,1.55-1,1.91-2.5,1.7-4.27-.14-1.13-.03-2.3-.03-3.38Z"/><path class="cls-2" d="m1136.84,982.56q.08-4.89-4.7-4.9c-.5,1.71.74,4.52-2.82,4.94-.11-.71-.36-1.43-.3-2.13.32-3.57-.39-7.03-1.31-10.71h3.08v-7.5c1.16.49,1.9,1.09,2.39.93.7-.24,1.8-1.44,1.73-1.53-.81-1.15-.17-2.12-.05-3.24.12-1.23-.73-2.63-1.41-3.83-.32-.57-1.2-.83-2.33-1.54-.08,1.79-.13,3.04-.18,4.19-.31.12-.46.24-.54.2-.14-.06-.37-.27-.34-.33.77-1.93-3.87-2.43-1.28-4.82-1.13-1.7-.73-3.62-.77-5.48-.03-1.31,0-2.61,0-3.91,5.71-1.21,11.11.42,17,.91,0,1.41-.03,3.02.01,4.63.03,1.02.03,1.98-.98,2.59-1.04.64-1.03,1.36-.12,2.11-.72.63-2.35.34-1.95,2.12.21.93.04,1.95.04,2.9-4.59,1.08-2.39,4.58-3.33,7.58,1.52-.29,2.42-.39,3.27-.65,1.63-.49-.01-1.7.48-2.45.51-.79,1.37-1.52,1.48-2.35.1-.71-.65-1.53-.42-2.74.5.5,1.38.96,1.44,1.52.19,1.64-.29,3.43.18,4.94.39,1.24,1.55,2.15,2.07,3.63.67,1.93.8,3.67.7,5.97-.61-.42-1.03-.7-1.77-1.21.43,2.49.43,4.9,1.31,6.93,1,2.3.15,4.52.66,6.72-1.7.26-1.72.24-2.57-1.55-.34.73-.65,1.39-1.27,2.7-.12-1.4-.48-2.69-.2-2.84,3.39-1.93,1.4-4.99,2.19-8.15-1.55.6-2.51.95-3.44,1.34-1.35.57-1.92,1.55-1.83,3.07.12,1.81.03,3.64.03,5.86-2.98-.42-5.88-.82-8.8-1.23-.06-2.63-.06-2.64,1.79-2.7.83-.03,1.66,0,2.84,0Z"/><path class="cls-2" d="m654.71,992.16c1.15-.61,1.9-.88,2.5-1.35.78-.62,1.36-1.48,2.16-2.06.48-.35.72.99,1.8.29,1.83-1.18,2.36-1.81,1.31-3.48-.34-.55-.92-.95-1.64-1.67,1.01-.54,1.98-.95,2.82-1.55.28-.2.43-.98.26-1.28-.17-.3-.98-.61-1.21-.46-.92.61-1.73,1.4-2.93,2.42-.67-1.63-1.24-2.97-1.74-4.33-.09-.23.13-.84.23-.85,2.37-.13,1.47-1.93,1.81-3.2.25-.95.4-3.2,2.35-1.16.39-.63,1.66-.54,1.12-1.98-.65-1.72.11-2.81,1.68-2.91,1.8-.11,3.62-.03,5.58.52-.52.15-1.05.28-1.57.46-2.31.79-2.62,1.5-1.78,3.95.3.88.55,1.77.89,2.87h3.13c-.25-1.05,2.3-1.84.56-3.29.24-.18.5-.53.71-.5.43.06,1.1.22,1.22.51.75,1.85,1.67,3.71,1.96,5.65.26,1.8.41,3.69.51,5.53.08,1.66,1.76,3.19,2.53,4.87.3.64.05,1.53.05,2.78-1.15-1.07-1.83-1.72-2.52-2.36-.47.47-1.42,1.06-1.33,1.39.65,2.54-2.76,2.98-2.62,5.43.06,1.07-3.71,1.63-5.26.91q-3.78-1.76-7.12-1.76c.01,4.08-.54,8.1-3.14,11.5.06,2.89-.92,5.53-1.96,8.16-.13.32.34.84.41,1.29.14.93.34,1.9.22,2.81-.09.7-1.42.99-3.78,1.04.58-1.69-.46-3.31.74-5.13.7-1.06.36-2.85.35-4.31-.01-2.89.88-5.55,2.04-8.13.37-.82.94-1.66,1.65-2.2.64-.48,2.31.62,2.24-.97-.05-1.32-.82-2.62-1.27-3.93-2.17,1.6-1.45-.3-1.69-1.3-.17-.71-.73-1.34-1.25-2.24Z"/><path class="cls-2" d="m521.98,890.85c.67-.63,1.81-1.18,1.93-1.89.38-2.34,1.73-1.29,2.88-1.06.14.03.27.21.35.34,3.16,5.04,8.21,2.96,12.6,3.35.17.01.41.07.49,0,3.56-3.72,8.11-1.36,12.17-1.96,1.11-.16,2.27-.03,3.42.75-1.1.08-2.19.19-3.29.22-1.33.04-2.66,0-4.21,0-.16.87-.33,1.77-.58,3.09-1.39-.55-3.52,1.18-3.98-1.83-.24.06-.47.15-.71.18-1.59.19-3.18.37-4.76.56-1,.12-2.53-.59-2.37,1.5,0,.12-1.14.54-1.7.46-4.27-.55-8.37.93-12.57,1.06-.59.02-1.18.34-1.74.59-2.68,1.2-4,1.43-8.09,1.38-.48,0-.96-.05-1.53-.08-.34-2.46-1.88-3.05-4.14-2.96-1.71.06-3.53.6-5-1.22-1.74-2.13-1.39-2.13.85-3.86,2.35-1.81,4.68-1.89,7.26-1.87.33,0,.78.14.98-.02,2.93-2.3,6.7-1.39,9.92-2.6.2-.08.56.26.84.41-1.31,1.77.38,3.34.98,5.46Z"/><path class="cls-2" d="m291.19,967.14c-1.26.52-2.65.3-2.12,1.85.04.13,1.09-.09,2.08-.19-.42,1.08-1.07,2.02-1.08,2.96,0,1.02.61,2.05.91,3.08.09.31.16.81,0,.97-1.63,1.57-1.79,3.51-2.18,5.65-.34,1.86-.64,3.71-.88,5.6-.07.52-.88.95-1.66,1.73-.15-1.47-.27-2.67-.4-3.98-.81.23-1.84.87-2.34.59-.71-.4-1.31-1.45-1.45-2.3-.23-1.42-.06-2.91-.06-4.38-1.09-.12-1.88-.21-3.12-.34.7-2.8-.92-5.67,1.05-8.47.61-.86.04-2.17-1.03-3-1.21-.94-1.4-2.09-.38-3.4,1.16-1.48,1.18-3.78,3.47-4.5,1.08-.34,1.04-1.5,1.03-2.54-.04-3.99-.02-7.99-.02-11.98v-2.83c1.34,3.45.75,7,1.14,10.9.57,0,1.2-.09,1.79.02.71.14,1.91.34,1.99.71.36,1.67-1.02,1.17-1.92,1.27-1.67.17-.8,1.48-.97,2.29-.13.62,1.66.98.35,1.81-1.76,1.11-1.38,2.8-1.35,4.27,2.34,1.37,4.61,2.7,7.17,4.19Z"/><path class="cls-2" d="m313.8,959.56c.85.33,1.71.95,2.56.94,1.43-.02,2.13.79,2.61,1.81.78,1.66,1.32,3.44,2.05,5.13.48,1.13.93,2.35,1.71,3.26.79.92.57,1.48.47,2.58-.2,2.13-.98,4.48.56,6.67.52.74.37,2.29-.03,3.24-.26.62-1.53.82-2.72,1.38,0-2.35.25-4.66-.07-6.89-.3-2.09-1.2-4.1-2.28-6.18.08,1.91-2.27,2.21-2.17,4.11.08,1.57-.46,3.17-.73,4.82-.3-.15-.73-.28-.72-.39.09-1.4-1.25-2.68-1.82-2.34-1.06.62-2.81,0-3.33,2.06-.44,1.73-1.94,3.2-3.01,4.83-1.83-1.08-2.43-2.15-1.47-4.02.76-1.49,1.33-3.17,1.52-4.82.15-1.27-.84-2.75-.53-3.92.25-.93,1.92-1.41,2.51-2.36.25-.41,1.98-1.25.35-2.22-.19-.11-.32-.76-.22-.85,2.19-1.87,1.77-5.55,4.77-6.85Z"/><path class="cls-2" d="m165.74,1019.49c-3.74-1.44.59-3.98-1.39-6.07-.24.95-.48,1.93-.72,2.9l-1.34-.94c.04-.58-.11-1.27.15-1.73.61-1.07,1.41-2.03,2.14-3.05.28.59.59,1.25,1.12,2.36.22-1.39.36-2.3.51-3.28.32.14.63.18.76.36.29.4.49.87.72,1.31,1.35-1.77,2.2-.41,3.11.5,1.11,1.1,1.79,1.32,2.28-.59.19-.73,1.4-1.2,2.41-2-2.16-.79-3.85-1.42-5.66-2.08q2.44-2.08,3.67.36,1.94-2.28-.48-3.47c.1-.12.19-.24.3-.35.35-.36.7-.71,1.19-1.19.5.58,1,1.15,1.48,1.73.35.42.77,1.28.99,1.22,2.44-.61,3.58,1.18,5,2.51.31.3.88.59,1.25.5.76-.17,1.5-1.52,2.17,0,.26.61-.07,1.47.19,2.09.73,1.72-2.6.62-1.59,2.41-1.06.82-2.98.85-2.94,2.66.03,1.17.6,2.33,1.04,3.89-2.5,0-4.79.11-7.07-.03-2.1-.13-2.82,1.1-3.16,2.37-.81-.81-1.79-1.79-2.78-2.79-.88.8-1.22,1.11-1.56,1.43-.17-.41-.59-.91-.48-1.22.58-1.59,1.33-3.11,1.91-4.69.09-.24-.38-.94-.68-1-.38-.08-1.15.19-1.23.46-.51,1.79-.89,3.61-1.31,5.43Z"/><path class="cls-2" d="m502,980.56c2.68,1.9,1.88,4.74,2,7.34-2.3,1.38,0,2.78.1,4.14.07.96.9,2.02,1.68,2.73,1.62,1.47,1.36,3.06.73,5.79-.35-1.88-.53-2.79-.73-3.88-.91,1.08-1.79,2.11-2.8,3.3-.85-1.25-1.34-2.2-2.07-2.94-.31-.32-1.09-.17-1.66-.23.07.57.11,1.14.22,1.7.05.25.26.46.41.71-2.52,1.27-3.45-.95-4.91-2.18.7-.32,1.37-.63,2.44-1.13-1.31-.24-2.31-.21-3.1-.62-.67-.35-.05-2.11-1.71-1.82-.08.01-.64-1.37-.56-2.06.16-1.37.73-2.7.92-4.07.16-1.24.03-2.52.87-3.79.09,1.57.19,3.14.33,5.59,1.1-1.64,1.86-2.64,2.46-3.72.67-1.21,1.18-2.49,1.83-3.89.36.74.66,1.38.97,2.01,1.44-.53-.5-2.8,1.58-2.96h1Z"/><path class="cls-2" d="m356.38,937.49c.87,1.94,1.55,2.78,1.57,3.63.11,4.66.08,9.32.04,13.97-.04,4.39,1.63,8.6,1.05,13.07-.63,4.82.96,9.82-1.04,14.55,1.25,1.27.54,2.1-.85,2.97-2.1-1.04-3.07-2.56-3.25-5.21-.33-4.78,1.17-9.35,1.1-14.07,1.59-1.39-.38-2.75-.04-4.17.26-1.09-.26-2.77.34-3.29,1.59-1.37-.99-1.71-.4-2.9.46-.94.43-2.42.02-3.42-.66-1.6,2.21-2.51.66-3.92-1.62-1.47.64-2.21.42-3.36-.26-1.38.55-2.91-.78-4.22-.28-.27.47-1.59,1.15-3.65Z"/><path class="cls-2" d="m536.22,987.49c1.78.45,3.46-.22,5.48.89,1.69.93,4.34,1.79,6.34-.35.67-.72,1.38-.76,1.95.15.08.12.06.34,0,.49-.11.29-.22.69-.44.79-.41.19-.9.19-1.38.27.66,1.63,1.06,3.22,3.39,2.87,2.21-.32,3.9,1,5.47,2.45-3.74,2.01-7.59,3.14-12.26,2.21,1.64-.68,2.96-1.23,4.84-2.01-1.59-.97-2.62-1.59-3.64-2.22-.8-.49-1.85-1.57-2.33-1.36-1.33.58-.55,1.51.19,2.23.05.05.03.25-.03.34-.49.71-1.3,1.37-1.41,2.13-.13.85.46,1.78.6,2.69.66,4.24-1.51,8.18-.97,12.54-1.95-.79-3.13-2.49-2.87-3.71,1.21-5.66,1.2-6.1-.39-13.08-1.53-.97,1.62-2.42-.43-3.53-1.05-.57-1.73-1.81-2.58-2.75.16-.35.31-.7.47-1.05Z"/><path class="cls-2" d="m272,983.52c-1.19-4.52-1.04-9.06-.87-13.59,1.31-.83-.36-2.23.75-3.41.66-.71.12-2.55.12-3.88,0-3.49.03-6.98-.01-10.47-.02-1.46-.17-2.92-.27-4.37-2.23-.08-1.9-2.67-3.45-3.5-1.78-.95-3.43-2.13-5.07-3.17.36-.74.75-1.56,1.27-2.63,2.52,2.89,5.34,5.27,9.33,6.05-.3-.97-.62-1.77-.78-2.59-.21-1.06.46-1.15,1.37-1.44,2.13-.69,1,2.81,3.14,2.2.52-.15.45,1.14-.02,1.96-.44.78-.47,1.83-.49,2.77-.06,2.49.02,4.99-.05,7.48-.01.56-.32,1.54-.62,1.59-2.86.51-2.35,2.68-2.34,4.56,0,3.36.12,6.69-1.7,9.79-.51.88-.29,2.22-.3,3.35-.03,3.1-.01,6.21-.01,9.31Z"/><path class="cls-2" d="m40.31,1006.54c-.33-1.73-.61-3.21-.93-4.91,1.31.75,2.55-1.85,4.22-.19,1.28-1.58,3.05-.76,4.61-.87,1.82-.13,3.66.1,5.47-.07,1.54-.14,3.03-.78,4.57-.92,1.79-.17,3.61-.04,5.81-.04-.15,1.4-.05,2.71-.46,3.82-.45,1.21-2.11.79-2.86,1.3-1.02.7-1.34,1.95-3.15,2.01-1.78.06-3.4,1.38-4.95-.82-.41-.59-2.31-.64-3.24-.24-2.38,1-4.95-.28-7.27.89-.5.25-1.24.04-1.82.04Z"/><path class="cls-2" d="m27.83,1067.68c4.68-.05,8.17-2.3,11.14-5.58.61-.67,1.55-1.03,2.3-1.59,1.06-.79,1.93-1.63,3.26-.13.43.49,1.88.08,3.04.08.48,1.59,1.09,3.17,1.39,4.8.3,1.58-.22,2.85-2.05,3.27-.88.21-1.7.86-2.57.94-4.49.41-8.99.71-13.49,1.03-1.76.13-2.65-.8-3.02-2.83Z"/><path class="cls-2" d="m341.1,965.96c1.3-.49,2.49-1.78,4-.4,2.13,1.94,4.37.73,6.87-.28,0,1.24.33,2.44-.05,2.74-2.43,1.92-1.83,4.94-2.94,7.31-.22.47-.69.82-1.05,1.23-.31-.45-.7-.87-.91-1.37-.17-.42-.12-.92-.37-1.47.03.89-2.28.1-1.07,2.14.71,1.2-1.56,1.34-2.37,2.08-.78.71-1.12,1.88-1.83,2.69-.58.66-.05,2.71-2.04,1.75-1.36-3.39-.04-6.75.86-9.83.66-2.25.5-4.42.9-6.58Z"/><path class="cls-2" d="m1154.09,966.79v-6.07h3.29c.66-1.53,1.23-2.88,2.05-4.79.46,1.29.58,2.3.89,2.36,1.07.22,3.07.41,3.19.08,1.05-3.04,3.42-1.27,5.48-2.06,0,1.2.33,2.37-.06,2.7-1.86,1.6-.63,3.14.57,3.38,2.21.44,1.44,1.65,1.36,2.87-5.45.5-10.89,1-16.77,1.53Z"/><path class="cls-2" d="m845.78,1012.41h-6.78c0-2.03-.04-4.15.01-6.26.04-1.62-.92-2.33-2.28-2.59-4.56-.89-7.97,1.49-11.26,4.09-.31.25-.41,1.37-.16,1.62,1.37,1.32-.53,1.44-.7,2.16q-1.59-3.01-1.49-5.99c2.8-3.67,6.52-2.83,10.03-2.89,1.16-.02,2.33,0,3.49,0,3.59-.03,4.17-.49,5.36-4.1.58-1.75,1.2-3.49,1.85-5.22.1-.26.45-.43.95-.88.53,3.66,1.03,7.11,1.54,10.58-1.62,1.02-4.01.3-4.35,2.7-.46,3.18.55,5.45,4.63,5.83-.28.32-.57.63-.85.95Z"/><path class="cls-2" d="m611.23,961.56c.92,0,1.59.06,2.24,0,3.06-.3,2.84.41,2.53,3.4-.03.33-.08.68,0,.99.52,1.83-1.41,1.3-1.97,2.08,2.76,1.53,2.61,1.51,2.04,5.2-.23,1.45.37,3.03.66,4.99-.52.08-1.4.11-2.2.36-2.88.9-5.2-.22-5.46-2.99-.13-1.35-.47-2.81.51-4.24.56-.81.83-2.63.33-3.2-1.95-2.2-.57-3.45.86-4.9.28-.28.25-.87.46-1.68Z"/><path class="cls-2" d="m51.8,1067.35c.3-.78.42-1.7.72-1.76.95-.2,2.41.34,2.89-.15,1.28-1.34,2.92-.42,4.09-1.04,1.26-.67,2.07-2.13,3.23-3.05,1.35-1.06,2.81-1.99,4.71-1.84,1.32.1,2.65.02,4.21.02.27,1.29.57,2.63.84,3.98.24,1.21.46,2.42.72,3.85h-21.4Z"/><path class="cls-2" d="m29.33,965.44c-1.39-3.27,1.01-4.46,2.45-6.19,2.09-2.5,4.59-3.74,7.36-3.71,2.36.03,3.32,2.28,5.22,3.04.52.21.53,1.66.85,2.79h-3.76c-.35,1.16-.73,3.07-.94,3.06-2.21-.19-4.13,2.29-6.4.74-1.68-1.14-3.22-.75-4.78.28Z"/><path class="cls-2" d="m1018,979.56c1.38.01.99,1.07.98,1.79-.06,3.41-.1,6.61,2.54,9.5,1.01,1.1.4,3.67.58,6.24-2.64-3.62-3.47-7.32-6.01-10.13-.91-1-.72-2.98-1.12-4.48-.1-.36-.54-.83-.86-.86-.35-.03-.74.39-1.11.62,0,0-3,10.23-3,10.23-.33,1.19-.6,2.41-1.05,3.56-.11.29-1.09.6-1.19.48-.35-.41-.73-1.03-.66-1.5.11-.73.78-1.39.86-2.11.45-4.32.8-8.66,1.22-13.34h6.82c.36.2.72.53,1.09.55.29.02.6-.35.91-.55Z"/><path class="cls-2" d="m796.16,982.39v-2.83c-1.27,0-2.4.16-3.45-.04-1.2-.23-1.83-1.66-1.17-2.9.45-.85.76-1.52-.08-2.06-1.38-.88-1.37-1.83-.45-2.99-.43-.33-1.05-1.04-1.25-.94-1,.52-1.99,1.16-1.76,2.59.17,1.09-.44,1.6-1.4,1.28-.29-.1-.58-1.17-.38-1.56,1.21-2.45.86-5.25,1.82-7.72.78-2,1.65-3.99,2.77-5.81.39-.63,1.64-.73,3.08-1.31,0,1.69.46,3.24-.11,4.03-.8,1.1-.7,2.1-.77,3.21-.07,1.05.48,2.51-1.52,2.27.27.92.37,2.53.83,2.64,1.74.41,2.18,1.58,1.6,2.77-.58,1.21,1.8,1.51.47,2.92-.49.52.94,1.4,2.09,1.74,1.41.41,1.52,1.61.57,2.9-.3.4-.05,1.21-.05,1.83-.28,0-.56.01-.84.02Z"/><path class="cls-2" d="m316.04,1013.96c-3.02-1.15-5.7-2.68-7.47-6.16,1.53.31,2.64.81,3.66.66.96-.14,1.82-.95,2.7-1.45-.3-.35-.59-.69-1.25-1.46,1.53,0,2.97-.45,3.68.08,2.29,1.71,5.45.2,7.49,2.31.18.18.1.61.2,1.34-1.53.13-3.06.27-4.63.4-.78,2.3-1.73,4.61-1.5,7.25.07.77-.61,1.96-1.29,2.33-.65.35-1.74-.11-2.64-.21.29-1.68-.79-3.63,1.04-5.08Z"/><path class="cls-2" d="m502,980.56h-1v-1.49c-.35.02-.78-.1-1.04.07-1.09.71-1.01-.25-.93-.72.26-1.42-.72-2.68-1.56-2.73-2.06-.12-1.57-1.47-1.43-2.42.51-3.52.57-3.51-1.18-5.35-.28-.3-.52-.63-.79-.95.25-.2.37-.39.5-.39,3.65-.02,7.3-.01,11.29-.01-.42,1.01-.78,1.89-1.11,2.69-1.13-.27-2.25-.54-3.56-.85v4.14c1.13-.53,1.95-2.12,2.9.19.69,1.68,1.19,2.3.68,3.59-.34.86-.35,1.89-.82,2.64-.43.68-1.28,1.08-1.95,1.61Z"/><path class="cls-2" d="m1018,979.56c-.3.2-.62.57-.91.55-.37-.02-.73-.35-1.09-.55-2.71-2.07-3.7-5.16-2.81-8.04.7-2.27.57-4.4.83-6.59.17-1.4.89-2.44,2.48-2.32.52.04,1.44.48,1.44.74.05,2.88,2.22,5.17,2.11,8.11-.09,2.26.02,4.45-1.66,6.3-.36.39-.26,1.2-.38,1.81Z"/><path class="cls-2" d="m666.85,1018.19c.43-.43.67-.66.9-.9.1-.11.27-.29.24-.39-.85-2.95-1.72-5.9-2.68-9.14,1.49-2.28,4.8-1.68,7.12-3.65,1.04,2.05.44,3.86.55,5.58.12,1.82.21,3.67-.02,5.47-.23,1.8.73,2.75,2.41,4.04-1.78.12-2.78,2.06-4.46-.07-.59-.75-2.35-.58-4.05-.93Z"/><path class="cls-2" d="m1119,915.73c0-3.28-.04-6.07.01-8.86.05-2.71.64-3.22,3.53-3.28,1.32-.03,2.64,0,4.25,0-.29.85-.54,1.61-.8,2.36-.24.72-.49,1.44-.81,2.34,1.2,1.27,3.43,2.06,3.81,4.42-2.41,3.45-6.72.64-10,3.02Z"/><path class="cls-2" d="m423.29,892.81c.04,2.67,1.99,3.3,4.03,3.76.63.14,1.35-.09,1.97.07.31.08.74.91.66.99-.35.4-.85.66-1.33.94-.06.04-.24-.19-.38-.23-1.2-.33-2.37.42-1.95.88,1.38,1.53-.94,2.05-.55,3.16-1.29.41-1.46-3.14-3.21-.83-.82-.8-2.14-1.47-2.36-2.41-.74-3.07-3.59-2.42-4.87-2.05-1.51.44-1.46-.7-2.46-.95,1.94-.8,3.52-1.55,3.25-4.01-.14-1.3.52-2.71.96-4.02.09-.28.87-.57,1.22-.48,1.25.34.1.76.02,1.21-.43,2.22,1.93,5.28,4.31,5.57.16.02.45-1.05.69-1.62Z"/><path class="cls-2" d="m211,943.79c0,.63-.06,1.26.01,1.88.26,2.23.78,2.75,2.95,2.89.83.06,1.7-.16,2.48.04,1.59.41,2.28,3.08.89,3.88-1.62.94-2.76,2.4-4.5,3.28-1.55.79-2.19-.43-3.27-.22-1.98.38-1.09-1.51-1.65-2.12-1.76-1.91-.53-3.54.1-5.21.6-1.58,1.42-3.07,2.14-4.6.28.06.55.12.83.18Z"/><path class="cls-2" d="m172.68,956.36c-1.2,1.9-2.26,3.57-3.48,5.48-2.44-1.45-4.82-2.86-7.49-4.44,1.92-2.21,4.59-3.12,5.62-5.61.07-.18.85-.07,1.29-.1.03,2.28,1.73,1.96,3.09,1.83,1.33-.12,2.63-.56,3.94-.86.66,1.42.28,2.4-.69,3.52-.76.87-1.02,2.19-1.63,3.62-.24-1.25-.44-2.27-.67-3.45Z"/><path class="cls-2" d="m795.55,998.7c-.58-.74-1.08-1.34-1.55-1.97-.67-.88-1.39-1.72-1.95-2.66-.73-1.22-3.62.63-3.23-2.54.13-1.04-.83-2.57-.87-4.02-.01-.52-.56-1.02-1.17-2.05,1.29.33,2.54,1.03,2.98.68,1.48-1.14,1.43.71,2.17.86,1.21.25,2.42.49,3.81.78.18-1.23.31-2.14.46-3.13.34.19.77.35.76.43-.41,2.33,1.04,4.92-.95,7.05-.16.17-.14.79.03.93,2.5,2.09-.15,3.67-.5,5.64Z"/><path class="cls-2" d="m446.36,915.73c.21.12.43.24.64.36-.11.11-.25.33-.33.31-.24-.05-.45-.2-.67-.31.11-.11.22-.22.36-.36Z"/><path class="cls-3" d="m57.95,873.4c-.37-1.82-.73-3.65-1.15-5.45-.04-.17-.59-.38-.82-.31-.3.09-.51.45-.76.69.24.24.67.47.67.71,0,.89.7,2.18-.59,2.51-1.63.42-1.15-1.02-1.32-1.91-.35-1.84-.81-3.67-1.29-5.81-.82-.32-2-.71-3.09-1.26-.32-.16-.41-.77-.6-1.17,2.21-1.03-.96-2.45.26-3.55,1.38.92,2.76,1.85,4.15,2.76,1.04.68-.29.99-.21,1.34.26,1.16.73,2.27,1.14,3.49,2,.71,4.5-.72,6.42,1.13.14.13.81-.35,1.25-.46.56-.14,1.45-.46,1.64-.23.55.66,1.34,1.75,1.12,2.32-.62,1.63-1.69,3.1-3.15,5.58-.42-2.38-.65-3.67-.96-5.43-.76,1.98-1.37,3.58-1.98,5.19-.24-.04-.49-.09-.73-.13Z"/><path class="cls-3" d="m394.19,912.63c-.26,1.29-1.17,2.99-.66,3.77,1.07,1.64.23,2.62-.45,3.98.97.14,1.88.27,2.89.42-1.56,1.73-4.05,2.51-4.09,5.25q-3.7.69-5.31-2.38c-1.44.82-2.11,2.06-1.32,3.55.23.43,1.47.33,2.33.49,1.72,2.5-.68,4.79-.63,7.26,0,.36-.54.87-.94,1.06-.97.45-2.38.46-2.91,1.17-.57.78-.27,2.16-.52,3.25-.09.41-.66.71-1.57,1.62.21-1.56-.01-2.89.53-3.39,1.45-1.33-1.45-2.93.45-4.01-.24-.36-.4-.81-.72-1.06-.74-.58-1.53-1.08-2.34-1.56-.64-.38-1.32-.68-1.99-1.01,1.05-2.01,1.76-4.18,3.15-5.74.94-1.05,1.65-4.41,4.39-1.82.04.04.9-.79,1.66-1.47-.84-.55-1.63-1.06-2.8-1.82,1.05-.33,1.62-.7,1.85-.55.8.53,1.4,1.49,2.25,1.81.75.28,2.08.73,2.5-.55.51-1.54-1.18-1.08-2.1-1.91,1.16-.27,2.1-.48,4.17-.96-2.39-.33-3.68-.51-5.15-.71.36-1.72,1.11-3.5,2.73-2.41,2.04,1.36,2.54.12,3.38-1.04.3-.41.42-.96.62-1.45.2.07.4.15.59.22Z"/><path class="cls-3" d="m52.01,921.47c1.65.62,3.83-1.24,4.08,1.7,2.14.11,1.89,1.65,1.96,3.1.02.45.55.94.95,1.29.95.86,1.91,1.73,2.97,2.44,1.4.94,1.25,2.37.94,3.55-.23.88-1.27,1.55-2.53,2.96-.76-3.2-1.33-5.57-1.9-7.94-.11,0-.23,0-.34,0v7.7c-2.88.08-5.25-1.05-5.05-2.69.46-3.96-1.34-7.64-1.08-12.1Z"/><path class="cls-3" d="m1111,954.07c0,1.08-.11,2.24.03,3.38.21,1.78-.15,3.27-1.7,4.27-1.31.85-1.58,2.08-1.3,3.43.38,1.88-.53,3.41-1.19,4.99-.1.23-1.51.25-1.57.09-.65-1.7-3.26-2.5-2.29-4.95.17-.43.16-1.04-.01-1.47-.19-.47-.58-1.04-1.03-1.21-1.66-.63-2.09-1.83-1.95-3.44.06-.66.06-1.33,0-1.99-.25-2.68.49-4.56,3.3-5.68,3.11-1.24,3.62-1.42,5.88.74.6.57,1.17,1.17,1.83,1.83Z"/><path class="cls-1" d="m412.5,921.08c-1.45-.12-1.62,1.22-1.94,2.02-.5,1.29-1.12,2.07-2.56,1.97"/><path class="cls-1" d="m401.5,938.08c.71,3.98,1.73,7.96.47,11.99-.53,1.71,1.17,3.34.03,5.01.57,8.5-1.52,16.99,0,25.49.06.32.1.92,0,.96-3.23,1.13-.36,3.87-1.49,5.54,1.27,1.33-.26,2.67,0,4"/><path class="cls-1" d="m1189.5,1034.53c-2.33.17-4.67.49-7,.45-2.26-.04-4.4.26-6.5,1.05"/><path class="cls-1" d="m1187.5,1053.52c-2.31.44-4.49,1.42-7.02.56-3.64-1.24-7.26.78-10.99.53-2.3-.15-4.66.58-6.99.91"/><path class="cls-1" d="m860.5,1104h-5"/><path class="cls-1" d="m47,917.83c2.17.42,4.33.86,6.5,1.24,1.32.23,2.66.34,4,.51"/><path class="cls-1" d="m1110.25,969.56c-.27-2.88-.36-5.67.67-8.52,1.06-2.93.82-5.9-.27-9.02-.68-1.95-2-2.27-3.16-2.34-2.32-.13-4.68.36-6.99.6-1.29,3.36-.97,6.6-1,9.79,0,.5-.22,1.19.03,1.47,1.88,2.08,1.33,4.61,1.51,7.02.06.85.62,1.67.96,2.5"/><path class="cls-1" d="m356.5,941.07c.17,3,.47,6,.46,9,0,3.33-.93,6.78-.34,9.97,1.31,7.12-.32,14.02-.58,21.02-.04.99.62,2,.95,3"/><path class="cls-1" d="m1170,948.07c2.7,2.6,3.56,5.8,3.55,9.5-.02,5.5.28,10.99.45,16.49"/><path class="cls-1" d="m115,858.36c.67-.08,1.33-.17,2-.25"/><path class="cls-1" d="m146,902.59c1.67-.34,2.46.72,2.97,2.01.31.78.36,1.66.53,2.49"/><path class="cls-1" d="m203.5,974.06c.89,2.09-.74,3.96-.5,6"/><path class="cls-1" d="m490.75,1020.54c-.08.17-.26.35-.24.5.87,5.79-.12,11.39-1.44,17.01-.45,1.89-.07,3.98-.07,5.98"/><path class="cls-1" d="m612.75,1004.55c-.63,2.96-1.63,5.61-3.66,8.07-2.66,3.22-4.8,6.92-4.59,11.42"/><path class="cls-1" d="m613,992.55c-.37-1.93-1.25-4.01,1.5-5"/><path class="cls-1" d="m274.5,942.07c.23,1.16,1.76,1.92.59,3.56-.68.97-.58,2.6-.56,3.93.05,2.57-.15,5.06-1,7.51-.38,1.09-.43,2.32-.52,3.49-.08,1.16-.02,2.33-.02,3.5,0,1,.41,2.49-.08,2.9-1.25,1.03.57,2.96-1.37,3.72-.34.13-.05,1.88-.05,2.88v9.5"/><path class="cls-1" d="m140.5,1020.04c.1,1.71-.02,3.33.89,5.06,1.12,2.14,1.03,4.69-.39,6.94"/><path class="cls-1" d="m840,1004.05c-5.33-1.84-10.45-1.74-14.97,2.04-1.29,1.08-1.66,2.63-.03,3.96"/><path class="cls-1" d="m1016.5,981.06c-.67-.17-1.33-.47-2-.48-2.62-.02-3.82.92-3.96,3.48-.19,3.39-2.3,6.46-1.59,10,.08.42-.61.99-.94,1.49"/><path class="cls-1" d="m63,1065.02c-3.41,1.12-6.92,1.53-10.5,1.5"/><path class="cls-1" d="m151.5,1027.04c.5-.33,1.09-.59,1.48-1.01,1.63-1.76,2.3-3.7,1.03-5.99-.25-.45-.35-.99-.51-1.49"/><path class="cls-1" d="m1016.5,976.06c.17,2.17.33,4.33.5,6.5.21,2.73.65,5.36,2.06,6.94,1.75,1.95,2.07,4.21,2.44,6.55"/><path class="cls-1" d="m1194.5,941.07c-3.33-.17-6.67-.34-10-.5-2.34-.11-4.7.55-7.02-.45-.5-.22-1.31.28-1.98.44"/><path class="cls-1" d="m499.5,974.06c1.93,1.58,3.34,3.13,2.1,6.04-.76,1.77.65,4.05-.6,5.96"/><path class="cls-1" d="m51,919.58c-.46,4.93,1.42,9.61,1.56,14.49.06,1.95,1.62,3.04,3.94,2.96,2.51-.09,4.82.35,7,1.54"/><path class="cls-1" d="m657.5,1002.05c-1.83,3.44-2.89,7.06-3.06,10.99-.09,1.99-.78,3.96-1.21,6h2.27"/><path class="cls-1" d="m534.5,893.1c-2.57.16-5.13.07-7.47-1.06-.84-.4-1.36-.7-2.03.06-1.41,1.62-3.31.8-5,1"/><path class="cls-1" d="m37.5,1067.02c-2.83,1.55-5.71,2.72-9,1.5"/><path class="cls-1" d="m1.5,826.13c3.09-.46,5.89,1.45,9.01,1.04,1.8-.23,3.7-.29,5.49,0,4.03.67,8.01,1.59,12,2.48.55.12,1.01.64,1.51.97"/><path class="cls-1" d="m152.5,938.58c-1.86,4.16-1.12,8.33,0,12.49"/><path class="cls-1" d="m536.5,988.55c.83.33,1.65.71,2.5.99,1.76.57,2.22,1.81,2,3.51-.24,1.86-.57,3.52.29,5.58.8,1.93-.18,4.58-.28,6.91-.08,1.83-.04,3.66-.02,5.5"/><path class="cls-1" d="m46.5,928.08c.05,2.7-.29,5.45,1.02,8.29,1.82.32,3.65.45,5.48-.29"/><path class="cls-1" d="m145.5,933.58v6.5"/><path class="cls-1" d="m61.5,952.57c-1.88,2.11-4.46,2.3-7,2.48-1.66.11-3.33.02-5,.02"/><path class="cls-1" d="m622,1003.55c.17,1.83.33,3.67.5,5.5"/><path class="cls-1" d="m154.5,980.06c-.07,2.84.29,5.65-.41,8.52-.45,1.83-1.09,3.39-1.93,5.06-.64,1.26.26,3.25.29,4.92,0,.49-.61,1-.95,1.5"/><path class="cls-1" d="m283.5,942.07c.17,3.67.33,7.33.5,11"/><path class="cls-1" d="m844.5,993.05c-.17,1.67-.38,3.33-.49,5-.08,1.26.27,2.72-1.03,3.47-2.89,1.67-2.52,4.38-2.48,7.02,0,.5,0,1,0,1.85,1.6.53,3.3,1.09,5,1.65"/><path class="cls-1" d="m546,891.6c-1.33.04-2.53-2.2-4.09-.06-.42.58-1.91.41-2.91.56-1.16.18-2.33.34-3.5.5"/><path class="cls-1" d="m1144,974.56c1.75.23,2.5,1.23,2.53,3,.03,1.5.36,3,.45,4.5.08,1.33.02,2.66.02,4"/><path class="cls-1" d="m620.5,976.06c.26,2.33-1.58,4.8.5,7"/><path class="cls-1" d="m287.5,953.57c-3.44.18-3.41.18-3.52,3-.03.84.78,1.73-.45,2.54-1.51.99-1.69,2.81-2.03,4.45"/><path class="cls-1" d="m309.5,976.56c-1.74,2.2-2.64,4.74-3,7.5"/><path class="cls-1" d="m399,910.59c1.02.83,1.69,1.73-.01,2.47-.76.33-1.67.56-2.48.49-2.12-.2-2.04,1.14-2,2.54"/><path class="cls-1" d="m64.5,874.1c-3,1.28-5.78,2.29-9.1.16-1.35-.86-3.23-1.48-4.9-2.16-.17.5-.33,1-.5,1.5"/><path class="cls-1" d="m318,968.56c2.44,1.48,3.68,3.46,3.58,6.5-.08,2.32.59,4.66.92,6.99"/><path class="cls-1" d="m172,1006.54c.16,1.17,1,1.87,1.97,1.43,1.13-.52,2.02-.71,3.04.05.16.12.49.02.74.02-.08.17-.17.33-.25.5"/><path class="cls-1" d="m171,1018.54c.17,1.17.33,2.33.5,3.5"/><path class="cls-1" d="m265.5,941.07c2.7,2.19,5.4,4.37,8.5,6"/><path class="cls-1" d="m792.5,960.07c-1.83,4.5-3.67,9-5.5,13.49"/><path class="cls-1" d="m1107.5,944.07c4.13,1.38,4.25,1.65,2.5,6"/><path class="cls-1" d="m124.5,849.12c-.17.83-.16,2.29-.53,2.4-2.45.69-2.17,2.97-2.97,4.6"/><path class="cls-1" d="m555.5,890.1c-2.67.17-5.33.33-8,.5"/><path class="cls-1" d="m309.5,1008.04c.55,2.09,2.98,2.67,3.91,2.28,1.35-.56,2.09.6,3.09.21"/><path class="cls-1" d="m672.5,973.06c.33.17.95.33.96.5.02,2.27.36,4.63-1.46,6.5"/><path class="cls-1" d="m58.5,929.08c-.12,2.56.02,5.08,1,7.5"/><path class="cls-1" d="m210.5,944.07c-1.15,2.33-.18,4.66,0,7"/><path class="cls-1" d="m62,1001.8c-.17.08-.36.27-.5.23-2.6-.69-4.38,2.04-7.01,1.57-2.29-.41-4.66-.43-6.99-.53-1.56-.07-3.19-.22-4.5.98"/><path class="cls-1" d="m479.5,1007.04c4.69-1.18,6.68-.93,12,1.5"/><path class="cls-1" d="m324.5,1008.54c-2.63-.61-5.23-1.06-7.83,1.3.88,2.58.98,5.42-.17,8.2"/><path class="cls-1" d="m1179.5,937.08c-2.33.17-4.67.33-7,.5"/><path class="cls-1" d="m207.5,1044.03c-.64-2.34-2.59-1.21-4-1.5"/><path class="cls-1" d="m613,971.56c-1.34,2.5.49,5,0,7.5"/><path class="cls-1" d="m628,999.05c.17,2,.33,4,.5,6"/><path class="cls-1" d="m77.5,873.1c-2,.17-4,.33-6,.5"/><path class="cls-1" d="m55.5,868.11c.33.33.96.68.95,1-.06,1.67-.28,3.33-.45,5"/><path class="cls-1" d="m418.5,888.1c-1.17,1.72-1.02,1.73-1.04,3-.03,1.6.23,3.01,1.55,3.98,1.45,1.07,2.99,2.01,4.49,3.01"/><path class="cls-1" d="m155.5,920.08c-2.25-.97-4.38-.24-6.5.5"/><path class="cls-1" d="m876.5,1090.01c.67.17,1.36.54,2,.46,1.96-.24,3.32.66,4.5,2.04"/><path class="cls-1" d="m382,910.09c1.85.25,3.91-.68,5.7,1.17-1.22,1.76-2.27,3.73-3.78,5.24-.66.67-1.17,1.07-1.49,2.06-.68,2.16-1.86,4.09-4.43,4.52"/><path class="cls-1" d="m551,995.05c-1.42,1.81-3.4,2.07-5.5,2"/><path class="cls-1" d="m346.5,970.06c-.67.17-1.76.14-1.93.53-1.68,3.75-4.47,7.09-4.57,11.47"/><path class="cls-1" d="m1184,973.56c-.57,1.54-1.49,2.64-2.96,3.56-2.15,1.35-3.86,1.27-5.54-.56"/><path class="cls-1" d="m670.5,969.06c-1.67.28-3.34.57-4.73.8-.45,2.56-.86,4.88-1.27,7.2"/><path class="cls-1" d="m670.25,1014.54c.08.5.17,1,.25,1.5"/><path class="cls-1" d="m363.5,932.08c0,.5-.14,1.38.02,1.44,3.52,1.29,4.63,4.75,6.73,7.3,1.77,2.14,2.7,2.16,5.26.26.78-.58,1.78-.88,2.47-1.54,1.43-1.36,1.63-4.39-.04-5.9-2.54-2.3-1.92-5.19-1.25-7.51.64-2.23,1.17-3.85-.64-5.6-.16-.16.29-.95.46-1.45"/><path class="cls-1" d="m1143.5,958.07c.33,1,1.18,2.19.9,2.96-.74,2.03-.21,4.04-.4,6.03"/><path class="cls-1" d="m416,935.08c-.48,2.24.51,4.12,1.5,6"/><path class="cls-1" d="m286,982.56c.85,1.77,1.56,3.55.5,5.5"/><path class="cls-1" d="m131,944.07c-.5.83-1.3,1.63-1.41,2.51-.1.78-.9,2.25.91,2.49"/><path class="cls-1" d="m430,933.83c-.83-.25-2.05-.24-2.43-.8-1.15-1.72-2.69-.85-4.07-.94-.97-.07-1.7.41-2.57.85-1.94.96-4.27,1.1-6.42,1.67-.71.19-1.34.64-2.01.98"/><path class="cls-1" d="m60.5,869.11c0,1.83,0,3.67,0,5.5"/><path class="cls-1" d="m16.5,946.57c-1.87.14-3.88-.51-5.5,1"/><path class="cls-1" d="m493.5,984.05c.17,1.83.33,3.67.5,5.5"/><path class="cls-1" d="m1159.5,979.56c.5,1.83,1,3.67,1.5,5.5"/><path class="cls-1" d="m503.5,995.55q3,.11,3,3.5"/><path class="cls-1" d="m427.5,934.08c-.33.67-1.13,1.58-.92,1.96,1.03,1.92-.35,3.74,0,5.52.12.61,1.34.93,1.9,1.53,1.3,1.4-.09,1.59-.98,1.98"/><path class="cls-1" d="m429,897.59c-1.81-1.24-3.35.17-5,.5"/><path class="cls-1" d="m501,1037.03c-1.37,1-3.32,1.63-2.5,4"/><path class="cls-1" d="m1135.5,1075.01c-1.67-.17-3.33-.33-5-.5"/><path class="cls-1" d="m1153.5,929.08c2.56.18,5.34-.7,7.5,1.5"/><path class="cls-1" d="m126.5,963.56c-1.61-.76-3.21-1.56-5-.5"/><path class="cls-1" d="m541.5,990.55c2.17-1.51,3.63.88,5.5,1,2.32,3.48,6,3.23,9.5,3.5"/><path class="cls-1" d="m175,953.07c-.17.5-.25,1.38-.51,1.44-3.99.86-7.56,3.78-11.99,2.56"/><path class="cls-1" d="m22.5,835.12c.17-1.61,2.02-1.54,2.45-1.38,1.8.68,3.42,1.81,5.22,2.84-.41,1.23-.79,2.38-1.18,3.53"/><path class="cls-1" d="m494.5,967.06c.83.33,1.72.58,2.49,1.02,1.21.7,2.25.55,3.54.04,1.56-.61,3.31-.73,4.97-1.06"/><path class="cls-1" d="m290.5,967.06c-1.5.17-3,.33-4.5.5"/><path class="cls-1" d="m498.5,994.55c0,.5.15,1.06-.03,1.49-.85,2.05-.88,2.04,1.03,3.01"/><path class="cls-1" d="m1188,1052.02c.39.89.43,2.03,2.05,1.08.9-.52,2.29-.07,3.45-.08"/><path class="cls-1" d="m500,992.55c2.56,1.45,3.99,3.41,3,6.5"/><path class="cls-1" d="m386.5,924.08c-.49.97-.69,1.86.5,2.51.52.29,1,.66,1.5.99"/><path class="cls-1" d="m390.5,918.08c-1,.17-2.01.5-3,.44-.68-.04-1.34-.61-2-.94"/><path class="cls-1" d="m173.5,955.57v3.5"/><path class="cls-1" d="m34,871.61c-.17,1.17-.33,2.33-.5,3.5"/><path class="cls-1" d="m314.5,976.56c.33,1.17.67,2.33,1,3.5"/><path class="cls-1" d="m371,926.58c-.02,1.02-1.14,1.78-.54,3.02.65,1.32-.54,2.34-.96,3.48"/><path class="cls-1" d="m485.5,1000.05c.18,1.51-.14,2.55-2,2.53-1,0-2,.3-3,.47"/><path class="cls-1" d="m633.5,968.06c2.15,1.47,2.56,2.56,1.5,4"/><path class="cls-1" d="m498.5,982.06c.17,1.17.33,2.33.5,3.5"/><path class="cls-1" d="m792.5,972.06c-.32,1.55,1.01,2.89.53,4.51-.34,1.14.29,1.52,1.47,1.55.67.01,1.34.61,2,.94,0,1,0,2,0,3"/><path class="cls-1" d="m498.5,1034.03c.58,1.66,2.5,1.27,3.61,2.39,1.23,1.24.77,2.38.89,3.61"/><path class="cls-1" d="m386.5,905.09v5"/><path class="cls-1" d="m1154.5,926.08c-1.17.16-1.56.88-1.53,2,0,.33-.31.67-.47,1"/><path class="cls-1" d="m1131,951.57c-2.02,1.66-.61,3.64-.5,5.5"/><path class="cls-1" d="m129.5,951.07c1.08,2.74,1.32,5.43-.5,8"/><path class="cls-1" d="m484.5,1003.05v2.5"/><path class="cls-1" d="m613.5,964.06c-.5.67-1,1.33-1.5,2"/><path class="cls-1" d="m418,894.6c-1.17.67-2.33,1.33-3.5,2"/><path class="cls-1" d="m164.5,1011.04c0,2.14.44,2.58,2,2"/></g></svg>