<?xml version="1.0" standalone="no"?>
<!DOCTYPE svg PUBLIC "-//W3C//DTD SVG 20010904//EN"
 "http://www.w3.org/TR/2001/REC-SVG-20010904/DTD/svg10.dtd">
<svg version="1.0" xmlns="http://www.w3.org/2000/svg"
 width="200.000000pt" height="200.000000pt" viewBox="0 0 200.000000 200.000000"
 preserveAspectRatio="xMidYMid meet">
<metadata>
Created by potrace 1.11, written by Peter Selinger 2001-2013
</metadata><g><rect x="0" y="0" width="200" height="200" fill="#ffffff" />
<g transform="translate(0.000000,200.000000) scale(0.025253,-0.025253)"
fill="#000000" stroke="none">
<path d="M0 7080 l0 -840 840 0 840 0 0 840 0 840 -840 0 -840 0 0 -840z
m1440 0 l0 -600 -600 0 -600 0 0 600 0 600 600 0 600 0 0 -600z"/>
<path d="M480 7080 l0 -360 360 0 360 0 0 360 0 360 -360 0 -360 0 0 -360z"/>
<path d="M1920 7800 l0 -120 240 0 240 0 0 120 0 120 -240 0 -240 0 0 -120z"/>
<path d="M3600 7800 l0 -120 -120 0 -120 0 0 -120 0 -120 -360 0 -360 0 0
-240 0 -240 -120 0 -120 0 0 120 0 120 -120 0 -120 0 0 120 0 120 -120 0 -120
0 0 -360 0 -360 120 0 120 0 0 -120 0 -120 -120 0 -120 0 0 -120 0 -120 120 0
120 0 0 -120 0 -120 -120 0 -120 0 0 -120 0 -120 -120 0 -120 0 0 120 0 120
-120 0 -120 0 0 -120 0 -120 -120 0 -120 0 0 -120 0 -120 -240 0 -240 0 0 120
0 120 120 0 120 0 0 120 0 120 -480 0 -480 0 0 -1200 0 -1200 120 0 120 0 0
-120 0 -120 120 0 120 0 0 -120 0 -120 -240 0 -240 0 0 -240 0 -240 120 0 120
0 0 120 0 120 240 0 240 0 0 120 0 120 120 0 120 0 0 -120 0 -120 120 0 120 0
0 120 0 120 120 0 120 0 0 -120 0 -120 120 0 120 0 0 120 0 120 120 0 120 0 0
120 0 120 -120 0 -120 0 0 120 0 120 -120 0 -120 0 0 120 0 120 240 0 240 0 0
-120 0 -120 120 0 120 0 0 -120 0 -120 360 0 360 0 0 -120 0 -120 -120 0 -120
0 0 -120 0 -120 -120 0 -120 0 0 -120 0 -120 -240 0 -240 0 0 -120 0 -120 120
0 120 0 0 -120 0 -120 120 0 120 0 0 -120 0 -120 -240 0 -240 0 0 -120 0 -120
120 0 120 0 0 -120 0 -120 120 0 120 0 0 -120 0 -120 -120 0 -120 0 0 -120 0
-120 -120 0 -120 0 0 -480 0 -480 120 0 120 0 0 120 0 120 120 0 120 0 0 -120
0 -120 120 0 120 0 0 120 0 120 120 0 120 0 0 120 0 120 -360 0 -360 0 0 120
0 120 120 0 120 0 0 120 0 120 120 0 120 0 0 120 0 120 120 0 120 0 0 -120 0
-120 120 0 120 0 0 120 0 120 -120 0 -120 0 0 240 0 240 120 0 120 0 0 -120 0
-120 120 0 120 0 0 -360 0 -360 -120 0 -120 0 0 -360 0 -360 240 0 240 0 0
240 0 240 120 0 120 0 0 -240 0 -240 360 0 360 0 0 120 0 120 120 0 120 0 0
120 0 120 -120 0 -120 0 0 360 0 360 -120 0 -120 0 0 -240 0 -240 -240 0 -240
0 0 120 0 120 -120 0 -120 0 0 120 0 120 240 0 240 0 0 120 0 120 120 0 120 0
0 120 0 120 120 0 120 0 0 -120 0 -120 120 0 120 0 0 -120 0 -120 120 0 120 0
0 -120 0 -120 -120 0 -120 0 0 -120 0 -120 120 0 120 0 0 -120 0 -120 120 0
120 0 0 -120 0 -120 -120 0 -120 0 0 -120 0 -120 120 0 120 0 0 120 0 120 120
0 120 0 0 -120 0 -120 120 0 120 0 0 120 0 120 120 0 120 0 0 -120 0 -120 720
0 720 0 0 120 0 120 -240 0 -240 0 0 120 0 120 120 0 120 0 0 240 0 240 120 0
120 0 0 360 0 360 -240 0 -240 0 0 120 0 120 120 0 120 0 0 240 0 240 120 0
120 0 0 -120 0 -120 120 0 120 0 0 -120 0 -120 120 0 120 0 0 120 0 120 -120
0 -120 0 0 120 0 120 120 0 120 0 0 240 0 240 -240 0 -240 0 0 120 0 120 -120
0 -120 0 0 240 0 240 120 0 120 0 0 -120 0 -120 120 0 120 0 0 -120 0 -120
120 0 120 0 0 120 0 120 -120 0 -120 0 0 120 0 120 120 0 120 0 0 240 0 240
-240 0 -240 0 0 240 0 240 120 0 120 0 0 120 0 120 -240 0 -240 0 0 120 0 120
-120 0 -120 0 0 120 0 120 -120 0 -120 0 0 120 0 120 -120 0 -120 0 0 120 0
120 -120 0 -120 0 0 120 0 120 -120 0 -120 0 0 240 0 240 -120 0 -120 0 0
-240 0 -240 -120 0 -120 0 0 360 0 360 -240 0 -240 0 0 -120 0 -120 -120 0
-120 0 0 240 0 240 -240 0 -240 0 0 120 0 120 120 0 120 0 0 240 0 240 240 0
240 0 0 -120 0 -120 -120 0 -120 0 0 -120 0 -120 120 0 120 0 0 120 0 120 120
0 120 0 0 -240 0 -240 120 0 120 0 0 120 0 120 120 0 120 0 0 -240 0 -240 120
0 120 0 0 600 0 600 -240 0 -240 0 0 -120 0 -120 -240 0 -240 0 0 120 0 120
-360 0 -360 0 0 -120 0 -120 -120 0 -120 0 0 120 0 120 -240 0 -240 0 0 -120z
m480 -240 l0 -120 120 0 120 0 0 -120 0 -120 -120 0 -120 0 0 -240 0 -240
-120 0 -120 0 0 -360 0 -360 -120 0 -120 0 0 360 0 360 -120 0 -120 0 0 -240
0 -240 -120 0 -120 0 0 -240 0 -240 360 0 360 0 0 -240 0 -240 120 0 120 0 0
240 0 240 240 0 240 0 0 120 0 120 -120 0 -120 0 0 120 0 120 -120 0 -120 0 0
120 0 120 120 0 120 0 0 120 0 120 120 0 120 0 0 -120 0 -120 120 0 120 0 0
-120 0 -120 120 0 120 0 0 120 0 120 120 0 120 0 0 -240 0 -240 120 0 120 0 0
-240 0 -240 -240 0 -240 0 0 -120 0 -120 480 0 480 0 0 120 0 120 -120 0 -120
0 0 240 0 240 120 0 120 0 0 -120 0 -120 120 0 120 0 0 -240 0 -240 120 0 120
0 0 -360 0 -360 120 0 120 0 0 120 0 120 120 0 120 0 0 -120 0 -120 120 0 120
0 0 -240 0 -240 -120 0 -120 0 0 240 0 240 -120 0 -120 0 0 -120 0 -120 -120
0 -120 0 0 -120 0 -120 120 0 120 0 0 -120 0 -120 -120 0 -120 0 0 120 0 120
-240 0 -240 0 0 -120 0 -120 120 0 120 0 0 -120 0 -120 120 0 120 0 0 -360 0
-360 120 0 120 0 0 360 0 360 120 0 120 0 0 -240 0 -240 120 0 120 0 0 -120 0
-120 120 0 120 0 0 -120 0 -120 -120 0 -120 0 0 -120 0 -120 -120 0 -120 0 0
-120 0 -120 -120 0 -120 0 0 120 0 120 -120 0 -120 0 0 -120 0 -120 -600 0
-600 0 0 -240 0 -240 120 0 120 0 0 -240 0 -240 -120 0 -120 0 0 240 0 240
-120 0 -120 0 0 -120 0 -120 -120 0 -120 0 0 240 0 240 -240 0 -240 0 0 120 0
120 -120 0 -120 0 0 -240 0 -240 -120 0 -120 0 0 -120 0 -120 -240 0 -240 0 0
120 0 120 -120 0 -120 0 0 240 0 240 -120 0 -120 0 0 -120 0 -120 -120 0 -120
0 0 240 0 240 -120 0 -120 0 0 120 0 120 120 0 120 0 0 120 0 120 120 0 120 0
0 -120 0 -120 -120 0 -120 0 0 -120 0 -120 360 0 360 0 0 120 0 120 120 0 120
0 0 120 0 120 -120 0 -120 0 0 120 0 120 -120 0 -120 0 0 240 0 240 120 0 120
0 0 120 0 120 -240 0 -240 0 0 -120 0 -120 -240 0 -240 0 0 120 0 120 -120 0
-120 0 0 120 0 120 120 0 120 0 0 240 0 240 -240 0 -240 0 0 120 0 120 240 0
240 0 0 120 0 120 -120 0 -120 0 0 120 0 120 -120 0 -120 0 0 -120 0 -120
-360 0 -360 0 0 -120 0 -120 -240 0 -240 0 0 -120 0 -120 -120 0 -120 0 0
-120 0 -120 -120 0 -120 0 0 120 0 120 120 0 120 0 0 120 0 120 -120 0 -120 0
0 120 0 120 120 0 120 0 0 -120 0 -120 120 0 120 0 0 240 0 240 -120 0 -120 0
0 120 0 120 -120 0 -120 0 0 120 0 120 120 0 120 0 0 -120 0 -120 120 0 120 0
0 -120 0 -120 240 0 240 0 0 120 0 120 120 0 120 0 0 120 0 120 120 0 120 0 0
-120 0 -120 120 0 120 0 0 120 0 120 120 0 120 0 0 120 0 120 120 0 120 0 0
120 0 120 -120 0 -120 0 0 120 0 120 120 0 120 0 0 120 0 120 240 0 240 0 0
240 0 240 480 0 480 0 0 240 0 240 120 0 120 0 0 -120z m-2400 -2880 l0 -120
-120 0 -120 0 0 -120 0 -120 240 0 240 0 0 -120 0 -120 -240 0 -240 0 0 120 0
120 -120 0 -120 0 0 -240 0 -240 -120 0 -120 0 0 120 0 120 -120 0 -120 0 0
120 0 120 240 0 240 0 0 120 0 120 120 0 120 0 0 120 0 120 120 0 120 0 0
-120z m-1200 -960 l0 -120 360 0 360 0 0 -240 0 -240 -120 0 -120 0 0 120 0
120 -240 0 -240 0 0 120 0 120 -120 0 -120 0 0 120 0 120 120 0 120 0 0 -120z
m7200 0 l0 -120 -120 0 -120 0 0 120 0 120 120 0 120 0 0 -120z m-6000 -480
l0 -120 -120 0 -120 0 0 120 0 120 120 0 120 0 0 -120z m5040 -1680 l0 -360
-360 0 -360 0 0 360 0 360 360 0 360 0 0 -360z m480 -480 l0 -120 -120 0 -120
0 0 -240 0 -240 -120 0 -120 0 0 120 0 120 -240 0 -240 0 0 -240 0 -240 -120
0 -120 0 0 240 0 240 -120 0 -120 0 0 120 0 120 600 0 600 0 0 120 0 120 120
0 120 0 0 -120z m-1920 -240 l0 -120 -120 0 -120 0 0 120 0 120 120 0 120 0 0
-120z m480 -480 l0 -120 -120 0 -120 0 0 120 0 120 120 0 120 0 0 -120z"/>
<path d="M3120 6840 l0 -120 -120 0 -120 0 0 -240 0 -240 -120 0 -120 0 0 120
0 120 -120 0 -120 0 0 -120 0 -120 120 0 120 0 0 -120 0 -120 120 0 120 0 0
120 0 120 120 0 120 0 0 240 0 240 120 0 120 0 0 120 0 120 -120 0 -120 0 0
-120z"/>
<path d="M4320 6360 l0 -120 120 0 120 0 0 -120 0 -120 120 0 120 0 0 120 0
120 -120 0 -120 0 0 120 0 120 -120 0 -120 0 0 -120z"/>
<path d="M5040 5880 l0 -120 -240 0 -240 0 0 -120 0 -120 240 0 240 0 0 120 0
120 120 0 120 0 0 120 0 120 -120 0 -120 0 0 -120z"/>
<path d="M2160 5640 l0 -120 120 0 120 0 0 120 0 120 -120 0 -120 0 0 -120z"/>
<path d="M1440 5400 l0 -120 120 0 120 0 0 120 0 120 -120 0 -120 0 0 -120z"/>
<path d="M3360 5400 l0 -120 -360 0 -360 0 0 -240 0 -240 -120 0 -120 0 0
-120 0 -120 240 0 240 0 0 -240 0 -240 -120 0 -120 0 0 -120 0 -120 120 0 120
0 0 120 0 120 240 0 240 0 0 120 0 120 120 0 120 0 0 -120 0 -120 120 0 120 0
0 -120 0 -120 -120 0 -120 0 0 -240 0 -240 120 0 120 0 0 240 0 240 120 0 120
0 0 240 0 240 120 0 120 0 0 360 0 360 120 0 120 0 0 -480 0 -480 -120 0 -120
0 0 -240 0 -240 -120 0 -120 0 0 -240 0 -240 -240 0 -240 0 0 -120 0 -120 120
0 120 0 0 -120 0 -120 240 0 240 0 0 -240 0 -240 120 0 120 0 0 240 0 240 120
0 120 0 0 120 0 120 -120 0 -120 0 0 120 0 120 120 0 120 0 0 120 0 120 120 0
120 0 0 120 0 120 120 0 120 0 0 -240 0 -240 -120 0 -120 0 0 -240 0 -240 120
0 120 0 0 -120 0 -120 600 0 600 0 0 240 0 240 -120 0 -120 0 0 -120 0 -120
-240 0 -240 0 0 240 0 240 120 0 120 0 0 360 0 360 -120 0 -120 0 0 120 0 120
-120 0 -120 0 0 120 0 120 -360 0 -360 0 0 480 0 480 -240 0 -240 0 0 -120 0
-120 -120 0 -120 0 0 -120 0 -120 -240 0 -240 0 0 -120 0 -120 -120 0 -120 0
0 120 0 120 -120 0 -120 0 0 -120 0 -120 -120 0 -120 0 0 240 0 240 360 0 360
0 0 240 0 240 -120 0 -120 0 0 -120z m0 -960 l0 -120 -120 0 -120 0 0 120 0
120 120 0 120 0 0 -120z m480 0 l0 -120 -120 0 -120 0 0 120 0 120 120 0 120
0 0 -120z m960 -720 l0 -360 -120 0 -120 0 0 -120 0 -120 -120 0 -120 0 0 120
0 120 120 0 120 0 0 360 0 360 120 0 120 0 0 -360z m720 240 l0 -120 -120 0
-120 0 0 120 0 120 120 0 120 0 0 -120z m240 -480 l0 -120 -120 0 -120 0 0
120 0 120 120 0 120 0 0 -120z m-240 -600 l0 -240 -120 0 -120 0 0 240 0 240
120 0 120 0 0 -240z"/>
<path d="M5280 4920 l0 -120 -120 0 -120 0 0 -120 0 -120 120 0 120 0 0 120 0
120 240 0 240 0 0 -120 0 -120 240 0 240 0 0 240 0 240 -480 0 -480 0 0 -120z"/>
<path d="M6960 2760 l0 -120 -120 0 -120 0 0 -120 0 -120 120 0 120 0 0 120 0
120 120 0 120 0 0 120 0 120 -120 0 -120 0 0 -120z"/>
<path d="M3600 2280 l0 -120 -120 0 -120 0 0 -240 0 -240 240 0 240 0 0 120 0
120 -120 0 -120 0 0 120 0 120 120 0 120 0 0 120 0 120 -120 0 -120 0 0 -120z"/>
<path d="M4800 2040 l0 -120 120 0 120 0 0 120 0 120 -120 0 -120 0 0 -120z"/>
<path d="M6240 1560 l0 -120 120 0 120 0 0 120 0 120 -120 0 -120 0 0 -120z"/>
<path d="M6240 7080 l0 -840 840 0 840 0 0 840 0 840 -840 0 -840 0 0 -840z
m1440 0 l0 -600 -600 0 -600 0 0 600 0 600 600 0 600 0 0 -600z"/>
<path d="M6720 7080 l0 -360 360 0 360 0 0 360 0 360 -360 0 -360 0 0 -360z"/>
<path d="M6720 5880 l0 -120 240 0 240 0 0 -240 0 -240 120 0 120 0 0 -120 0
-120 120 0 120 0 0 120 0 120 120 0 120 0 0 360 0 360 -120 0 -120 0 0 -120 0
-120 -120 0 -120 0 0 120 0 120 -360 0 -360 0 0 -120z"/>
<path d="M960 2280 l0 -360 360 0 360 0 0 120 0 120 -240 0 -240 0 0 240 0
240 -120 0 -120 0 0 -360z"/>
<path d="M1440 2520 l0 -120 120 0 120 0 0 120 0 120 -120 0 -120 0 0 -120z"/>
<path d="M240 2280 l0 -120 -120 0 -120 0 0 -120 0 -120 120 0 120 0 0 120 0
120 120 0 120 0 0 120 0 120 -120 0 -120 0 0 -120z"/>
<path d="M0 840 l0 -840 840 0 840 0 0 840 0 840 -840 0 -840 0 0 -840z m1440
0 l0 -600 -600 0 -600 0 0 600 0 600 600 0 600 0 0 -600z"/>
<path d="M480 840 l0 -360 360 0 360 0 0 360 0 360 -360 0 -360 0 0 -360z"/>
<path d="M7680 1320 l0 -120 120 0 120 0 0 120 0 120 -120 0 -120 0 0 -120z"/>
<path d="M7680 840 l0 -120 120 0 120 0 0 120 0 120 -120 0 -120 0 0 -120z"/>
<path d="M7680 360 l0 -120 120 0 120 0 0 120 0 120 -120 0 -120 0 0 -120z"/>
</g>
</g></svg>
